Mezenets-Regular.ufo
<glyph name="exclam" format="2">
  <advance width="101"/>
  <unicode hex="0021"/>
  <outline>
    <contour>
      <point x="16" y="230" type="curve" smooth="yes"/>
      <point x="16" y="247"/>
      <point x="31" y="261"/>
      <point x="48" y="261" type="curve" smooth="yes"/>
      <point x="65" y="261"/>
      <point x="80" y="247"/>
      <point x="80" y="230" type="curve" smooth="yes"/>
      <point x="80" y="213"/>
      <point x="65" y="198"/>
      <point x="48" y="198" type="curve" smooth="yes"/>
      <point x="31" y="198"/>
      <point x="16" y="213"/>
    </contour>
    <contour>
      <point x="48" y="284" type="curve" smooth="yes"/>
      <point x="28" y="284"/>
      <point x="16" y="296"/>
      <point x="16" y="316" type="curve" smooth="yes"/>
      <point x="16" y="342"/>
      <point x="26" y="355"/>
      <point x="33" y="375" type="curve" smooth="yes"/>
      <point x="35" y="381"/>
      <point x="36" y="388"/>
      <point x="36" y="394" type="curve" smooth="yes"/>
      <point x="36" y="401"/>
      <point x="35" y="406"/>
      <point x="35" y="412" type="curve"/>
      <point x="33" y="428" type="line"/>
      <point x="30" y="446" type="line"/>
      <point x="30" y="452"/>
      <point x="30" y="458"/>
      <point x="30" y="466" type="curve" smooth="yes"/>
      <point x="30" y="503"/>
      <point x="42" y="535"/>
      <point x="60" y="553" type="curve" smooth="yes"/>
      <point x="63" y="556"/>
      <point x="71" y="553"/>
      <point x="70" y="550" type="curve" smooth="yes"/>
      <point x="64" y="533"/>
      <point x="54" y="515"/>
      <point x="54" y="494" type="curve" smooth="yes"/>
      <point x="54" y="465"/>
      <point x="58" y="448"/>
      <point x="67" y="425" type="curve" smooth="yes"/>
      <point x="75" y="404" type="line" smooth="yes"/>
      <point x="77" y="398"/>
      <point x="78" y="391"/>
      <point x="80" y="385" type="curve" smooth="yes"/>
      <point x="82" y="379"/>
      <point x="84" y="372"/>
      <point x="84" y="366" type="curve" smooth="yes"/>
      <point x="84" y="360"/>
      <point x="86" y="351"/>
      <point x="86" y="342" type="curve" smooth="yes"/>
      <point x="86" y="318"/>
      <point x="78" y="299"/>
      <point x="64" y="288" type="curve" smooth="yes"/>
      <point x="60" y="285"/>
      <point x="54" y="284"/>
    </contour>
  </outline>
</glyph>
<glyph name="quotedbl" format="2">
  <advance width="136"/>
  <unicode hex="0022"/>
  <outline>
    <contour>
      <point x="90" y="461" type="curve"/>
      <point x="92" y="463"/>
      <point x="112" y="486"/>
      <point x="133" y="486" type="curve" smooth="yes"/>
      <point x="137.719" y="486"/>
      <point x="140.198" y="480.335"/>
      <point x="140.198" y="471.395" type="curve" smooth="yes"/>
      <point x="140.198" y="455.706"/>
      <point x="132.563" y="429.933"/>
      <point x="116" y="407" type="curve" smooth="yes"/>
      <point x="110" y="400"/>
      <point x="107" y="395"/>
      <point x="104" y="392" type="curve"/>
      <point x="104" y="401" type="line" smooth="yes"/>
      <point x="104" y="406.895"/>
      <point x="104" y="461.052"/>
      <point x="90.7233" y="461.052" type="curve" smooth="yes"/>
      <point x="90.4865" y="461.052"/>
      <point x="90.2454" y="461.035"/>
    </contour>
    <contour>
      <point x="32" y="461" type="curve"/>
      <point x="36" y="466"/>
      <point x="55" y="486"/>
      <point x="74" y="486" type="curve" smooth="yes"/>
      <point x="79" y="486"/>
      <point x="82" y="480"/>
      <point x="82" y="468" type="curve" smooth="yes"/>
      <point x="82" y="441"/>
      <point x="58" y="405"/>
      <point x="45" y="392" type="curve"/>
      <point x="45" y="401" type="line" smooth="yes"/>
      <point x="45" y="417.632"/>
      <point x="44.0428" y="461.065"/>
      <point x="32.7641" y="461.065" type="curve" smooth="yes"/>
      <point x="32.5145" y="461.065"/>
      <point x="32.2598" y="461.043"/>
    </contour>
  </outline>
</glyph>
<glyph name="numbersign" format="2">
  <advance width="199"/>
  <unicode hex="0023"/>
  <outline>
    <contour>
      <point x="83" y="323" type="line"/>
      <point x="122" y="323" type="line"/>
      <point x="138" y="376" type="line"/>
      <point x="98" y="376" type="line"/>
    </contour>
    <contour>
      <point x="168" y="400" type="line"/>
      <point x="199" y="400" type="line"/>
      <point x="204" y="395" type="line"/>
      <point x="203" y="392"/>
      <point x="202" y="389"/>
      <point x="201" y="385" type="curve" smooth="yes"/>
      <point x="200" y="381"/>
      <point x="199" y="378"/>
      <point x="198" y="376" type="curve"/>
      <point x="161" y="376" type="line"/>
      <point x="146" y="323" type="line"/>
      <point x="177" y="323" type="line"/>
      <point x="182" y="317" type="line"/>
      <point x="181" y="314"/>
      <point x="180" y="312"/>
      <point x="179" y="308" type="curve" smooth="yes"/>
      <point x="178" y="304"/>
      <point x="177" y="301"/>
      <point x="176" y="299" type="curve"/>
      <point x="139" y="299" type="line"/>
      <point x="121" y="235" type="line"/>
      <point x="119" y="233"/>
      <point x="115" y="231"/>
      <point x="112" y="230" type="curve" smooth="yes"/>
      <point x="109" y="229"/>
      <point x="106" y="227"/>
      <point x="102" y="226" type="curve"/>
      <point x="96" y="230" type="line"/>
      <point x="116" y="299" type="line"/>
      <point x="76" y="299" type="line"/>
      <point x="58" y="235" type="line"/>
      <point x="56" y="233"/>
      <point x="53" y="231"/>
      <point x="50" y="230" type="curve" smooth="yes"/>
      <point x="47" y="229"/>
      <point x="43" y="227"/>
      <point x="39" y="226" type="curve"/>
      <point x="34" y="230" type="line"/>
      <point x="53" y="299" type="line"/>
      <point x="23" y="299" type="line"/>
      <point x="18" y="304" type="line"/>
      <point x="19" y="307"/>
      <point x="20" y="309"/>
      <point x="21" y="313" type="curve" smooth="yes"/>
      <point x="22" y="317"/>
      <point x="23" y="320"/>
      <point x="24" y="323" type="curve"/>
      <point x="60" y="323" type="line"/>
      <point x="75" y="376" type="line"/>
      <point x="45" y="376" type="line"/>
      <point x="40" y="381" type="line"/>
      <point x="41" y="384"/>
      <point x="42" y="388"/>
      <point x="43" y="391" type="curve" smooth="yes"/>
      <point x="44" y="394"/>
      <point x="45" y="397"/>
      <point x="46" y="400" type="curve"/>
      <point x="82" y="400" type="line"/>
      <point x="100" y="460" type="line"/>
      <point x="103" y="462"/>
      <point x="105" y="464"/>
      <point x="108" y="465" type="curve" smooth="yes"/>
      <point x="111" y="466"/>
      <point x="115" y="468"/>
      <point x="118" y="469" type="curve"/>
      <point x="124" y="464" type="line"/>
      <point x="105" y="400" type="line"/>
      <point x="144" y="400" type="line"/>
      <point x="162" y="460" type="line"/>
      <point x="165" y="462"/>
      <point x="168" y="464"/>
      <point x="171" y="465" type="curve" smooth="yes"/>
      <point x="174" y="466"/>
      <point x="177" y="468"/>
      <point x="180" y="469" type="curve"/>
      <point x="186" y="464" type="line"/>
    </contour>
  </outline>
</glyph>
<glyph name="dollar" format="2">
  <advance width="199"/>
  <unicode hex="0024"/>
  <outline>
    <contour>
      <point x="47" y="399" type="curve" smooth="yes"/>
      <point x="47" y="394"/>
      <point x="48" y="390"/>
      <point x="50" y="386" type="curve" smooth="yes"/>
      <point x="52" y="382"/>
      <point x="55" y="378"/>
      <point x="59" y="375" type="curve" smooth="yes"/>
      <point x="63" y="372"/>
      <point x="68" y="368"/>
      <point x="73" y="366" type="curve" smooth="yes"/>
      <point x="78" y="364"/>
      <point x="84" y="361"/>
      <point x="90" y="359" type="curve"/>
      <point x="90" y="432" type="line"/>
      <point x="82" y="432"/>
      <point x="76" y="430"/>
      <point x="70" y="428" type="curve" smooth="yes"/>
      <point x="64" y="426"/>
      <point x="59" y="424"/>
      <point x="56" y="421" type="curve" smooth="yes"/>
      <point x="53" y="418"/>
      <point x="51" y="414"/>
      <point x="49" y="410" type="curve" smooth="yes"/>
      <point x="47" y="406"/>
      <point x="47" y="403"/>
    </contour>
    <contour>
      <point x="151" y="267" type="curve" smooth="yes"/>
      <point x="151" y="273"/>
      <point x="150" y="280"/>
      <point x="148" y="285" type="curve" smooth="yes"/>
      <point x="146" y="290"/>
      <point x="143" y="294"/>
      <point x="139" y="298" type="curve" smooth="yes"/>
      <point x="135" y="302"/>
      <point x="130" y="305"/>
      <point x="125" y="308" type="curve" smooth="yes"/>
      <point x="120" y="311"/>
      <point x="114" y="314"/>
      <point x="108" y="316" type="curve"/>
      <point x="108" y="224" type="line"/>
      <point x="114" y="225"/>
      <point x="119" y="226"/>
      <point x="124" y="228" type="curve" smooth="yes"/>
      <point x="129" y="230"/>
      <point x="134" y="234"/>
      <point x="138" y="238" type="curve" smooth="yes"/>
      <point x="142" y="242"/>
      <point x="146" y="246"/>
      <point x="148" y="251" type="curve" smooth="yes"/>
      <point x="150" y="256"/>
      <point x="151" y="261"/>
    </contour>
    <contour>
      <point x="108" y="170" type="line"/>
      <point x="107" y="169"/>
      <point x="106" y="169"/>
      <point x="105" y="168" type="curve" smooth="yes"/>
      <point x="104" y="167"/>
      <point x="104" y="166"/>
      <point x="103" y="166" type="curve" smooth="yes"/>
      <point x="102" y="166"/>
      <point x="101" y="165"/>
      <point x="100" y="165" type="curve" smooth="yes"/>
      <point x="99" y="165"/>
      <point x="98" y="164"/>
      <point x="96" y="164" type="curve"/>
      <point x="90" y="168" type="line"/>
      <point x="90" y="198" type="line"/>
      <point x="83" y="198"/>
      <point x="77" y="198"/>
      <point x="71" y="199" type="curve" smooth="yes"/>
      <point x="65" y="200"/>
      <point x="61" y="201"/>
      <point x="55" y="203" type="curve" smooth="yes"/>
      <point x="49" y="205"/>
      <point x="44" y="207"/>
      <point x="38" y="210" type="curve" smooth="yes"/>
      <point x="32" y="213"/>
      <point x="27" y="216"/>
      <point x="21" y="220" type="curve" smooth="yes"/>
      <point x="20" y="221"/>
      <point x="19" y="223"/>
      <point x="19" y="227" type="curve" smooth="yes"/>
      <point x="19" y="231"/>
      <point x="18" y="236"/>
      <point x="18" y="241" type="curve" smooth="yes"/>
      <point x="18" y="246"/>
      <point x="19" y="251"/>
      <point x="19" y="257" type="curve" smooth="yes"/>
      <point x="19" y="263"/>
      <point x="20" y="267"/>
      <point x="21" y="271" type="curve"/>
      <point x="30" y="270" type="line"/>
      <point x="37" y="256"/>
      <point x="46" y="245"/>
      <point x="56" y="237" type="curve" smooth="yes"/>
      <point x="66" y="229"/>
      <point x="77" y="226"/>
      <point x="90" y="224" type="curve"/>
      <point x="90" y="323" type="line"/>
      <point x="82" y="326"/>
      <point x="72" y="329"/>
      <point x="64" y="333" type="curve" smooth="yes"/>
      <point x="56" y="337"/>
      <point x="48" y="341"/>
      <point x="42" y="346" type="curve" smooth="yes"/>
      <point x="36" y="351"/>
      <point x="30" y="357"/>
      <point x="26" y="364" type="curve" smooth="yes"/>
      <point x="22" y="371"/>
      <point x="20" y="380"/>
      <point x="20" y="390" type="curve" smooth="yes"/>
      <point x="20" y="396"/>
      <point x="22" y="401"/>
      <point x="24" y="408" type="curve" smooth="yes"/>
      <point x="26" y="415"/>
      <point x="29" y="421"/>
      <point x="35" y="427" type="curve" smooth="yes"/>
      <point x="41" y="433"/>
      <point x="48" y="439"/>
      <point x="57" y="443" type="curve" smooth="yes"/>
      <point x="66" y="447"/>
      <point x="77" y="450"/>
      <point x="90" y="452" type="curve"/>
      <point x="90" y="482" type="line"/>
      <point x="92" y="483"/>
      <point x="93" y="484"/>
      <point x="94" y="484" type="curve" smooth="yes"/>
      <point x="95" y="484"/>
      <point x="95" y="486"/>
      <point x="96" y="486" type="curve" smooth="yes"/>
      <point x="97" y="486"/>
      <point x="98" y="487"/>
      <point x="99" y="487" type="curve" smooth="yes"/>
      <point x="100" y="487"/>
      <point x="101" y="488"/>
      <point x="103" y="488" type="curve"/>
      <point x="108" y="483" type="line"/>
      <point x="108" y="452" type="line"/>
      <point x="114" y="452"/>
      <point x="121" y="452"/>
      <point x="127" y="451" type="curve" smooth="yes"/>
      <point x="133" y="450"/>
      <point x="139" y="449"/>
      <point x="144" y="447" type="curve" smooth="yes"/>
      <point x="149" y="445"/>
      <point x="154" y="443"/>
      <point x="158" y="441" type="curve" smooth="yes"/>
      <point x="162" y="439"/>
      <point x="166" y="437"/>
      <point x="169" y="434" type="curve" smooth="yes"/>
      <point x="170" y="433"/>
      <point x="169" y="430"/>
      <point x="168" y="428" type="curve" smooth="yes"/>
      <point x="167" y="426"/>
      <point x="166" y="423"/>
      <point x="164" y="420" type="curve" smooth="yes"/>
      <point x="162" y="417"/>
      <point x="160" y="414"/>
      <point x="158" y="411" type="curve" smooth="yes"/>
      <point x="156" y="408"/>
      <point x="153" y="406"/>
      <point x="151" y="404" type="curve"/>
      <point x="143" y="406" type="line"/>
      <point x="137" y="412"/>
      <point x="132" y="418"/>
      <point x="126" y="422" type="curve" smooth="yes"/>
      <point x="120" y="426"/>
      <point x="114" y="428"/>
      <point x="108" y="430" type="curve"/>
      <point x="108" y="352" type="line"/>
      <point x="116" y="349"/>
      <point x="126" y="345"/>
      <point x="134" y="341" type="curve" smooth="yes"/>
      <point x="142" y="337"/>
      <point x="150" y="332"/>
      <point x="157" y="326" type="curve" smooth="yes"/>
      <point x="164" y="320"/>
      <point x="169" y="314"/>
      <point x="173" y="306" type="curve" smooth="yes"/>
      <point x="177" y="298"/>
      <point x="179" y="289"/>
      <point x="179" y="278" type="curve" smooth="yes"/>
      <point x="179" y="270"/>
      <point x="178" y="261"/>
      <point x="175" y="253" type="curve" smooth="yes"/>
      <point x="172" y="245"/>
      <point x="168" y="236"/>
      <point x="162" y="229" type="curve" smooth="yes"/>
      <point x="156" y="222"/>
      <point x="148" y="216"/>
      <point x="139" y="210" type="curve" smooth="yes"/>
      <point x="130" y="204"/>
      <point x="120" y="201"/>
      <point x="108" y="199" type="curve"/>
    </contour>
  </outline>
</glyph>
<glyph name="percent" format="2">
  <advance width="293"/>
  <unicode hex="0025"/>
  <outline>
    <contour>
      <point x="102" y="382" type="curve" smooth="yes"/>
      <point x="102" y="392"/>
      <point x="102" y="401"/>
      <point x="100" y="408" type="curve" smooth="yes"/>
      <point x="98" y="415"/>
      <point x="96" y="421"/>
      <point x="93" y="426" type="curve" smooth="yes"/>
      <point x="90" y="431"/>
      <point x="87" y="434"/>
      <point x="83" y="436" type="curve" smooth="yes"/>
      <point x="79" y="438"/>
      <point x="75" y="440"/>
      <point x="71" y="440" type="curve" smooth="yes"/>
      <point x="68" y="440"/>
      <point x="65" y="439"/>
      <point x="62" y="437" type="curve" smooth="yes"/>
      <point x="59" y="435"/>
      <point x="56" y="432"/>
      <point x="54" y="428" type="curve" smooth="yes"/>
      <point x="52" y="424"/>
      <point x="50" y="419"/>
      <point x="48" y="413" type="curve" smooth="yes"/>
      <point x="46" y="407"/>
      <point x="46" y="399"/>
      <point x="46" y="391" type="curve" smooth="yes"/>
      <point x="46" y="381"/>
      <point x="46" y="372"/>
      <point x="48" y="365" type="curve" smooth="yes"/>
      <point x="50" y="358"/>
      <point x="51" y="352"/>
      <point x="54" y="347" type="curve" smooth="yes"/>
      <point x="57" y="342"/>
      <point x="60" y="338"/>
      <point x="64" y="336" type="curve" smooth="yes"/>
      <point x="68" y="334"/>
      <point x="73" y="333"/>
      <point x="77" y="333" type="curve" smooth="yes"/>
      <point x="80" y="333"/>
      <point x="83" y="334"/>
      <point x="86" y="336" type="curve" smooth="yes"/>
      <point x="89" y="338"/>
      <point x="93" y="341"/>
      <point x="95" y="345" type="curve" smooth="yes"/>
      <point x="97" y="349"/>
      <point x="99" y="355"/>
      <point x="100" y="361" type="curve" smooth="yes"/>
      <point x="101" y="367"/>
      <point x="102" y="374"/>
    </contour>
    <contour>
      <point x="248" y="260" type="curve" smooth="yes"/>
      <point x="248" y="270"/>
      <point x="248" y="279"/>
      <point x="246" y="286" type="curve" smooth="yes"/>
      <point x="244" y="293"/>
      <point x="242" y="299"/>
      <point x="239" y="304" type="curve" smooth="yes"/>
      <point x="236" y="309"/>
      <point x="233" y="312"/>
      <point x="229" y="314" type="curve" smooth="yes"/>
      <point x="225" y="316"/>
      <point x="221" y="318"/>
      <point x="217" y="318" type="curve" smooth="yes"/>
      <point x="214" y="318"/>
      <point x="211" y="316"/>
      <point x="208" y="314" type="curve" smooth="yes"/>
      <point x="205" y="312"/>
      <point x="202" y="310"/>
      <point x="200" y="306" type="curve" smooth="yes"/>
      <point x="198" y="302"/>
      <point x="196" y="296"/>
      <point x="194" y="290" type="curve" smooth="yes"/>
      <point x="192" y="284"/>
      <point x="192" y="277"/>
      <point x="192" y="269" type="curve" smooth="yes"/>
      <point x="192" y="259"/>
      <point x="192" y="250"/>
      <point x="194" y="243" type="curve" smooth="yes"/>
      <point x="196" y="236"/>
      <point x="198" y="230"/>
      <point x="201" y="225" type="curve" smooth="yes"/>
      <point x="204" y="220"/>
      <point x="206" y="216"/>
      <point x="210" y="214" type="curve" smooth="yes"/>
      <point x="214" y="212"/>
      <point x="219" y="211"/>
      <point x="223" y="211" type="curve" smooth="yes"/>
      <point x="227" y="211"/>
      <point x="229" y="212"/>
      <point x="232" y="214" type="curve" smooth="yes"/>
      <point x="235" y="216"/>
      <point x="239" y="219"/>
      <point x="241" y="223" type="curve" smooth="yes"/>
      <point x="243" y="227"/>
      <point x="245" y="232"/>
      <point x="246" y="238" type="curve" smooth="yes"/>
      <point x="247" y="244"/>
      <point x="248" y="252"/>
    </contour>
    <contour>
      <point x="132" y="386" type="curve" smooth="yes"/>
      <point x="132" y="376"/>
      <point x="131" y="368"/>
      <point x="128" y="360" type="curve" smooth="yes"/>
      <point x="125" y="352"/>
      <point x="120" y="343"/>
      <point x="114" y="337" type="curve" smooth="yes"/>
      <point x="108" y="331"/>
      <point x="102" y="326"/>
      <point x="94" y="322" type="curve" smooth="yes"/>
      <point x="86" y="318"/>
      <point x="79" y="316"/>
      <point x="71" y="316" type="curve" smooth="yes"/>
      <point x="63" y="316"/>
      <point x="56" y="318"/>
      <point x="49" y="322" type="curve" smooth="yes"/>
      <point x="42" y="326"/>
      <point x="36" y="331"/>
      <point x="31" y="337" type="curve" smooth="yes"/>
      <point x="26" y="343"/>
      <point x="23" y="352"/>
      <point x="20" y="360" type="curve" smooth="yes"/>
      <point x="17" y="368"/>
      <point x="16" y="376"/>
      <point x="16" y="386" type="curve" smooth="yes"/>
      <point x="16" y="396"/>
      <point x="18" y="406"/>
      <point x="21" y="414" type="curve" smooth="yes"/>
      <point x="24" y="422"/>
      <point x="28" y="430"/>
      <point x="34" y="436" type="curve" smooth="yes"/>
      <point x="40" y="442"/>
      <point x="47" y="447"/>
      <point x="54" y="451" type="curve" smooth="yes"/>
      <point x="61" y="455"/>
      <point x="69" y="457"/>
      <point x="77" y="457" type="curve" smooth="yes"/>
      <point x="85" y="457"/>
      <point x="93" y="455"/>
      <point x="100" y="451" type="curve" smooth="yes"/>
      <point x="107" y="447"/>
      <point x="112" y="442"/>
      <point x="117" y="436" type="curve" smooth="yes"/>
      <point x="122" y="430"/>
      <point x="125" y="422"/>
      <point x="128" y="414" type="curve" smooth="yes"/>
      <point x="131" y="406"/>
      <point x="132" y="396"/>
    </contour>
    <contour>
      <point x="74" y="204" type="line" smooth="yes"/>
      <point x="73" y="203"/>
      <point x="71" y="201"/>
      <point x="69" y="200" type="curve" smooth="yes"/>
      <point x="67" y="199"/>
      <point x="64" y="199"/>
      <point x="61" y="198" type="curve" smooth="yes"/>
      <point x="58" y="197"/>
      <point x="56" y="196"/>
      <point x="53" y="195" type="curve" smooth="yes"/>
      <point x="50" y="194"/>
      <point x="48" y="193"/>
      <point x="46" y="193" type="curve"/>
      <point x="41" y="200" type="line"/>
      <point x="220" y="447" type="line"/>
      <point x="224" y="449"/>
      <point x="228" y="451"/>
      <point x="233" y="453" type="curve" smooth="yes"/>
      <point x="238" y="455"/>
      <point x="243" y="456"/>
      <point x="247" y="457" type="curve"/>
      <point x="253" y="450" type="line"/>
    </contour>
    <contour>
      <point x="278" y="264" type="curve" smooth="yes"/>
      <point x="278" y="254"/>
      <point x="276" y="245"/>
      <point x="273" y="237" type="curve" smooth="yes"/>
      <point x="270" y="229"/>
      <point x="266" y="221"/>
      <point x="260" y="215" type="curve" smooth="yes"/>
      <point x="254" y="209"/>
      <point x="248" y="203"/>
      <point x="240" y="199" type="curve" smooth="yes"/>
      <point x="232" y="195"/>
      <point x="225" y="194"/>
      <point x="217" y="194" type="curve" smooth="yes"/>
      <point x="209" y="194"/>
      <point x="202" y="195"/>
      <point x="195" y="199" type="curve" smooth="yes"/>
      <point x="188" y="203"/>
      <point x="183" y="209"/>
      <point x="178" y="215" type="curve" smooth="yes"/>
      <point x="173" y="221"/>
      <point x="169" y="229"/>
      <point x="166" y="237" type="curve" smooth="yes"/>
      <point x="163" y="245"/>
      <point x="162" y="254"/>
      <point x="162" y="264" type="curve" smooth="yes"/>
      <point x="162" y="274"/>
      <point x="164" y="284"/>
      <point x="167" y="292" type="curve" smooth="yes"/>
      <point x="170" y="300"/>
      <point x="174" y="308"/>
      <point x="180" y="314" type="curve" smooth="yes"/>
      <point x="186" y="320"/>
      <point x="193" y="325"/>
      <point x="200" y="329" type="curve" smooth="yes"/>
      <point x="207" y="333"/>
      <point x="215" y="334"/>
      <point x="223" y="334" type="curve" smooth="yes"/>
      <point x="231" y="334"/>
      <point x="239" y="333"/>
      <point x="246" y="329" type="curve" smooth="yes"/>
      <point x="253" y="325"/>
      <point x="258" y="320"/>
      <point x="263" y="314" type="curve" smooth="yes"/>
      <point x="268" y="308"/>
      <point x="271" y="300"/>
      <point x="274" y="292" type="curve" smooth="yes"/>
      <point x="277" y="284"/>
      <point x="278" y="274"/>
    </contour>
  </outline>
</glyph>
<glyph name="ampersand" format="2">
  <advance width="284"/>
  <unicode hex="0026"/>
  <outline>
    <contour>
      <point x="92" y="435" type="curve" smooth="yes"/>
      <point x="92" y="427"/>
      <point x="94" y="419"/>
      <point x="96" y="410" type="curve" smooth="yes"/>
      <point x="98" y="401"/>
      <point x="102" y="392"/>
      <point x="106" y="383" type="curve"/>
      <point x="116" y="389"/>
      <point x="123" y="394"/>
      <point x="129" y="399" type="curve" smooth="yes"/>
      <point x="135" y="404"/>
      <point x="140" y="409"/>
      <point x="143" y="414" type="curve" smooth="yes"/>
      <point x="146" y="419"/>
      <point x="149" y="425"/>
      <point x="150" y="430" type="curve" smooth="yes"/>
      <point x="151" y="435"/>
      <point x="152" y="440"/>
      <point x="152" y="444" type="curve" smooth="yes"/>
      <point x="152" y="449"/>
      <point x="151" y="453"/>
      <point x="150" y="457" type="curve" smooth="yes"/>
      <point x="149" y="461"/>
      <point x="146" y="466"/>
      <point x="144" y="469" type="curve" smooth="yes"/>
      <point x="142" y="472"/>
      <point x="139" y="474"/>
      <point x="135" y="476" type="curve" smooth="yes"/>
      <point x="131" y="478"/>
      <point x="127" y="479"/>
      <point x="122" y="479" type="curve" smooth="yes"/>
      <point x="117" y="479"/>
      <point x="113" y="478"/>
      <point x="109" y="476" type="curve" smooth="yes"/>
      <point x="105" y="474"/>
      <point x="102" y="470"/>
      <point x="100" y="466" type="curve" smooth="yes"/>
      <point x="98" y="462"/>
      <point x="95" y="456"/>
      <point x="94" y="451" type="curve" smooth="yes"/>
      <point x="93" y="446"/>
      <point x="92" y="441"/>
    </contour>
    <contour>
      <point x="110" y="218" type="curve" smooth="yes"/>
      <point x="122" y="218"/>
      <point x="132" y="219"/>
      <point x="142" y="223" type="curve" smooth="yes"/>
      <point x="152" y="227"/>
      <point x="161" y="232"/>
      <point x="169" y="238" type="curve"/>
      <point x="162" y="245"/>
      <point x="155" y="254"/>
      <point x="148" y="262" type="curve" smooth="yes"/>
      <point x="141" y="270"/>
      <point x="133" y="279"/>
      <point x="126" y="288" type="curve" smooth="yes"/>
      <point x="119" y="297"/>
      <point x="112" y="306"/>
      <point x="106" y="316" type="curve" smooth="yes"/>
      <point x="100" y="326"/>
      <point x="93" y="336"/>
      <point x="88" y="346" type="curve"/>
      <point x="81" y="340"/>
      <point x="75" y="334"/>
      <point x="70" y="328" type="curve" smooth="yes"/>
      <point x="65" y="322"/>
      <point x="62" y="318"/>
      <point x="59" y="312" type="curve" smooth="yes"/>
      <point x="56" y="306"/>
      <point x="53" y="301"/>
      <point x="52" y="295" type="curve" smooth="yes"/>
      <point x="51" y="289"/>
      <point x="50" y="284"/>
      <point x="50" y="278" type="curve" smooth="yes"/>
      <point x="50" y="268"/>
      <point x="52" y="260"/>
      <point x="55" y="252" type="curve" smooth="yes"/>
      <point x="58" y="244"/>
      <point x="63" y="238"/>
      <point x="69" y="233" type="curve" smooth="yes"/>
      <point x="75" y="228"/>
      <point x="81" y="225"/>
      <point x="88" y="222" type="curve" smooth="yes"/>
      <point x="95" y="219"/>
      <point x="102" y="218"/>
    </contour>
    <contour>
      <point x="280" y="356" type="line"/>
      <point x="276" y="352"/>
      <point x="273" y="348"/>
      <point x="270" y="345" type="curve" smooth="yes"/>
      <point x="267" y="342"/>
      <point x="263" y="339"/>
      <point x="259" y="337" type="curve"/>
      <point x="257" y="338"/>
      <point x="254" y="339"/>
      <point x="251" y="340" type="curve" smooth="yes"/>
      <point x="248" y="341"/>
      <point x="244" y="342"/>
      <point x="241" y="343" type="curve" smooth="yes"/>
      <point x="238" y="344"/>
      <point x="235" y="345"/>
      <point x="232" y="345" type="curve" smooth="yes"/>
      <point x="229" y="345"/>
      <point x="226" y="346"/>
      <point x="224" y="346" type="curve"/>
      <point x="226" y="344"/>
      <point x="226" y="341"/>
      <point x="227" y="339" type="curve" smooth="yes"/>
      <point x="228" y="337"/>
      <point x="229" y="334"/>
      <point x="229" y="332" type="curve" smooth="yes"/>
      <point x="229" y="330"/>
      <point x="230" y="327"/>
      <point x="230" y="324" type="curve" smooth="yes"/>
      <point x="230" y="313" type="line" smooth="yes"/>
      <point x="230" y="303"/>
      <point x="228" y="293"/>
      <point x="224" y="282" type="curve" smooth="yes"/>
      <point x="220" y="271"/>
      <point x="214" y="260"/>
      <point x="206" y="250" type="curve"/>
      <point x="216" y="241"/>
      <point x="224" y="232"/>
      <point x="232" y="226" type="curve" smooth="yes"/>
      <point x="237" y="222"/>
      <point x="243" y="220"/>
      <point x="249" y="218" type="curve" smooth="yes"/>
      <point x="251" y="218"/>
      <point x="253" y="216"/>
      <point x="256" y="216" type="curve" smooth="yes"/>
      <point x="260" y="216"/>
      <point x="265" y="217"/>
      <point x="270" y="218" type="curve"/>
      <point x="272" y="209" type="line"/>
      <point x="260" y="204"/>
      <point x="250" y="200"/>
      <point x="242" y="198" type="curve" smooth="yes"/>
      <point x="234" y="196"/>
      <point x="228" y="194"/>
      <point x="225" y="194" type="curve" smooth="yes"/>
      <point x="222" y="194"/>
      <point x="217" y="196"/>
      <point x="209" y="202" type="curve" smooth="yes"/>
      <point x="201" y="208"/>
      <point x="192" y="215"/>
      <point x="182" y="225" type="curve"/>
      <point x="171" y="216"/>
      <point x="159" y="208"/>
      <point x="146" y="202" type="curve" smooth="yes"/>
      <point x="133" y="196"/>
      <point x="119" y="194"/>
      <point x="104" y="194" type="curve" smooth="yes"/>
      <point x="91" y="194"/>
      <point x="79" y="196"/>
      <point x="68" y="199" type="curve" smooth="yes"/>
      <point x="57" y="202"/>
      <point x="49" y="207"/>
      <point x="41" y="214" type="curve" smooth="yes"/>
      <point x="33" y="221"/>
      <point x="27" y="229"/>
      <point x="23" y="239" type="curve" smooth="yes"/>
      <point x="19" y="249"/>
      <point x="17" y="260"/>
      <point x="17" y="273" type="curve" smooth="yes"/>
      <point x="17" y="281"/>
      <point x="18" y="289"/>
      <point x="21" y="297" type="curve" smooth="yes"/>
      <point x="24" y="305"/>
      <point x="28" y="313"/>
      <point x="33" y="321" type="curve" smooth="yes"/>
      <point x="38" y="329"/>
      <point x="44" y="336"/>
      <point x="52" y="344" type="curve" smooth="yes"/>
      <point x="60" y="352"/>
      <point x="69" y="359"/>
      <point x="79" y="366" type="curve"/>
      <point x="75" y="376"/>
      <point x="72" y="385"/>
      <point x="70" y="395" type="curve" smooth="yes"/>
      <point x="68" y="405"/>
      <point x="66" y="414"/>
      <point x="66" y="423" type="curve" smooth="yes"/>
      <point x="66" y="434"/>
      <point x="68" y="444"/>
      <point x="72" y="454" type="curve" smooth="yes"/>
      <point x="76" y="464"/>
      <point x="80" y="472"/>
      <point x="86" y="479" type="curve" smooth="yes"/>
      <point x="92" y="486"/>
      <point x="100" y="492"/>
      <point x="108" y="496" type="curve" smooth="yes"/>
      <point x="116" y="500"/>
      <point x="124" y="502"/>
      <point x="133" y="502" type="curve" smooth="yes"/>
      <point x="142" y="502"/>
      <point x="150" y="500"/>
      <point x="156" y="497" type="curve" smooth="yes"/>
      <point x="162" y="494"/>
      <point x="166" y="491"/>
      <point x="170" y="486" type="curve" smooth="yes"/>
      <point x="174" y="481"/>
      <point x="176" y="476"/>
      <point x="178" y="470" type="curve" smooth="yes"/>
      <point x="180" y="464"/>
      <point x="180" y="457"/>
      <point x="180" y="450" type="curve" smooth="yes"/>
      <point x="180" y="436"/>
      <point x="176" y="423"/>
      <point x="167" y="410" type="curve" smooth="yes"/>
      <point x="158" y="397"/>
      <point x="144" y="385"/>
      <point x="128" y="375" type="curve" smooth="yes"/>
      <point x="125" y="373"/>
      <point x="123" y="372"/>
      <point x="121" y="370" type="curve" smooth="yes"/>
      <point x="119" y="368"/>
      <point x="116" y="368"/>
      <point x="114" y="366" type="curve"/>
      <point x="119" y="357"/>
      <point x="124" y="347"/>
      <point x="130" y="338" type="curve" smooth="yes"/>
      <point x="136" y="329"/>
      <point x="143" y="321"/>
      <point x="150" y="312" type="curve" smooth="yes"/>
      <point x="157" y="303"/>
      <point x="163" y="294"/>
      <point x="170" y="286" type="curve" smooth="yes"/>
      <point x="177" y="278"/>
      <point x="185" y="271"/>
      <point x="192" y="264" type="curve"/>
      <point x="196" y="271"/>
      <point x="200" y="277"/>
      <point x="202" y="284" type="curve" smooth="yes"/>
      <point x="204" y="291"/>
      <point x="205" y="298"/>
      <point x="205" y="304" type="curve" smooth="yes"/>
      <point x="205" y="310"/>
      <point x="204" y="316"/>
      <point x="202" y="321" type="curve" smooth="yes"/>
      <point x="200" y="326"/>
      <point x="198" y="330"/>
      <point x="195" y="334" type="curve" smooth="yes"/>
      <point x="192" y="338"/>
      <point x="188" y="341"/>
      <point x="184" y="343" type="curve" smooth="yes"/>
      <point x="180" y="345"/>
      <point x="176" y="347"/>
      <point x="172" y="347" type="curve"/>
      <point x="168" y="352" type="line"/>
      <point x="170" y="354"/>
      <point x="171" y="356"/>
      <point x="174" y="358" type="curve" smooth="yes"/>
      <point x="177" y="360"/>
      <point x="180" y="362"/>
      <point x="183" y="363" type="curve"/>
      <point x="275" y="363" type="line"/>
    </contour>
  </outline>
</glyph>
<glyph name="quotesingle" format="2">
  <advance width="77"/>
  <unicode hex="0027"/>
  <outline>
    <contour>
      <point x="32" y="461" type="line"/>
      <point x="36" y="466"/>
      <point x="55" y="486"/>
      <point x="74" y="486" type="curve" smooth="yes"/>
      <point x="79" y="486"/>
      <point x="82" y="480"/>
      <point x="82" y="468" type="curve" smooth="yes"/>
      <point x="80" y="441"/>
      <point x="58" y="405"/>
      <point x="45" y="392" type="curve"/>
      <point x="45" y="401" type="line" smooth="yes"/>
      <point x="45" y="418"/>
      <point x="44" y="461"/>
      <point x="33" y="461" type="curve" smooth="yes"/>
    </contour>
  </outline>
</glyph>
<glyph name="parenleft" format="2">
  <advance width="159"/>
  <unicode hex="0028"/>
  <outline>
    <contour>
      <point x="204" y="-33" type="curve" smooth="yes"/>
      <point x="207" y="-36"/>
      <point x="209" y="-39"/>
      <point x="209" y="-42" type="curve" smooth="yes"/>
      <point x="209" y="-48"/>
      <point x="203" y="-54"/>
      <point x="197" y="-54" type="curve" smooth="yes"/>
      <point x="195" y="-54"/>
      <point x="192" y="-54"/>
      <point x="190" y="-52" type="curve" smooth="yes"/>
      <point x="132" y="-9"/>
      <point x="88" y="56"/>
      <point x="69" y="137" type="curve" smooth="yes"/>
      <point x="63" y="163"/>
      <point x="60" y="191"/>
      <point x="60" y="220" type="curve" smooth="yes"/>
      <point x="60" y="317"/>
      <point x="92" y="389"/>
      <point x="137" y="442" type="curve" smooth="yes"/>
      <point x="153" y="461"/>
      <point x="170" y="477"/>
      <point x="190" y="492" type="curve" smooth="yes"/>
      <point x="192" y="494"/>
      <point x="195" y="495"/>
      <point x="197" y="495" type="curve" smooth="yes"/>
      <point x="203" y="495"/>
      <point x="209" y="488"/>
      <point x="209" y="482" type="curve" smooth="yes"/>
      <point x="209" y="479"/>
      <point x="207" y="476"/>
      <point x="204" y="473" type="curve" smooth="yes"/>
      <point x="150" y="432"/>
      <point x="109" y="377"/>
      <point x="92" y="300" type="curve" smooth="yes"/>
      <point x="86" y="275"/>
      <point x="84" y="248"/>
      <point x="84" y="220" type="curve" smooth="yes"/>
      <point x="84" y="131"/>
      <point x="114" y="64"/>
      <point x="155" y="14" type="curve" smooth="yes"/>
      <point x="170" y="-4"/>
      <point x="186" y="-19"/>
    </contour>
  </outline>
</glyph>
<glyph name="parenright" format="2">
  <advance width="159"/>
  <unicode hex="0029"/>
  <outline>
    <contour>
      <point x="100" y="220" type="curve" smooth="yes"/>
      <point x="100" y="124"/>
      <point x="66" y="52"/>
      <point x="22" y="-1" type="curve" smooth="yes"/>
      <point x="6" y="-20"/>
      <point x="-11" y="-37"/>
      <point x="-30" y="-52" type="curve" smooth="yes"/>
      <point x="-32" y="-54"/>
      <point x="-36" y="-55"/>
      <point x="-38" y="-55" type="curve" smooth="yes"/>
      <point x="-44" y="-55"/>
      <point x="-49" y="-48"/>
      <point x="-49" y="-42" type="curve" smooth="yes"/>
      <point x="-49" y="-39"/>
      <point x="-47" y="-36"/>
      <point x="-44" y="-33" type="curve" smooth="yes"/>
      <point x="9" y="8"/>
      <point x="49" y="67"/>
      <point x="67" y="143" type="curve" smooth="yes"/>
      <point x="73" y="167"/>
      <point x="76" y="193"/>
      <point x="76" y="220" type="curve" smooth="yes"/>
      <point x="76" y="340"/>
      <point x="25" y="421"/>
      <point x="-44" y="473" type="curve" smooth="yes"/>
      <point x="-47" y="476"/>
      <point x="-49" y="479"/>
      <point x="-49" y="482" type="curve" smooth="yes"/>
      <point x="-49" y="488"/>
      <point x="-43" y="495"/>
      <point x="-37" y="495" type="curve" smooth="yes"/>
      <point x="-35" y="495"/>
      <point x="-32" y="494"/>
      <point x="-30" y="492" type="curve" smooth="yes"/>
      <point x="28" y="448"/>
      <point x="71" y="388"/>
      <point x="90" y="306" type="curve" smooth="yes"/>
      <point x="96" y="279"/>
      <point x="100" y="251"/>
    </contour>
  </outline>
</glyph>
<glyph name="asterisk" format="2">
  <advance width="193"/>
  <unicode hex="002A"/>
  <outline>
    <contour>
      <point x="140" y="452" type="line"/>
      <point x="163" y="406" type="line"/>
      <point x="116" y="428" type="line"/>
      <point x="99" y="380" type="line"/>
      <point x="82" y="428" type="line"/>
      <point x="36" y="406" type="line"/>
      <point x="58" y="452" type="line"/>
      <point x="10" y="470" type="line"/>
      <point x="58" y="486" type="line"/>
      <point x="36" y="532" type="line"/>
      <point x="82" y="510" type="line"/>
      <point x="99" y="558" type="line"/>
      <point x="116" y="510" type="line"/>
      <point x="163" y="532" type="line"/>
      <point x="140" y="486" type="line"/>
      <point x="188" y="470" type="line"/>
    </contour>
    <contour>
      <point x="120" y="478" type="line"/>
      <point x="132" y="502" type="line"/>
      <point x="108" y="490" type="line"/>
      <point x="99" y="515" type="line"/>
      <point x="90" y="490" type="line"/>
      <point x="66" y="502" type="line"/>
      <point x="78" y="478" type="line"/>
      <point x="54" y="470" type="line"/>
      <point x="78" y="460" type="line"/>
      <point x="66" y="436" type="line"/>
      <point x="90" y="448" type="line"/>
      <point x="99" y="424" type="line"/>
      <point x="108" y="448" type="line"/>
      <point x="132" y="436" type="line"/>
      <point x="120" y="460" type="line"/>
      <point x="145" y="470" type="line"/>
    </contour>
  </outline>
</glyph>
<glyph name="plus" format="2">
  <advance width="289"/>
  <unicode hex="002B"/>
  <outline>
    <contour>
      <point x="264" y="314" type="line"/>
      <point x="160" y="314" type="line"/>
      <point x="160" y="200" type="line"/>
      <point x="130" y="200" type="line"/>
      <point x="130" y="314" type="line"/>
      <point x="26" y="314" type="line"/>
      <point x="26" y="340" type="line"/>
      <point x="130" y="340" type="line"/>
      <point x="130" y="444" type="line"/>
      <point x="160" y="444" type="line"/>
      <point x="160" y="340" type="line"/>
      <point x="264" y="340" type="line"/>
    </contour>
  </outline>
</glyph>
<glyph name="comma" format="2">
  <advance width="177"/>
  <unicode hex="002C"/>
  <outline>
    <contour>
      <point x="118" y="235" type="curve" smooth="yes"/>
      <point x="132" y="235"/>
      <point x="144" y="229"/>
      <point x="144" y="206" type="curve" smooth="yes"/>
      <point x="144" y="177"/>
      <point x="117" y="141"/>
      <point x="50" y="98" type="curve"/>
      <point x="42" y="106" type="line"/>
      <point x="82" y="135"/>
      <point x="96" y="159"/>
      <point x="96" y="175" type="curve" smooth="yes"/>
      <point x="96" y="187"/>
      <point x="87" y="194"/>
      <point x="76" y="194" type="curve" smooth="yes"/>
      <point x="64" y="194"/>
      <point x="50" y="189"/>
      <point x="34" y="180" type="curve"/>
      <point x="28" y="186" type="line"/>
      <point x="36" y="192"/>
      <point x="86" y="235"/>
    </contour>
  </outline>
</glyph>
<glyph name="hyphen" format="2">
  <advance width="189"/>
  <unicode hex="002D"/>
  <outline>
    <contour>
      <point x="19" y="352" type="curve"/>
      <point x="170" y="352" type="line"/>
      <point x="172" y="344"/>
      <point x="173" y="336"/>
      <point x="173" y="328" type="curve" smooth="yes"/>
      <point x="173" y="320"/>
      <point x="172" y="313"/>
      <point x="170" y="306" type="curve"/>
      <point x="19" y="306" type="line"/>
      <point x="17" y="313"/>
      <point x="16" y="320"/>
      <point x="16" y="328" type="curve" smooth="yes"/>
      <point x="16" y="336"/>
      <point x="17" y="344"/>
    </contour>
  </outline>
</glyph>
<glyph name="period" format="2">
  <advance width="130"/>
  <unicode hex="002E"/>
  <outline>
    <contour>
      <point x="32" y="226" type="curve" smooth="yes"/>
      <point x="32" y="245"/>
      <point x="48" y="262"/>
      <point x="67" y="262" type="curve" smooth="yes"/>
      <point x="86" y="262"/>
      <point x="102" y="245"/>
      <point x="102" y="226" type="curve" smooth="yes"/>
      <point x="102" y="207"/>
      <point x="86" y="191"/>
      <point x="67" y="191" type="curve" smooth="yes"/>
      <point x="48" y="191"/>
      <point x="32" y="207"/>
    </contour>
  </outline>
</glyph>
<glyph name="slash" format="2">
  <advance width="199"/>
  <unicode hex="002F"/>
  <outline>
    <contour>
      <point x="44" y="141" type="line"/>
      <point x="43" y="140"/>
      <point x="40" y="139"/>
      <point x="38" y="138" type="curve" smooth="yes"/>
      <point x="36" y="137"/>
      <point x="34" y="136"/>
      <point x="32" y="135" type="curve" smooth="yes"/>
      <point x="30" y="134"/>
      <point x="26" y="133"/>
      <point x="24" y="132" type="curve" smooth="yes"/>
      <point x="22" y="131"/>
      <point x="20" y="130"/>
      <point x="18" y="130" type="curve"/>
      <point x="10" y="136" type="line"/>
      <point x="156" y="523" type="line"/>
      <point x="160" y="525"/>
      <point x="164" y="527"/>
      <point x="168" y="529" type="curve" smooth="yes"/>
      <point x="172" y="531"/>
      <point x="177" y="532"/>
      <point x="181" y="533" type="curve"/>
      <point x="189" y="528" type="line"/>
    </contour>
  </outline>
</glyph>
<glyph name="zero" format="2">
  <advance width="199"/>
  <unicode hex="0030"/>
  <outline>
    <contour>
      <point x="150" y="318" type="curve" smooth="yes"/>
      <point x="150" y="337"/>
      <point x="149" y="354"/>
      <point x="146" y="368" type="curve" smooth="yes"/>
      <point x="143" y="382"/>
      <point x="139" y="394"/>
      <point x="134" y="404" type="curve" smooth="yes"/>
      <point x="129" y="414"/>
      <point x="122" y="421"/>
      <point x="116" y="426" type="curve" smooth="yes"/>
      <point x="110" y="431"/>
      <point x="103" y="433"/>
      <point x="96" y="433" type="curve" smooth="yes"/>
      <point x="89" y="433"/>
      <point x="83" y="431"/>
      <point x="77" y="427" type="curve" smooth="yes"/>
      <point x="71" y="423"/>
      <point x="66" y="418"/>
      <point x="62" y="410" type="curve" smooth="yes"/>
      <point x="58" y="402"/>
      <point x="55" y="391"/>
      <point x="53" y="379" type="curve" smooth="yes"/>
      <point x="51" y="367"/>
      <point x="50" y="351"/>
      <point x="50" y="334" type="curve" smooth="yes"/>
      <point x="50" y="315"/>
      <point x="51" y="298"/>
      <point x="54" y="284" type="curve" smooth="yes"/>
      <point x="57" y="270"/>
      <point x="61" y="257"/>
      <point x="66" y="247" type="curve" smooth="yes"/>
      <point x="71" y="237"/>
      <point x="76" y="230"/>
      <point x="82" y="225" type="curve" smooth="yes"/>
      <point x="88" y="220"/>
      <point x="96" y="218"/>
      <point x="104" y="218" type="curve" smooth="yes"/>
      <point x="111" y="218"/>
      <point x="117" y="219"/>
      <point x="123" y="223" type="curve" smooth="yes"/>
      <point x="129" y="227"/>
      <point x="134" y="233"/>
      <point x="138" y="241" type="curve" smooth="yes"/>
      <point x="142" y="249"/>
      <point x="145" y="260"/>
      <point x="147" y="272" type="curve" smooth="yes"/>
      <point x="149" y="284"/>
      <point x="150" y="300"/>
    </contour>
    <contour>
      <point x="184" y="325" type="curve" smooth="yes"/>
      <point x="184" y="307"/>
      <point x="182" y="290"/>
      <point x="178" y="274" type="curve" smooth="yes"/>
      <point x="174" y="258"/>
      <point x="168" y="245"/>
      <point x="160" y="233" type="curve" smooth="yes"/>
      <point x="152" y="221"/>
      <point x="143" y="211"/>
      <point x="132" y="204" type="curve" smooth="yes"/>
      <point x="121" y="197"/>
      <point x="109" y="194"/>
      <point x="96" y="194" type="curve" smooth="yes"/>
      <point x="83" y="194"/>
      <point x="71" y="197"/>
      <point x="61" y="204" type="curve" smooth="yes"/>
      <point x="51" y="211"/>
      <point x="43" y="221"/>
      <point x="36" y="233" type="curve" smooth="yes"/>
      <point x="29" y="245"/>
      <point x="24" y="258"/>
      <point x="21" y="274" type="curve" smooth="yes"/>
      <point x="18" y="290"/>
      <point x="16" y="307"/>
      <point x="16" y="325" type="curve" smooth="yes"/>
      <point x="16" y="343"/>
      <point x="18" y="360"/>
      <point x="22" y="376" type="curve" smooth="yes"/>
      <point x="26" y="392"/>
      <point x="32" y="406"/>
      <point x="40" y="418" type="curve" smooth="yes"/>
      <point x="48" y="430"/>
      <point x="57" y="439"/>
      <point x="68" y="446" type="curve" smooth="yes"/>
      <point x="79" y="453"/>
      <point x="91" y="457"/>
      <point x="104" y="457" type="curve" smooth="yes"/>
      <point x="117" y="457"/>
      <point x="129" y="453"/>
      <point x="139" y="446" type="curve" smooth="yes"/>
      <point x="149" y="439"/>
      <point x="157" y="430"/>
      <point x="164" y="418" type="curve" smooth="yes"/>
      <point x="171" y="406"/>
      <point x="176" y="392"/>
      <point x="179" y="376" type="curve" smooth="yes"/>
      <point x="182" y="360"/>
      <point x="184" y="343"/>
    </contour>
  </outline>
</glyph>
<glyph name="one" format="2">
  <advance width="147"/>
  <unicode hex="0031"/>
  <outline>
    <contour>
      <point x="93" y="272" type="line" smooth="yes"/>
      <point x="92" y="252"/>
      <point x="85" y="237"/>
      <point x="74" y="226" type="curve"/>
      <point x="146" y="226" type="line"/>
      <point x="123" y="209"/>
      <point x="110" y="200"/>
      <point x="106" y="200" type="curve" smooth="yes"/>
      <point x="30" y="200" type="line"/>
      <point x="46" y="216"/>
      <point x="52" y="222"/>
      <point x="53" y="240" type="curve" smooth="yes"/>
      <point x="63" y="383" type="line"/>
      <point x="21" y="360" type="line"/>
      <point x="21" y="366" type="line"/>
      <point x="102" y="413" type="line"/>
    </contour>
  </outline>
</glyph>
<glyph name="two" format="2">
  <advance width="199"/>
  <unicode hex="0032"/>
  <outline>
    <contour>
      <point x="171" y="200" type="line"/>
      <point x="26" y="200" type="line"/>
      <point x="20" y="215" type="line"/>
      <point x="36" y="234"/>
      <point x="52" y="251"/>
      <point x="64" y="266" type="curve" smooth="yes"/>
      <point x="76" y="281"/>
      <point x="86" y="294"/>
      <point x="95" y="305" type="curve" smooth="yes"/>
      <point x="104" y="316"/>
      <point x="111" y="327"/>
      <point x="117" y="335" type="curve" smooth="yes"/>
      <point x="123" y="343"/>
      <point x="127" y="351"/>
      <point x="130" y="358" type="curve" smooth="yes"/>
      <point x="133" y="365"/>
      <point x="136" y="370"/>
      <point x="137" y="376" type="curve" smooth="yes"/>
      <point x="138" y="382"/>
      <point x="139" y="387"/>
      <point x="139" y="392" type="curve" smooth="yes"/>
      <point x="139" y="398"/>
      <point x="139" y="404"/>
      <point x="137" y="410" type="curve" smooth="yes"/>
      <point x="135" y="416"/>
      <point x="132" y="421"/>
      <point x="129" y="425" type="curve" smooth="yes"/>
      <point x="126" y="429"/>
      <point x="121" y="433"/>
      <point x="116" y="435" type="curve" smooth="yes"/>
      <point x="111" y="437"/>
      <point x="105" y="438"/>
      <point x="97" y="438" type="curve" smooth="yes"/>
      <point x="91" y="438"/>
      <point x="87" y="437"/>
      <point x="82" y="434" type="curve" smooth="yes"/>
      <point x="77" y="431"/>
      <point x="72" y="428"/>
      <point x="69" y="424" type="curve" smooth="yes"/>
      <point x="66" y="420"/>
      <point x="63" y="414"/>
      <point x="61" y="409" type="curve" smooth="yes"/>
      <point x="59" y="404"/>
      <point x="58" y="399"/>
      <point x="58" y="394" type="curve"/>
      <point x="56" y="393"/>
      <point x="54" y="392"/>
      <point x="52" y="391" type="curve" smooth="yes"/>
      <point x="50" y="390"/>
      <point x="48" y="389"/>
      <point x="46" y="388" type="curve" smooth="yes"/>
      <point x="44" y="387"/>
      <point x="42" y="387"/>
      <point x="40" y="386" type="curve" smooth="yes"/>
      <point x="38" y="385"/>
      <point x="35" y="384"/>
      <point x="32" y="384" type="curve"/>
      <point x="26" y="390" type="line"/>
      <point x="26" y="397"/>
      <point x="28" y="405"/>
      <point x="33" y="413" type="curve" smooth="yes"/>
      <point x="38" y="421"/>
      <point x="45" y="428"/>
      <point x="53" y="434" type="curve" smooth="yes"/>
      <point x="61" y="440"/>
      <point x="70" y="446"/>
      <point x="80" y="450" type="curve" smooth="yes"/>
      <point x="90" y="454"/>
      <point x="100" y="457"/>
      <point x="111" y="457" type="curve" smooth="yes"/>
      <point x="119" y="457"/>
      <point x="128" y="455"/>
      <point x="135" y="453" type="curve" smooth="yes"/>
      <point x="142" y="451"/>
      <point x="148" y="448"/>
      <point x="154" y="443" type="curve" smooth="yes"/>
      <point x="160" y="438"/>
      <point x="163" y="432"/>
      <point x="166" y="424" type="curve" smooth="yes"/>
      <point x="169" y="416"/>
      <point x="171" y="408"/>
      <point x="171" y="398" type="curve" smooth="yes"/>
      <point x="171" y="392"/>
      <point x="170" y="385"/>
      <point x="168" y="379" type="curve" smooth="yes"/>
      <point x="166" y="373"/>
      <point x="164" y="366"/>
      <point x="160" y="359" type="curve" smooth="yes"/>
      <point x="156" y="352"/>
      <point x="151" y="343"/>
      <point x="145" y="335" type="curve" smooth="yes"/>
      <point x="139" y="327"/>
      <point x="131" y="317"/>
      <point x="123" y="306" type="curve" smooth="yes"/>
      <point x="115" y="295"/>
      <point x="105" y="283"/>
      <point x="94" y="270" type="curve" smooth="yes"/>
      <point x="83" y="257"/>
      <point x="69" y="242"/>
      <point x="55" y="225" type="curve"/>
      <point x="142" y="225" type="line" smooth="yes"/>
      <point x="144" y="225"/>
      <point x="147" y="226"/>
      <point x="149" y="227" type="curve" smooth="yes"/>
      <point x="151" y="228"/>
      <point x="152" y="229"/>
      <point x="154" y="231" type="curve" smooth="yes"/>
      <point x="156" y="233"/>
      <point x="156" y="235"/>
      <point x="157" y="237" type="curve" smooth="yes"/>
      <point x="158" y="239"/>
      <point x="159" y="242"/>
      <point x="160" y="244" type="curve" smooth="yes"/>
      <point x="162" y="250"/>
      <point x="163" y="255"/>
      <point x="164" y="262" type="curve"/>
      <point x="174" y="260" type="line"/>
    </contour>
  </outline>
</glyph>
<glyph name="three" format="2">
  <advance width="215"/>
  <unicode hex="0033"/>
  <outline>
    <contour>
      <point x="46" y="182" type="curve"/>
      <point x="41" y="177"/>
      <point x="39" y="173"/>
      <point x="39" y="169" type="curve" smooth="yes"/>
      <point x="39" y="152"/>
      <point x="81" y="145"/>
      <point x="102" y="145" type="curve" smooth="yes"/>
      <point x="149" y="145"/>
      <point x="165" y="174"/>
      <point x="165" y="204" type="curve" smooth="yes"/>
      <point x="165" y="227"/>
      <point x="155" y="250"/>
      <point x="140" y="260" type="curve" smooth="yes"/>
      <point x="126" y="269"/>
      <point x="103" y="275"/>
      <point x="72" y="276" type="curve"/>
      <point x="110" y="307"/>
      <point x="131" y="332"/>
      <point x="153" y="362" type="curve" smooth="yes"/>
      <point x="159" y="370"/>
      <point x="165" y="378"/>
      <point x="172" y="386" type="curve"/>
      <point x="40" y="386" type="line"/>
      <point x="63" y="403"/>
      <point x="76" y="412"/>
      <point x="80" y="413" type="curve" smooth="yes"/>
      <point x="212" y="413" type="line"/>
      <point x="157" y="340"/>
      <point x="131" y="317"/>
      <point x="113" y="303" type="curve"/>
      <point x="161" y="301"/>
      <point x="203" y="290"/>
      <point x="203" y="233" type="curve" smooth="yes"/>
      <point x="203" y="230"/>
      <point x="203" y="227"/>
      <point x="203" y="224" type="curve" smooth="yes"/>
      <point x="197" y="153"/>
      <point x="97" y="118"/>
      <point x="62" y="118" type="curve" smooth="yes"/>
      <point x="49" y="118"/>
      <point x="0" y="122"/>
      <point x="0" y="142" type="curve" smooth="yes"/>
      <point x="0" y="148"/>
      <point x="5" y="156"/>
      <point x="18" y="166" type="curve" smooth="yes"/>
      <point x="24" y="170"/>
      <point x="33" y="175"/>
    </contour>
  </outline>
</glyph>
<glyph name="four" format="2">
  <advance width="265"/>
  <unicode hex="0034"/>
  <outline>
    <contour>
      <point x="132" y="200" type="line"/>
      <point x="151" y="209"/>
      <point x="153" y="217"/>
      <point x="157" y="262" type="curve"/>
      <point x="157" y="267" type="line"/>
      <point x="5" y="267" type="line"/>
      <point x="78" y="335"/>
      <point x="126" y="383"/>
      <point x="168" y="452" type="curve" smooth="yes"/>
      <point x="170" y="454"/>
      <point x="173" y="459"/>
      <point x="192" y="470" type="curve" smooth="yes"/>
      <point x="195" y="472"/>
      <point x="198" y="474"/>
      <point x="200" y="475" type="curve" smooth="yes"/>
      <point x="210" y="482" type="line"/>
      <point x="197" y="294" type="line"/>
      <point x="212" y="294" type="line" smooth="yes"/>
      <point x="213" y="294"/>
      <point x="255" y="295"/>
      <point x="271" y="311" type="curve"/>
      <point x="246" y="288"/>
      <point x="220" y="274"/>
      <point x="195" y="269" type="curve"/>
      <point x="195" y="266" type="line"/>
      <point x="194" y="251"/>
      <point x="186" y="237"/>
      <point x="172" y="226" type="curve"/>
      <point x="236" y="226" type="line"/>
      <point x="234" y="226"/>
      <point x="228" y="221"/>
      <point x="221" y="216" type="curve" smooth="yes"/>
      <point x="212" y="209"/>
      <point x="201" y="200"/>
      <point x="196" y="200" type="curve" smooth="yes"/>
    </contour>
    <contour>
      <point x="159" y="294" type="line"/>
      <point x="168" y="418" type="line"/>
      <point x="145" y="388"/>
      <point x="108" y="345"/>
      <point x="46" y="294" type="curve"/>
    </contour>
  </outline>
</glyph>
<glyph name="five" format="2">
  <advance width="216"/>
  <unicode hex="0035"/>
  <outline>
    <contour>
      <point x="72" y="126" type="curve" smooth="yes"/>
      <point x="52" y="126"/>
      <point x="9" y="135"/>
      <point x="9" y="147" type="curve" smooth="yes"/>
      <point x="9" y="160"/>
      <point x="30" y="173"/>
      <point x="46" y="182" type="curve" smooth="yes"/>
      <point x="53" y="186"/>
      <point x="58" y="189"/>
      <point x="61" y="192" type="curve"/>
      <point x="53" y="185"/>
      <point x="50" y="179"/>
      <point x="50" y="174" type="curve" smooth="yes"/>
      <point x="50" y="162"/>
      <point x="71" y="157"/>
      <point x="88" y="155" type="curve" smooth="yes"/>
      <point x="97" y="154"/>
      <point x="103" y="153"/>
      <point x="106" y="152" type="curve" smooth="yes"/>
      <point x="128" y="152"/>
      <point x="158" y="175"/>
      <point x="161" y="208" type="curve" smooth="yes"/>
      <point x="161" y="210"/>
      <point x="161" y="213"/>
      <point x="161" y="216" type="curve" smooth="yes"/>
      <point x="161" y="238"/>
      <point x="155" y="283"/>
      <point x="100" y="283" type="curve" smooth="yes"/>
      <point x="95" y="283"/>
      <point x="64" y="282"/>
      <point x="26" y="268" type="curve"/>
      <point x="35" y="294"/>
      <point x="41" y="333"/>
      <point x="46" y="386" type="curve"/>
      <point x="86" y="413" type="line"/>
      <point x="225" y="413" type="line"/>
      <point x="202" y="396"/>
      <point x="189" y="387"/>
      <point x="185" y="386" type="curve" smooth="yes"/>
      <point x="84" y="386" type="line"/>
      <point x="80" y="353"/>
      <point x="74" y="323"/>
      <point x="67" y="298" type="curve"/>
      <point x="81" y="305"/>
      <point x="103" y="308"/>
      <point x="134" y="309" type="curve" smooth="yes"/>
      <point x="181" y="309"/>
      <point x="202" y="279"/>
      <point x="202" y="245" type="curve" smooth="yes"/>
      <point x="202" y="223"/>
      <point x="193" y="199"/>
      <point x="176" y="182" type="curve" smooth="yes"/>
      <point x="175" y="181"/>
      <point x="119" y="126"/>
    </contour>
  </outline>
</glyph>
<glyph name="six" format="2">
  <advance width="199"/>
  <unicode hex="0036"/>
  <outline>
    <contour>
      <point x="104" y="337" type="curve" smooth="yes"/>
      <point x="97" y="337"/>
      <point x="89" y="335"/>
      <point x="81" y="331" type="curve" smooth="yes"/>
      <point x="73" y="327"/>
      <point x="64" y="321"/>
      <point x="56" y="312" type="curve"/>
      <point x="56" y="296"/>
      <point x="57" y="281"/>
      <point x="60" y="269" type="curve" smooth="yes"/>
      <point x="63" y="257"/>
      <point x="67" y="247"/>
      <point x="72" y="239" type="curve" smooth="yes"/>
      <point x="77" y="231"/>
      <point x="83" y="225"/>
      <point x="90" y="221" type="curve" smooth="yes"/>
      <point x="97" y="217"/>
      <point x="105" y="216"/>
      <point x="113" y="216" type="curve" smooth="yes"/>
      <point x="121" y="216"/>
      <point x="127" y="217"/>
      <point x="132" y="221" type="curve" smooth="yes"/>
      <point x="137" y="225"/>
      <point x="141" y="228"/>
      <point x="144" y="234" type="curve" smooth="yes"/>
      <point x="147" y="240"/>
      <point x="149" y="246"/>
      <point x="150" y="253" type="curve" smooth="yes"/>
      <point x="151" y="260"/>
      <point x="152" y="266"/>
      <point x="152" y="272" type="curve" smooth="yes"/>
      <point x="152" y="285"/>
      <point x="150" y="296"/>
      <point x="147" y="304" type="curve" smooth="yes"/>
      <point x="144" y="312"/>
      <point x="141" y="319"/>
      <point x="136" y="324" type="curve" smooth="yes"/>
      <point x="131" y="329"/>
      <point x="126" y="332"/>
      <point x="120" y="334" type="curve" smooth="yes"/>
      <point x="114" y="336"/>
      <point x="109" y="337"/>
    </contour>
    <contour>
      <point x="183" y="286" type="curve" smooth="yes"/>
      <point x="183" y="280"/>
      <point x="183" y="272"/>
      <point x="181" y="265" type="curve" smooth="yes"/>
      <point x="179" y="258"/>
      <point x="177" y="251"/>
      <point x="174" y="244" type="curve" smooth="yes"/>
      <point x="171" y="237"/>
      <point x="167" y="231"/>
      <point x="163" y="225" type="curve" smooth="yes"/>
      <point x="159" y="219"/>
      <point x="154" y="214"/>
      <point x="148" y="209" type="curve" smooth="yes"/>
      <point x="142" y="204"/>
      <point x="136" y="201"/>
      <point x="129" y="198" type="curve" smooth="yes"/>
      <point x="122" y="195"/>
      <point x="113" y="194"/>
      <point x="105" y="194" type="curve" smooth="yes"/>
      <point x="94" y="194"/>
      <point x="83" y="196"/>
      <point x="73" y="201" type="curve" smooth="yes"/>
      <point x="63" y="206"/>
      <point x="55" y="214"/>
      <point x="47" y="223" type="curve" smooth="yes"/>
      <point x="39" y="232"/>
      <point x="33" y="243"/>
      <point x="29" y="256" type="curve" smooth="yes"/>
      <point x="25" y="269"/>
      <point x="23" y="282"/>
      <point x="23" y="298" type="curve" smooth="yes"/>
      <point x="23" y="318"/>
      <point x="25" y="337"/>
      <point x="31" y="355" type="curve" smooth="yes"/>
      <point x="37" y="373"/>
      <point x="45" y="389"/>
      <point x="57" y="403" type="curve" smooth="yes"/>
      <point x="69" y="417"/>
      <point x="83" y="430"/>
      <point x="101" y="440" type="curve" smooth="yes"/>
      <point x="119" y="450"/>
      <point x="140" y="456"/>
      <point x="164" y="460" type="curve"/>
      <point x="168" y="448" type="line"/>
      <point x="152" y="444"/>
      <point x="137" y="438"/>
      <point x="124" y="430" type="curve" smooth="yes"/>
      <point x="111" y="422"/>
      <point x="101" y="414"/>
      <point x="92" y="404" type="curve" smooth="yes"/>
      <point x="83" y="394"/>
      <point x="76" y="384"/>
      <point x="70" y="372" type="curve" smooth="yes"/>
      <point x="64" y="360"/>
      <point x="60" y="347"/>
      <point x="58" y="335" type="curve"/>
      <point x="63" y="340"/>
      <point x="68" y="344"/>
      <point x="73" y="347" type="curve" smooth="yes"/>
      <point x="78" y="350"/>
      <point x="83" y="353"/>
      <point x="88" y="355" type="curve" smooth="yes"/>
      <point x="93" y="357"/>
      <point x="97" y="358"/>
      <point x="101" y="359" type="curve" smooth="yes"/>
      <point x="105" y="360"/>
      <point x="109" y="360"/>
      <point x="112" y="360" type="curve" smooth="yes"/>
      <point x="123" y="360"/>
      <point x="133" y="359"/>
      <point x="142" y="355" type="curve" smooth="yes"/>
      <point x="151" y="351"/>
      <point x="159" y="346"/>
      <point x="165" y="340" type="curve" smooth="yes"/>
      <point x="171" y="334"/>
      <point x="175" y="325"/>
      <point x="178" y="316" type="curve" smooth="yes"/>
      <point x="181" y="307"/>
      <point x="183" y="297"/>
    </contour>
  </outline>
</glyph>
<glyph name="seven" format="2">
  <advance width="191"/>
  <unicode hex="0037"/>
  <outline>
    <contour>
      <point x="16" y="386" type="line"/>
      <point x="16" y="386"/>
      <point x="51" y="413"/>
      <point x="56" y="413" type="curve" smooth="yes"/>
      <point x="206" y="413" type="line"/>
      <point x="205" y="411"/>
      <point x="147" y="259"/>
      <point x="132" y="232" type="curve" smooth="yes"/>
      <point x="108" y="190"/>
      <point x="51" y="133"/>
      <point x="7" y="116" type="curve"/>
      <point x="7" y="117" type="line"/>
      <point x="19" y="123"/>
      <point x="75" y="155"/>
      <point x="113" y="250" type="curve" smooth="yes"/>
      <point x="113" y="250"/>
      <point x="116" y="256"/>
      <point x="119" y="265" type="curve" smooth="yes"/>
      <point x="132" y="299"/>
      <point x="164" y="382"/>
      <point x="166" y="386" type="curve"/>
    </contour>
  </outline>
</glyph>
<glyph name="eight" format="2">
  <advance width="235"/>
  <unicode hex="0038"/>
  <outline>
    <contour>
      <point x="98" y="193" type="curve" smooth="yes"/>
      <point x="44" y="193"/>
      <point x="27" y="228"/>
      <point x="27" y="257" type="curve" smooth="yes"/>
      <point x="27" y="259"/>
      <point x="27" y="262"/>
      <point x="27" y="264" type="curve" smooth="yes"/>
      <point x="29" y="291"/>
      <point x="48" y="316"/>
      <point x="85" y="341" type="curve"/>
      <point x="61" y="352"/>
      <point x="51" y="368"/>
      <point x="51" y="385" type="curve" smooth="yes"/>
      <point x="51" y="431"/>
      <point x="121" y="487"/>
      <point x="170" y="487" type="curve" smooth="yes"/>
      <point x="194" y="487"/>
      <point x="225" y="471"/>
      <point x="225" y="440" type="curve" smooth="yes"/>
      <point x="225" y="421"/>
      <point x="214" y="396"/>
      <point x="183" y="367" type="curve" smooth="yes"/>
      <point x="176" y="360"/>
      <point x="170" y="355"/>
      <point x="163" y="350" type="curve"/>
      <point x="182" y="340"/>
      <point x="223" y="320"/>
      <point x="223" y="285" type="curve" smooth="yes"/>
      <point x="223" y="256"/>
      <point x="202" y="241"/>
      <point x="164" y="215" type="curve" smooth="yes"/>
      <point x="156" y="209"/>
      <point x="130" y="193"/>
    </contour>
    <contour>
      <point x="158" y="353" type="line"/>
      <point x="178" y="373"/>
      <point x="186" y="394"/>
      <point x="186" y="411" type="curve" smooth="yes"/>
      <point x="186" y="439"/>
      <point x="164" y="460"/>
      <point x="129" y="460" type="curve" smooth="yes"/>
      <point x="104" y="460"/>
      <point x="90" y="442"/>
      <point x="90" y="421" type="curve" smooth="yes"/>
      <point x="90" y="402"/>
      <point x="102" y="381"/>
      <point x="128" y="368" type="curve" smooth="yes"/>
    </contour>
    <contour>
      <point x="90" y="339" type="curve"/>
      <point x="74" y="324"/>
      <point x="67" y="304"/>
      <point x="67" y="285" type="curve" smooth="yes"/>
      <point x="67" y="251"/>
      <point x="91" y="219"/>
      <point x="137" y="219" type="curve" smooth="yes"/>
      <point x="170" y="219"/>
      <point x="183" y="237"/>
      <point x="183" y="257" type="curve" smooth="yes"/>
      <point x="183" y="273"/>
      <point x="175" y="289"/>
      <point x="163" y="300" type="curve" smooth="yes"/>
      <point x="148" y="313"/>
      <point x="128" y="322"/>
    </contour>
  </outline>
</glyph>
<glyph name="nine" format="2">
  <advance width="250"/>
  <unicode hex="0039"/>
  <outline>
    <contour>
      <point x="100" y="230" type="curve" smooth="yes"/>
      <point x="74" y="230"/>
      <point x="24" y="258"/>
      <point x="24" y="305" type="curve" smooth="yes"/>
      <point x="24" y="322"/>
      <point x="31" y="342"/>
      <point x="48" y="364" type="curve" smooth="yes"/>
      <point x="76" y="398"/>
      <point x="118" y="422"/>
      <point x="157" y="422" type="curve" smooth="yes"/>
      <point x="182" y="422"/>
      <point x="206" y="412"/>
      <point x="222" y="388" type="curve" smooth="yes"/>
      <point x="233" y="372"/>
      <point x="240" y="346"/>
      <point x="240" y="318" type="curve" smooth="yes"/>
      <point x="240" y="269"/>
      <point x="219" y="210"/>
      <point x="158" y="164" type="curve" smooth="yes"/>
      <point x="125" y="140"/>
      <point x="92" y="128"/>
      <point x="60" y="128" type="curve" smooth="yes"/>
      <point x="29" y="128"/>
      <point x="14" y="133"/>
      <point x="14" y="143" type="curve" smooth="yes"/>
      <point x="14" y="146"/>
      <point x="14" y="148"/>
      <point x="19" y="155" type="curve"/>
      <point x="39" y="166"/>
      <point x="52" y="174"/>
      <point x="58" y="180" type="curve"/>
      <point x="54" y="176"/>
      <point x="53" y="173"/>
      <point x="53" y="170" type="curve" smooth="yes"/>
      <point x="53" y="159"/>
      <point x="76" y="154"/>
      <point x="106" y="154" type="curve" smooth="yes"/>
      <point x="128" y="154"/>
      <point x="191" y="168"/>
      <point x="198" y="279" type="curve"/>
      <point x="191" y="273"/>
      <point x="142" y="230"/>
    </contour>
    <contour>
      <point x="143" y="257" type="curve" smooth="yes"/>
      <point x="171" y="257"/>
      <point x="198" y="291"/>
      <point x="198" y="325" type="curve" smooth="yes"/>
      <point x="198" y="342"/>
      <point x="191" y="360"/>
      <point x="174" y="374" type="curve" smooth="yes"/>
      <point x="158" y="388"/>
      <point x="138" y="395"/>
      <point x="115" y="396" type="curve" smooth="yes"/>
      <point x="80" y="396"/>
      <point x="64" y="370"/>
      <point x="64" y="341" type="curve" smooth="yes"/>
      <point x="64" y="314"/>
      <point x="78" y="283"/>
      <point x="104" y="269" type="curve" smooth="yes"/>
      <point x="117" y="261"/>
      <point x="130" y="257"/>
    </contour>
  </outline>
</glyph>
<glyph name="colon" format="2">
  <advance width="0"/>
  <unicode hex="003A"/>
  <outline>
    <contour>
      <point x="44" y="344" type="line" smooth="yes"/>
      <point x="42" y="344"/>
      <point x="42" y="344"/>
      <point x="42" y="346" type="curve" smooth="yes"/>
      <point x="42" y="392" type="line" smooth="yes"/>
      <point x="42" y="394"/>
      <point x="42" y="395"/>
      <point x="44" y="395" type="curve" smooth="yes"/>
      <point x="107" y="395" type="line" smooth="yes"/>
      <point x="109" y="395"/>
      <point x="110" y="394"/>
      <point x="110" y="392" type="curve" smooth="yes"/>
      <point x="110" y="346" type="line" smooth="yes"/>
      <point x="110" y="344"/>
      <point x="109" y="344"/>
      <point x="107" y="344" type="curve" smooth="yes"/>
    </contour>
    <contour>
      <point x="44" y="204" type="line" smooth="yes"/>
      <point x="42" y="204"/>
      <point x="42" y="204"/>
      <point x="42" y="206" type="curve" smooth="yes"/>
      <point x="42" y="252" type="line" smooth="yes"/>
      <point x="42" y="254"/>
      <point x="42" y="255"/>
      <point x="44" y="255" type="curve" smooth="yes"/>
      <point x="107" y="255" type="line" smooth="yes"/>
      <point x="109" y="255"/>
      <point x="110" y="254"/>
      <point x="110" y="252" type="curve" smooth="yes"/>
      <point x="110" y="206" type="line" smooth="yes"/>
      <point x="110" y="204"/>
      <point x="109" y="204"/>
      <point x="107" y="204" type="curve" smooth="yes"/>
    </contour>
  </outline>
</glyph>
<glyph name="semicolon" format="2">
  <advance width="177"/>
  <unicode hex="003B"/>
  <outline>
    <contour>
      <point x="121" y="234" type="curve" smooth="yes"/>
      <point x="139" y="234"/>
      <point x="146" y="223"/>
      <point x="146" y="205" type="curve" smooth="yes"/>
      <point x="146" y="195"/>
      <point x="143" y="186"/>
      <point x="136" y="176" type="curve" smooth="yes"/>
      <point x="126" y="163"/>
      <point x="109" y="148"/>
      <point x="95" y="138" type="curve" smooth="yes"/>
      <point x="83" y="130" type="line" smooth="yes"/>
      <point x="75" y="124"/>
      <point x="67" y="122"/>
      <point x="58" y="116" type="curve"/>
      <point x="52" y="124" type="line"/>
      <point x="57" y="128"/>
      <point x="61" y="132"/>
      <point x="65" y="136" type="curve" smooth="yes"/>
      <point x="72" y="142" type="line" smooth="yes"/>
      <point x="79" y="148"/>
      <point x="88" y="159"/>
      <point x="92" y="167" type="curve" smooth="yes"/>
      <point x="95" y="173"/>
      <point x="96" y="180"/>
      <point x="96" y="188" type="curve" smooth="yes"/>
      <point x="96" y="198"/>
      <point x="92" y="202"/>
      <point x="82" y="202" type="curve" smooth="yes"/>
      <point x="74" y="202"/>
      <point x="66" y="199"/>
      <point x="58" y="195" type="curve" smooth="yes"/>
      <point x="36" y="181" type="line"/>
      <point x="28" y="188" type="line"/>
      <point x="35" y="195" type="line"/>
      <point x="47" y="204" type="line" smooth="yes"/>
      <point x="59" y="212"/>
      <point x="79" y="224"/>
      <point x="95" y="229" type="curve" smooth="yes"/>
      <point x="105" y="233"/>
      <point x="115" y="234"/>
    </contour>
    <contour>
      <point x="52" y="336" type="curve" smooth="yes"/>
      <point x="52" y="360"/>
      <point x="72" y="380"/>
      <point x="96" y="380" type="curve" smooth="yes"/>
      <point x="120" y="380"/>
      <point x="142" y="360"/>
      <point x="142" y="336" type="curve" smooth="yes"/>
      <point x="142" y="316"/>
      <point x="128" y="302"/>
      <point x="114" y="296" type="curve" smooth="yes"/>
      <point x="108" y="294"/>
      <point x="103" y="292"/>
      <point x="97" y="292" type="curve" smooth="yes"/>
      <point x="77" y="292"/>
      <point x="62" y="305"/>
      <point x="56" y="319" type="curve" smooth="yes"/>
      <point x="54" y="325"/>
      <point x="52" y="330"/>
    </contour>
  </outline>
</glyph>
<glyph name="less" format="2">
  <advance width="177"/>
  <unicode hex="003C"/>
  <outline>
    <contour>
      <point x="174" y="404" type="curve"/>
      <point x="147" y="362"/>
      <point x="99" y="334"/>
      <point x="61" y="311" type="curve"/>
      <point x="121" y="267"/>
      <point x="143" y="246"/>
      <point x="162" y="226" type="curve"/>
      <point x="150" y="220" type="line"/>
      <point x="137" y="210"/>
      <point x="125" y="200"/>
      <point x="123" y="200" type="curve" smooth="yes"/>
      <point x="118" y="200"/>
      <point x="94" y="222"/>
      <point x="68" y="244" type="curve" smooth="yes"/>
      <point x="49" y="261"/>
      <point x="29" y="279"/>
      <point x="17" y="287" type="curve"/>
      <point x="24" y="290"/>
      <point x="37" y="299"/>
      <point x="56" y="314" type="curve"/>
      <point x="102" y="339"/>
      <point x="115" y="355"/>
      <point x="126" y="368" type="curve" smooth="yes"/>
      <point x="135" y="379"/>
      <point x="142" y="387"/>
      <point x="166" y="398" type="curve" smooth="yes"/>
      <point x="170" y="400"/>
      <point x="173" y="402"/>
    </contour>
  </outline>
</glyph>
<glyph name="equal" format="2">
  <advance width="238"/>
  <unicode hex="003D"/>
  <outline>
    <contour>
      <point x="41" y="320" type="line"/>
      <point x="43" y="320"/>
      <point x="48" y="325"/>
      <point x="54" y="330" type="curve" smooth="yes"/>
      <point x="63" y="338"/>
      <point x="75" y="347"/>
      <point x="80" y="347" type="curve" smooth="yes"/>
      <point x="218" y="347" type="line"/>
      <point x="216" y="347"/>
      <point x="209" y="341"/>
      <point x="201" y="335" type="curve" smooth="yes"/>
      <point x="192" y="328"/>
      <point x="182" y="320"/>
      <point x="178" y="320" type="curve" smooth="yes"/>
    </contour>
    <contour>
      <point x="37" y="267" type="line"/>
      <point x="39" y="267"/>
      <point x="46" y="272"/>
      <point x="53" y="278" type="curve" smooth="yes"/>
      <point x="62" y="285"/>
      <point x="72" y="293"/>
      <point x="76" y="293" type="curve" smooth="yes"/>
      <point x="214" y="293" type="line"/>
      <point x="212" y="293"/>
      <point x="206" y="288"/>
      <point x="199" y="283" type="curve" smooth="yes"/>
      <point x="190" y="276"/>
      <point x="179" y="267"/>
      <point x="174" y="267" type="curve" smooth="yes"/>
    </contour>
  </outline>
</glyph>
<glyph name="greater" format="2">
  <advance width="186"/>
  <unicode hex="003E"/>
  <outline>
    <contour>
      <point x="174" y="330" type="line"/>
      <point x="173" y="327"/>
      <point x="173" y="324"/>
      <point x="172" y="320" type="curve" smooth="yes"/>
      <point x="171" y="316"/>
      <point x="169" y="312"/>
      <point x="168" y="309" type="curve"/>
      <point x="18" y="253" type="line"/>
      <point x="13" y="258" type="line"/>
      <point x="13" y="259"/>
      <point x="14" y="261"/>
      <point x="14" y="263" type="curve" smooth="yes"/>
      <point x="14" y="265"/>
      <point x="16" y="267"/>
      <point x="16" y="269" type="curve" smooth="yes"/>
      <point x="16" y="271"/>
      <point x="18" y="272"/>
      <point x="18" y="274" type="curve" smooth="yes"/>
      <point x="18" y="276"/>
      <point x="19" y="278"/>
      <point x="19" y="279" type="curve"/>
      <point x="134" y="322" type="line"/>
      <point x="16" y="365" type="line"/>
      <point x="13" y="374" type="line"/>
      <point x="16" y="376"/>
      <point x="19" y="378"/>
      <point x="22" y="380" type="curve" smooth="yes"/>
      <point x="25" y="382"/>
      <point x="28" y="385"/>
      <point x="30" y="387" type="curve"/>
      <point x="170" y="335" type="line"/>
    </contour>
  </outline>
</glyph>
<glyph name="question" format="2">
  <advance width="203"/>
  <unicode hex="003F"/>
  <outline>
    <contour>
      <point x="106" y="461" type="curve" smooth="yes"/>
      <point x="84" y="461"/>
      <point x="67" y="439"/>
      <point x="67" y="414" type="curve" smooth="yes"/>
      <point x="67" y="406"/>
      <point x="69" y="397"/>
      <point x="73" y="389" type="curve"/>
      <point x="33" y="362" type="line"/>
      <point x="29" y="370"/>
      <point x="28" y="379"/>
      <point x="28" y="387" type="curve" smooth="yes"/>
      <point x="28" y="443"/>
      <point x="108" y="488"/>
      <point x="148" y="488" type="curve" smooth="yes"/>
      <point x="181" y="488"/>
      <point x="205" y="462"/>
      <point x="205" y="430" type="curve" smooth="yes"/>
      <point x="205" y="411"/>
      <point x="197" y="391"/>
      <point x="178" y="372" type="curve" smooth="yes"/>
      <point x="170" y="364"/>
      <point x="162" y="357"/>
      <point x="156" y="352" type="curve" smooth="yes"/>
      <point x="149" y="346"/>
      <point x="142" y="341"/>
      <point x="136" y="333" type="curve" smooth="yes"/>
      <point x="127" y="322"/>
      <point x="123" y="312"/>
      <point x="122" y="301" type="curve"/>
      <point x="123" y="290" type="line" smooth="yes"/>
      <point x="123" y="285"/>
      <point x="111" y="279"/>
      <point x="100" y="274" type="curve" smooth="yes"/>
      <point x="91" y="270"/>
      <point x="83" y="266"/>
      <point x="83" y="263" type="curve"/>
      <point x="82" y="266"/>
      <point x="82" y="269"/>
      <point x="82" y="272" type="curve" smooth="yes"/>
      <point x="82" y="297"/>
      <point x="104" y="315"/>
      <point x="130" y="338" type="curve" smooth="yes"/>
      <point x="131" y="339"/>
      <point x="167" y="371"/>
      <point x="167" y="407" type="curve" smooth="yes"/>
      <point x="167" y="420"/>
      <point x="162" y="434"/>
      <point x="150" y="446" type="curve" smooth="yes"/>
      <point x="139" y="456"/>
      <point x="125" y="461"/>
      <point x="109" y="461" type="curve" smooth="yes"/>
      <point x="108" y="461"/>
      <point x="107" y="461"/>
    </contour>
    <contour>
      <point x="130" y="221" type="line"/>
      <point x="90" y="194" type="line"/>
      <point x="72" y="227" type="line"/>
      <point x="112" y="253" type="line"/>
    </contour>
  </outline>
</glyph>
<glyph name="at" format="2">
  <advance width="296"/>
  <unicode hex="0040"/>
  <outline>
    <contour>
      <point x="222" y="424" type="curve" smooth="yes"/>
      <point x="263" y="424"/>
      <point x="292" y="395"/>
      <point x="292" y="351" type="curve" smooth="yes"/>
      <point x="292" y="332"/>
      <point x="287" y="310"/>
      <point x="274" y="286" type="curve" smooth="yes"/>
      <point x="268" y="274"/>
      <point x="233" y="213"/>
      <point x="186" y="213" type="curve" smooth="yes"/>
      <point x="176" y="213"/>
      <point x="171" y="218"/>
      <point x="171" y="228" type="curve" smooth="yes"/>
      <point x="171" y="230"/>
      <point x="172" y="233"/>
      <point x="172" y="236" type="curve"/>
      <point x="152" y="222"/>
      <point x="135" y="216"/>
      <point x="122" y="216" type="curve" smooth="yes"/>
      <point x="100" y="216"/>
      <point x="88" y="232"/>
      <point x="88" y="254" type="curve" smooth="yes"/>
      <point x="88" y="281"/>
      <point x="106" y="316"/>
      <point x="144" y="340" type="curve" smooth="yes"/>
      <point x="160" y="349"/>
      <point x="176" y="354"/>
      <point x="192" y="354" type="curve" smooth="yes"/>
      <point x="201" y="354"/>
      <point x="208" y="351"/>
      <point x="213" y="345" type="curve"/>
      <point x="213" y="345"/>
      <point x="222" y="351"/>
      <point x="229" y="355" type="curve" smooth="yes"/>
      <point x="234" y="358"/>
      <point x="238" y="360"/>
      <point x="238" y="360" type="curve"/>
      <point x="235" y="349"/>
      <point x="232" y="337"/>
      <point x="228" y="325" type="curve" smooth="yes"/>
      <point x="221" y="302"/>
      <point x="212" y="278"/>
      <point x="211" y="254" type="curve" smooth="yes"/>
      <point x="211" y="245"/>
      <point x="215" y="239"/>
      <point x="224" y="240" type="curve"/>
      <point x="243" y="268"/>
      <point x="252" y="298"/>
      <point x="252" y="323" type="curve" smooth="yes"/>
      <point x="252" y="365"/>
      <point x="228" y="396"/>
      <point x="185" y="396" type="curve" smooth="yes"/>
      <point x="184" y="396"/>
      <point x="183" y="396"/>
      <point x="182" y="396" type="curve" smooth="yes"/>
      <point x="117" y="396"/>
      <point x="63" y="332"/>
      <point x="63" y="266" type="curve" smooth="yes"/>
      <point x="63" y="247"/>
      <point x="68" y="228"/>
      <point x="78" y="210" type="curve" smooth="yes"/>
      <point x="91" y="189"/>
      <point x="111" y="179"/>
      <point x="137" y="178" type="curve"/>
      <point x="135" y="177"/>
      <point x="131" y="174"/>
      <point x="125" y="169" type="curve" smooth="yes"/>
      <point x="115" y="161"/>
      <point x="102" y="151"/>
      <point x="97" y="151" type="curve" smooth="yes"/>
      <point x="54" y="151"/>
      <point x="23" y="190"/>
      <point x="23" y="240" type="curve" smooth="yes"/>
      <point x="23" y="297"/>
      <point x="63" y="368"/>
      <point x="170" y="411" type="curve" smooth="yes"/>
      <point x="191" y="420"/>
      <point x="208" y="424"/>
    </contour>
    <contour>
      <point x="128" y="286" type="curve" smooth="yes"/>
      <point x="128" y="284"/>
      <point x="128" y="282"/>
      <point x="128" y="280" type="curve" smooth="yes"/>
      <point x="128" y="264"/>
      <point x="134" y="243"/>
      <point x="168" y="243" type="curve" smooth="yes"/>
      <point x="174" y="243"/>
      <point x="183" y="268"/>
      <point x="183" y="290" type="curve" smooth="yes"/>
      <point x="183" y="309"/>
      <point x="177" y="326"/>
      <point x="157" y="327" type="curve" smooth="yes"/>
      <point x="156" y="327" type="line" smooth="yes"/>
      <point x="131" y="327"/>
      <point x="128" y="291"/>
    </contour>
  </outline>
</glyph>
<glyph name="A" format="2">
  <advance width="253"/>
  <unicode hex="0041"/>
  <outline>
    <contour>
      <point x="158" y="311" type="line"/>
      <point x="121" y="418" type="line"/>
      <point x="86" y="311" type="line"/>
    </contour>
    <contour>
      <point x="79" y="292" type="line"/>
      <point x="56" y="223" type="line" smooth="yes"/>
      <point x="55" y="219"/>
      <point x="57" y="216"/>
      <point x="62" y="214" type="curve" smooth="yes"/>
      <point x="67" y="212"/>
      <point x="75" y="210"/>
      <point x="86" y="209" type="curve"/>
      <point x="86" y="200" type="line"/>
      <point x="0" y="200" type="line"/>
      <point x="0" y="209" type="line"/>
      <point x="10" y="211"/>
      <point x="16" y="212"/>
      <point x="22" y="214" type="curve" smooth="yes"/>
      <point x="28" y="216"/>
      <point x="32" y="219"/>
      <point x="33" y="223" type="curve" smooth="yes"/>
      <point x="110" y="457" type="line"/>
      <point x="113" y="461"/>
      <point x="117" y="464"/>
      <point x="122" y="467" type="curve" smooth="yes"/>
      <point x="127" y="470"/>
      <point x="130" y="472"/>
      <point x="134" y="474" type="curve"/>
      <point x="222" y="223" type="line" smooth="yes"/>
      <point x="223" y="221"/>
      <point x="224" y="220"/>
      <point x="225" y="218" type="curve" smooth="yes"/>
      <point x="226" y="216"/>
      <point x="228" y="215"/>
      <point x="230" y="214" type="curve" smooth="yes"/>
      <point x="232" y="213"/>
      <point x="235" y="212"/>
      <point x="238" y="211" type="curve" smooth="yes"/>
      <point x="241" y="210"/>
      <point x="245" y="209"/>
      <point x="249" y="209" type="curve"/>
      <point x="249" y="200" type="line"/>
      <point x="162" y="200" type="line"/>
      <point x="162" y="209" type="line"/>
      <point x="173" y="210"/>
      <point x="180" y="211"/>
      <point x="184" y="213" type="curve" smooth="yes"/>
      <point x="188" y="215"/>
      <point x="190" y="219"/>
      <point x="188" y="223" type="curve" smooth="yes"/>
      <point x="164" y="292" type="line"/>
    </contour>
  </outline>
</glyph>
<glyph name="B" format="2">
  <advance width="234"/>
  <unicode hex="0042"/>
  <outline>
    <contour>
      <point x="86" y="451" type="curve" smooth="yes"/>
      <point x="80" y="451" type="line"/>
      <point x="80" y="451"/>
      <point x="76" y="450"/>
      <point x="74" y="450" type="curve"/>
      <point x="74" y="351" type="line"/>
      <point x="81" y="351" type="line" smooth="yes"/>
      <point x="97" y="351"/>
      <point x="109" y="353"/>
      <point x="119" y="356" type="curve" smooth="yes"/>
      <point x="129" y="359"/>
      <point x="136" y="363"/>
      <point x="142" y="368" type="curve" smooth="yes"/>
      <point x="148" y="373"/>
      <point x="151" y="378"/>
      <point x="153" y="384" type="curve" smooth="yes"/>
      <point x="155" y="390"/>
      <point x="156" y="396"/>
      <point x="156" y="402" type="curve" smooth="yes"/>
      <point x="156" y="409"/>
      <point x="154" y="415"/>
      <point x="152" y="421" type="curve" smooth="yes"/>
      <point x="150" y="427"/>
      <point x="147" y="433"/>
      <point x="141" y="437" type="curve" smooth="yes"/>
      <point x="135" y="441"/>
      <point x="129" y="445"/>
      <point x="120" y="447" type="curve" smooth="yes"/>
      <point x="111" y="449"/>
      <point x="100" y="451"/>
    </contour>
    <contour>
      <point x="108" y="335" type="curve" smooth="yes"/>
      <point x="104" y="335"/>
      <point x="101" y="335"/>
      <point x="98" y="335" type="curve" smooth="yes"/>
      <point x="95" y="335"/>
      <point x="93" y="334"/>
      <point x="90" y="334" type="curve" smooth="yes"/>
      <point x="84" y="333"/>
      <point x="79" y="333"/>
      <point x="74" y="332" type="curve"/>
      <point x="74" y="222" type="line" smooth="yes"/>
      <point x="74" y="221"/>
      <point x="75" y="219"/>
      <point x="76" y="218" type="curve"/>
      <point x="78" y="217"/>
      <point x="81" y="216"/>
      <point x="84" y="216" type="curve" smooth="yes"/>
      <point x="93" y="215" type="line"/>
      <point x="93" y="215"/>
      <point x="100" y="215"/>
      <point x="103" y="215" type="curve" smooth="yes"/>
      <point x="106" y="215"/>
      <point x="109" y="214"/>
      <point x="112" y="214" type="curve" smooth="yes"/>
      <point x="122" y="214"/>
      <point x="131" y="216"/>
      <point x="139" y="218" type="curve" smooth="yes"/>
      <point x="147" y="220"/>
      <point x="154" y="225"/>
      <point x="160" y="229" type="curve" smooth="yes"/>
      <point x="166" y="233"/>
      <point x="170" y="240"/>
      <point x="173" y="246" type="curve" smooth="yes"/>
      <point x="176" y="252"/>
      <point x="177" y="259"/>
      <point x="177" y="267" type="curve" smooth="yes"/>
      <point x="177" y="275"/>
      <point x="176" y="282"/>
      <point x="173" y="290" type="curve" smooth="yes"/>
      <point x="170" y="298"/>
      <point x="167" y="305"/>
      <point x="161" y="312" type="curve" smooth="yes"/>
      <point x="155" y="319"/>
      <point x="148" y="325"/>
      <point x="139" y="329" type="curve" smooth="yes"/>
      <point x="130" y="333"/>
      <point x="120" y="335"/>
    </contour>
    <contour>
      <point x="211" y="274" type="curve" smooth="yes"/>
      <point x="211" y="262"/>
      <point x="209" y="252"/>
      <point x="204" y="242" type="curve" smooth="yes"/>
      <point x="199" y="232"/>
      <point x="193" y="225"/>
      <point x="185" y="218" type="curve" smooth="yes"/>
      <point x="177" y="211"/>
      <point x="167" y="206"/>
      <point x="155" y="202" type="curve" smooth="yes"/>
      <point x="143" y="198"/>
      <point x="130" y="197"/>
      <point x="116" y="197" type="curve" smooth="yes"/>
      <point x="105" y="197" type="line"/>
      <point x="105" y="197"/>
      <point x="97" y="198"/>
      <point x="92" y="198" type="curve" smooth="yes"/>
      <point x="87" y="198"/>
      <point x="82" y="198"/>
      <point x="77" y="198" type="curve" smooth="yes"/>
      <point x="72" y="198"/>
      <point x="67" y="198"/>
      <point x="62" y="198" type="curve" smooth="yes"/>
      <point x="50" y="198"/>
      <point x="39" y="200"/>
      <point x="26" y="200" type="curve"/>
      <point x="10" y="200" type="line"/>
      <point x="10" y="209" type="line"/>
      <point x="20" y="211"/>
      <point x="27" y="213"/>
      <point x="32" y="215" type="curve" smooth="yes"/>
      <point x="37" y="217"/>
      <point x="40" y="220"/>
      <point x="40" y="222" type="curve" smooth="yes"/>
      <point x="40" y="448" type="line"/>
      <point x="35" y="447"/>
      <point x="30" y="446"/>
      <point x="25" y="445" type="curve" smooth="yes"/>
      <point x="20" y="444"/>
      <point x="15" y="444"/>
      <point x="10" y="443" type="curve"/>
      <point x="8" y="456" type="line"/>
      <point x="14" y="458"/>
      <point x="20" y="458"/>
      <point x="27" y="460" type="curve" smooth="yes"/>
      <point x="34" y="462"/>
      <point x="42" y="463"/>
      <point x="50" y="464" type="curve" smooth="yes"/>
      <point x="58" y="465"/>
      <point x="66" y="466"/>
      <point x="74" y="467" type="curve" smooth="yes"/>
      <point x="82" y="468"/>
      <point x="90" y="468"/>
      <point x="98" y="468" type="curve" smooth="yes"/>
      <point x="112" y="468"/>
      <point x="124" y="466"/>
      <point x="135" y="464" type="curve" smooth="yes"/>
      <point x="146" y="462"/>
      <point x="156" y="458"/>
      <point x="164" y="453" type="curve" smooth="yes"/>
      <point x="172" y="448"/>
      <point x="178" y="443"/>
      <point x="182" y="436" type="curve" smooth="yes"/>
      <point x="186" y="429"/>
      <point x="188" y="421"/>
      <point x="188" y="412" type="curve" smooth="yes"/>
      <point x="188" y="397"/>
      <point x="185" y="385"/>
      <point x="178" y="374" type="curve" smooth="yes"/>
      <point x="171" y="363"/>
      <point x="161" y="355"/>
      <point x="149" y="350" type="curve"/>
      <point x="158" y="348"/>
      <point x="166" y="345"/>
      <point x="174" y="341" type="curve" smooth="yes"/>
      <point x="182" y="337"/>
      <point x="187" y="331"/>
      <point x="193" y="324" type="curve" smooth="yes"/>
      <point x="199" y="317"/>
      <point x="203" y="309"/>
      <point x="206" y="301" type="curve" smooth="yes"/>
      <point x="209" y="293"/>
      <point x="211" y="284"/>
    </contour>
  </outline>
</glyph>
<glyph name="D" format="2">
  <advance width="303"/>
  <unicode hex="0044"/>
  <outline>
    <contour>
      <point x="150" y="481" type="line" smooth="yes"/>
      <point x="252" y="481"/>
      <point x="297" y="426"/>
      <point x="297" y="365" type="curve" smooth="yes"/>
      <point x="297" y="307"/>
      <point x="257" y="245"/>
      <point x="187" y="218" type="curve" smooth="yes"/>
      <point x="158" y="206"/>
      <point x="128" y="200"/>
      <point x="97" y="200" type="curve" smooth="yes"/>
      <point x="34" y="200" type="line"/>
      <point x="45" y="211"/>
      <point x="51" y="229"/>
      <point x="53" y="256" type="curve" smooth="yes"/>
      <point x="66" y="454" type="line"/>
      <point x="24" y="454" type="line"/>
      <point x="27" y="455"/>
      <point x="33" y="460"/>
      <point x="40" y="465" type="curve" smooth="yes"/>
      <point x="49" y="472"/>
      <point x="59" y="481"/>
      <point x="63" y="481" type="curve" smooth="yes"/>
    </contour>
    <contour>
      <point x="141" y="226" type="line" smooth="yes"/>
      <point x="232" y="226"/>
      <point x="257" y="284"/>
      <point x="257" y="335" type="curve" smooth="yes"/>
      <point x="257" y="363"/>
      <point x="250" y="390"/>
      <point x="241" y="404" type="curve" smooth="yes"/>
      <point x="227" y="426"/>
      <point x="198" y="454"/>
      <point x="104" y="454" type="curve"/>
      <point x="92" y="266" type="line" smooth="yes"/>
      <point x="91" y="249"/>
      <point x="91" y="249"/>
      <point x="76" y="226" type="curve"/>
    </contour>
  </outline>
</glyph>
<glyph name="E" format="2">
  <advance width="211"/>
  <unicode hex="0045"/>
  <outline>
    <contour>
      <point x="198" y="251" type="line"/>
      <point x="197" y="239"/>
      <point x="196" y="229"/>
      <point x="194" y="220" type="curve" smooth="yes"/>
      <point x="192" y="211"/>
      <point x="191" y="204"/>
      <point x="190" y="200" type="curve"/>
      <point x="10" y="200" type="line"/>
      <point x="10" y="209" type="line"/>
      <point x="20" y="211"/>
      <point x="27" y="213"/>
      <point x="32" y="215" type="curve" smooth="yes"/>
      <point x="37" y="217"/>
      <point x="40" y="220"/>
      <point x="40" y="222" type="curve" smooth="yes"/>
      <point x="40" y="440" type="line" smooth="yes"/>
      <point x="40" y="442"/>
      <point x="38" y="444"/>
      <point x="33" y="446" type="curve" smooth="yes"/>
      <point x="28" y="448"/>
      <point x="20" y="451"/>
      <point x="10" y="453" type="curve"/>
      <point x="10" y="462" type="line"/>
      <point x="178" y="462" type="line"/>
      <point x="185" y="457" type="line"/>
      <point x="185" y="453"/>
      <point x="184" y="449"/>
      <point x="184" y="445" type="curve" smooth="yes"/>
      <point x="184" y="441"/>
      <point x="183" y="436"/>
      <point x="182" y="432" type="curve" smooth="yes"/>
      <point x="181" y="428"/>
      <point x="180" y="424"/>
      <point x="179" y="420" type="curve" smooth="yes"/>
      <point x="178" y="416"/>
      <point x="177" y="413"/>
      <point x="176" y="410" type="curve"/>
      <point x="167" y="410" type="line"/>
      <point x="167" y="416"/>
      <point x="166" y="422"/>
      <point x="165" y="426" type="curve" smooth="yes"/>
      <point x="164" y="430"/>
      <point x="163" y="434"/>
      <point x="162" y="436" type="curve" smooth="yes"/>
      <point x="161" y="438"/>
      <point x="159" y="441"/>
      <point x="157" y="442" type="curve" smooth="yes"/>
      <point x="155" y="443"/>
      <point x="152" y="443"/>
      <point x="150" y="443" type="curve" smooth="yes"/>
      <point x="74" y="443" type="line"/>
      <point x="74" y="353" type="line"/>
      <point x="158" y="353" type="line"/>
      <point x="164" y="347" type="line"/>
      <point x="163" y="345"/>
      <point x="162" y="343"/>
      <point x="160" y="341" type="curve" smooth="yes"/>
      <point x="158" y="339"/>
      <point x="156" y="336"/>
      <point x="154" y="334" type="curve" smooth="yes"/>
      <point x="152" y="332"/>
      <point x="151" y="330"/>
      <point x="149" y="328" type="curve" smooth="yes"/>
      <point x="147" y="326"/>
      <point x="146" y="325"/>
      <point x="144" y="324" type="curve"/>
      <point x="142" y="326"/>
      <point x="140" y="328"/>
      <point x="138" y="329" type="curve" smooth="yes"/>
      <point x="136" y="330"/>
      <point x="132" y="332"/>
      <point x="129" y="333" type="curve" smooth="yes"/>
      <point x="126" y="334"/>
      <point x="122" y="335"/>
      <point x="118" y="335" type="curve" smooth="yes"/>
      <point x="114" y="335"/>
      <point x="109" y="336"/>
      <point x="103" y="336" type="curve" smooth="yes"/>
      <point x="74" y="336" type="line"/>
      <point x="74" y="232" type="line" smooth="yes"/>
      <point x="74" y="230"/>
      <point x="74" y="228"/>
      <point x="75" y="226" type="curve" smooth="yes"/>
      <point x="76" y="224"/>
      <point x="78" y="223"/>
      <point x="81" y="222" type="curve" smooth="yes"/>
      <point x="84" y="221"/>
      <point x="88" y="221"/>
      <point x="94" y="220" type="curve" smooth="yes"/>
      <point x="97" y="220"/>
      <point x="100" y="219"/>
      <point x="104" y="219" type="curve" smooth="yes"/>
      <point x="108" y="219"/>
      <point x="112" y="219"/>
      <point x="116" y="219" type="curve" smooth="yes"/>
      <point x="143" y="219" type="line" smooth="yes"/>
      <point x="146" y="219"/>
      <point x="149" y="219"/>
      <point x="152" y="219" type="curve" smooth="yes"/>
      <point x="155" y="219"/>
      <point x="158" y="220"/>
      <point x="160" y="220" type="curve" smooth="yes"/>
      <point x="164" y="221"/>
      <point x="167" y="222"/>
      <point x="171" y="224" type="curve" smooth="yes"/>
      <point x="175" y="226"/>
      <point x="178" y="230"/>
      <point x="181" y="235" type="curve" smooth="yes"/>
      <point x="184" y="240"/>
      <point x="187" y="246"/>
      <point x="190" y="254" type="curve"/>
    </contour>
  </outline>
</glyph>
<glyph name="F" format="2">
  <advance width="210"/>
  <unicode hex="0046"/>
  <outline>
    <contour>
      <point x="191" y="348" type="line"/>
      <point x="188" y="348"/>
      <point x="182" y="343"/>
      <point x="175" y="337" type="curve" smooth="yes"/>
      <point x="167" y="330"/>
      <point x="157" y="322"/>
      <point x="152" y="322" type="curve" smooth="yes"/>
      <point x="151" y="322" type="line"/>
      <point x="94" y="322" type="line"/>
      <point x="91" y="276" type="line" smooth="yes"/>
      <point x="90" y="253"/>
      <point x="84" y="236"/>
      <point x="74" y="226" type="curve"/>
      <point x="136" y="226" type="line"/>
      <point x="134" y="226"/>
      <point x="132" y="224"/>
      <point x="128" y="221" type="curve" smooth="yes"/>
      <point x="128" y="221"/>
      <point x="104" y="200"/>
      <point x="96" y="200" type="curve" smooth="yes"/>
      <point x="30" y="200" type="line"/>
      <point x="43" y="218"/>
      <point x="50" y="234"/>
      <point x="51" y="247" type="curve" smooth="yes"/>
      <point x="56" y="322" type="line"/>
      <point x="29" y="322" type="line"/>
      <point x="38" y="329"/>
      <point x="48" y="336"/>
      <point x="58" y="343" type="curve"/>
      <point x="66" y="454" type="line"/>
      <point x="29" y="454" type="line"/>
      <point x="52" y="471"/>
      <point x="65" y="480"/>
      <point x="69" y="481" type="curve" smooth="yes"/>
      <point x="239" y="481" type="line"/>
      <point x="236" y="481"/>
      <point x="230" y="476"/>
      <point x="223" y="470" type="curve" smooth="yes"/>
      <point x="215" y="463"/>
      <point x="205" y="454"/>
      <point x="199" y="454" type="curve" smooth="yes"/>
      <point x="104" y="454" type="line"/>
      <point x="96" y="348" type="line"/>
    </contour>
  </outline>
</glyph>
<glyph name="G" format="2">
  <advance width="248"/>
  <unicode hex="0047"/>
  <outline>
    <contour>
      <point x="217" y="447" type="curve" smooth="yes"/>
      <point x="218" y="446"/>
      <point x="217" y="445"/>
      <point x="216" y="443" type="curve" smooth="yes"/>
      <point x="215" y="441"/>
      <point x="213" y="438"/>
      <point x="211" y="436" type="curve" smooth="yes"/>
      <point x="209" y="434"/>
      <point x="207" y="431"/>
      <point x="204" y="429" type="curve" smooth="yes"/>
      <point x="201" y="427"/>
      <point x="199" y="425"/>
      <point x="197" y="423" type="curve"/>
      <point x="190" y="424" type="line"/>
      <point x="186" y="428"/>
      <point x="181" y="432"/>
      <point x="176" y="435" type="curve" smooth="yes"/>
      <point x="171" y="438"/>
      <point x="165" y="439"/>
      <point x="160" y="441" type="curve" smooth="yes"/>
      <point x="155" y="443"/>
      <point x="150" y="443"/>
      <point x="144" y="444" type="curve" smooth="yes"/>
      <point x="138" y="445"/>
      <point x="131" y="446"/>
      <point x="124" y="446" type="curve" smooth="yes"/>
      <point x="120" y="446"/>
      <point x="116" y="445"/>
      <point x="111" y="443" type="curve" smooth="yes"/>
      <point x="106" y="441"/>
      <point x="101" y="439"/>
      <point x="95" y="435" type="curve" smooth="yes"/>
      <point x="89" y="431"/>
      <point x="84" y="428"/>
      <point x="78" y="422" type="curve" smooth="yes"/>
      <point x="72" y="416"/>
      <point x="67" y="408"/>
      <point x="62" y="400" type="curve" smooth="yes"/>
      <point x="57" y="392"/>
      <point x="54" y="382"/>
      <point x="51" y="371" type="curve" smooth="yes"/>
      <point x="48" y="360"/>
      <point x="47" y="346"/>
      <point x="47" y="332" type="curve" smooth="yes"/>
      <point x="47" y="313"/>
      <point x="49" y="296"/>
      <point x="54" y="282" type="curve" smooth="yes"/>
      <point x="59" y="268"/>
      <point x="67" y="256"/>
      <point x="75" y="247" type="curve" smooth="yes"/>
      <point x="83" y="238"/>
      <point x="93" y="231"/>
      <point x="103" y="226" type="curve" smooth="yes"/>
      <point x="113" y="221"/>
      <point x="124" y="219"/>
      <point x="134" y="219" type="curve" smooth="yes"/>
      <point x="144" y="219"/>
      <point x="154" y="220"/>
      <point x="162" y="222" type="curve" smooth="yes"/>
      <point x="170" y="224"/>
      <point x="178" y="226"/>
      <point x="185" y="230" type="curve"/>
      <point x="185" y="301" type="line" smooth="yes"/>
      <point x="185" y="303"/>
      <point x="184" y="303"/>
      <point x="183" y="305" type="curve" smooth="yes"/>
      <point x="182" y="307"/>
      <point x="179" y="309"/>
      <point x="176" y="310" type="curve" smooth="yes"/>
      <point x="173" y="311"/>
      <point x="169" y="313"/>
      <point x="163" y="314" type="curve" smooth="yes"/>
      <point x="157" y="315"/>
      <point x="150" y="317"/>
      <point x="142" y="318" type="curve"/>
      <point x="142" y="327" type="line"/>
      <point x="238" y="327" type="line"/>
      <point x="238" y="318" type="line"/>
      <point x="230" y="316"/>
      <point x="224" y="313"/>
      <point x="221" y="310" type="curve" smooth="yes"/>
      <point x="218" y="307"/>
      <point x="216" y="304"/>
      <point x="216" y="301" type="curve" smooth="yes"/>
      <point x="216" y="232" type="line"/>
      <point x="206" y="224"/>
      <point x="197" y="217"/>
      <point x="189" y="212" type="curve" smooth="yes"/>
      <point x="181" y="207"/>
      <point x="173" y="203"/>
      <point x="166" y="200" type="curve" smooth="yes"/>
      <point x="159" y="197"/>
      <point x="153" y="196"/>
      <point x="147" y="195" type="curve" smooth="yes"/>
      <point x="141" y="194"/>
      <point x="134" y="194"/>
      <point x="128" y="194" type="curve" smooth="yes"/>
      <point x="114" y="194"/>
      <point x="101" y="197"/>
      <point x="87" y="202" type="curve" smooth="yes"/>
      <point x="73" y="207"/>
      <point x="62" y="214"/>
      <point x="51" y="225" type="curve" smooth="yes"/>
      <point x="40" y="236"/>
      <point x="31" y="249"/>
      <point x="24" y="265" type="curve" smooth="yes"/>
      <point x="17" y="281"/>
      <point x="14" y="299"/>
      <point x="14" y="321" type="curve" smooth="yes"/>
      <point x="14" y="344"/>
      <point x="19" y="365"/>
      <point x="26" y="383" type="curve" smooth="yes"/>
      <point x="33" y="401"/>
      <point x="42" y="416"/>
      <point x="55" y="429" type="curve" smooth="yes"/>
      <point x="68" y="442"/>
      <point x="83" y="451"/>
      <point x="100" y="458" type="curve" smooth="yes"/>
      <point x="117" y="465"/>
      <point x="134" y="468"/>
      <point x="153" y="468" type="curve" smooth="yes"/>
      <point x="157" y="468"/>
      <point x="162" y="468"/>
      <point x="168" y="467" type="curve" smooth="yes"/>
      <point x="174" y="466"/>
      <point x="179" y="465"/>
      <point x="185" y="463" type="curve" smooth="yes"/>
      <point x="191" y="461"/>
      <point x="196" y="459"/>
      <point x="202" y="456" type="curve" smooth="yes"/>
      <point x="208" y="453"/>
      <point x="213" y="450"/>
    </contour>
  </outline>
</glyph>
<glyph name="H" format="2">
  <advance width="278"/>
  <unicode hex="0048"/>
  <outline>
    <contour>
      <point x="10" y="200" type="line"/>
      <point x="10" y="209" type="line"/>
      <point x="20" y="211"/>
      <point x="27" y="213"/>
      <point x="32" y="215" type="curve" smooth="yes"/>
      <point x="37" y="217"/>
      <point x="40" y="220"/>
      <point x="40" y="222" type="curve" smooth="yes"/>
      <point x="40" y="440" type="line" smooth="yes"/>
      <point x="40" y="442"/>
      <point x="38" y="444"/>
      <point x="33" y="446" type="curve" smooth="yes"/>
      <point x="28" y="448"/>
      <point x="20" y="451"/>
      <point x="10" y="453" type="curve"/>
      <point x="10" y="462" type="line"/>
      <point x="104" y="462" type="line"/>
      <point x="104" y="453" type="line"/>
      <point x="94" y="451"/>
      <point x="87" y="449"/>
      <point x="82" y="447" type="curve" smooth="yes"/>
      <point x="77" y="445"/>
      <point x="74" y="442"/>
      <point x="74" y="440" type="curve" smooth="yes"/>
      <point x="74" y="347" type="line"/>
      <point x="201" y="347" type="line"/>
      <point x="201" y="440" type="line" smooth="yes"/>
      <point x="201" y="442"/>
      <point x="198" y="444"/>
      <point x="193" y="446" type="curve" smooth="yes"/>
      <point x="188" y="448"/>
      <point x="180" y="451"/>
      <point x="170" y="453" type="curve"/>
      <point x="170" y="462" type="line"/>
      <point x="264" y="462" type="line"/>
      <point x="264" y="453" type="line"/>
      <point x="254" y="451"/>
      <point x="247" y="449"/>
      <point x="242" y="447" type="curve" smooth="yes"/>
      <point x="237" y="445"/>
      <point x="234" y="442"/>
      <point x="234" y="440" type="curve" smooth="yes"/>
      <point x="234" y="222" type="line" smooth="yes"/>
      <point x="234" y="220"/>
      <point x="237" y="218"/>
      <point x="242" y="216" type="curve" smooth="yes"/>
      <point x="247" y="214"/>
      <point x="254" y="211"/>
      <point x="264" y="209" type="curve"/>
      <point x="264" y="200" type="line"/>
      <point x="170" y="200" type="line"/>
      <point x="170" y="209" type="line"/>
      <point x="180" y="211"/>
      <point x="188" y="213"/>
      <point x="193" y="215" type="curve" smooth="yes"/>
      <point x="198" y="217"/>
      <point x="201" y="220"/>
      <point x="201" y="222" type="curve" smooth="yes"/>
      <point x="201" y="328" type="line"/>
      <point x="74" y="328" type="line"/>
      <point x="74" y="222" type="line" smooth="yes"/>
      <point x="74" y="220"/>
      <point x="76" y="218"/>
      <point x="81" y="216" type="curve" smooth="yes"/>
      <point x="86" y="214"/>
      <point x="94" y="211"/>
      <point x="104" y="209" type="curve"/>
      <point x="104" y="200" type="line"/>
    </contour>
  </outline>
</glyph>
<glyph name="I" format="2">
  <advance width="126"/>
  <unicode hex="0049"/>
  <outline>
    <contour>
      <point x="14" y="200" type="line"/>
      <point x="14" y="209" type="line"/>
      <point x="24" y="211"/>
      <point x="32" y="213"/>
      <point x="37" y="215" type="curve" smooth="yes"/>
      <point x="42" y="217"/>
      <point x="45" y="220"/>
      <point x="45" y="222" type="curve" smooth="yes"/>
      <point x="45" y="440" type="line" smooth="yes"/>
      <point x="45" y="442"/>
      <point x="42" y="444"/>
      <point x="37" y="446" type="curve" smooth="yes"/>
      <point x="32" y="448"/>
      <point x="24" y="451"/>
      <point x="14" y="453" type="curve"/>
      <point x="14" y="462" type="line"/>
      <point x="108" y="462" type="line"/>
      <point x="108" y="453" type="line"/>
      <point x="98" y="451"/>
      <point x="91" y="449"/>
      <point x="86" y="447" type="curve" smooth="yes"/>
      <point x="81" y="445"/>
      <point x="78" y="442"/>
      <point x="78" y="440" type="curve" smooth="yes"/>
      <point x="78" y="222" type="line" smooth="yes"/>
      <point x="78" y="220"/>
      <point x="81" y="218"/>
      <point x="86" y="216" type="curve" smooth="yes"/>
      <point x="91" y="214"/>
      <point x="98" y="211"/>
      <point x="108" y="209" type="curve"/>
      <point x="108" y="200" type="line"/>
    </contour>
  </outline>
</glyph>
<glyph name="J" format="2">
  <advance width="138"/>
  <unicode hex="004A"/>
  <anchor x="49" y="200" name="Numeral"/>
  <anchor x="93" y="522" name="Yerok"/>
  <anchor x="93" y="522" name="Diacritic"/>
  <outline>
    <contour>
      <point x="29" y="454" type="line"/>
      <point x="29" y="454"/>
      <point x="60" y="481"/>
      <point x="68" y="481" type="curve" smooth="yes"/>
      <point x="69" y="481" type="line"/>
      <point x="158" y="481" type="line"/>
      <point x="154" y="480"/>
      <point x="148" y="475"/>
      <point x="141" y="469" type="curve" smooth="yes"/>
      <point x="132" y="462"/>
      <point x="123" y="454"/>
      <point x="118" y="454" type="curve" smooth="yes"/>
      <point x="103" y="454" type="line"/>
      <point x="89" y="244" type="line" smooth="yes"/>
      <point x="85" y="175"/>
      <point x="24" y="94"/>
      <point x="-48" y="94" type="curve" smooth="yes"/>
      <point x="-62" y="94"/>
      <point x="-95" y="106"/>
      <point x="-97" y="118" type="curve" smooth="yes"/>
      <point x="-97" y="126"/>
      <point x="-48" y="155"/>
      <point x="-47" y="155" type="curve"/>
      <point x="-54" y="150"/>
      <point x="-57" y="147"/>
      <point x="-58" y="144" type="curve" smooth="yes"/>
      <point x="-58" y="140"/>
      <point x="-28" y="120"/>
      <point x="-6" y="120" type="curve" smooth="yes"/>
      <point x="9" y="120"/>
      <point x="45" y="129"/>
      <point x="49" y="217" type="curve"/>
      <point x="65" y="454" type="line"/>
    </contour>
  </outline>
</glyph>
<glyph name="K" format="2">
  <advance width="318"/>
  <unicode hex="004B"/>
  <outline>
    <contour>
      <point x="305" y="481" type="line"/>
      <point x="301" y="480"/>
      <point x="296" y="475"/>
      <point x="289" y="470" type="curve" smooth="yes"/>
      <point x="281" y="463"/>
      <point x="272" y="456"/>
      <point x="265" y="454" type="curve"/>
      <point x="236" y="454" type="line"/>
      <point x="219" y="437"/>
      <point x="188" y="409"/>
      <point x="143" y="370" type="curve"/>
      <point x="275" y="230"/>
      <point x="284" y="227"/>
      <point x="308" y="226" type="curve" smooth="yes"/>
      <point x="314" y="226"/>
      <point x="324" y="229"/>
      <point x="338" y="235" type="curve"/>
      <point x="325" y="225"/>
      <point x="296" y="200"/>
      <point x="265" y="200" type="curve" smooth="yes"/>
      <point x="252" y="200"/>
      <point x="238" y="204"/>
      <point x="226" y="216" type="curve" smooth="yes"/>
      <point x="219" y="223"/>
      <point x="213" y="229"/>
      <point x="206" y="236" type="curve" smooth="yes"/>
      <point x="198" y="244"/>
      <point x="188" y="253"/>
      <point x="178" y="263" type="curve" smooth="yes"/>
      <point x="141" y="300" type="line" smooth="yes"/>
      <point x="128" y="313"/>
      <point x="114" y="327"/>
      <point x="100" y="342" type="curve"/>
      <point x="167" y="402"/>
      <point x="208" y="439"/>
      <point x="222" y="454" type="curve"/>
      <point x="187" y="454" type="line"/>
      <point x="187" y="454"/>
      <point x="220" y="481"/>
      <point x="227" y="481" type="curve" smooth="yes"/>
    </contour>
    <contour>
      <point x="137" y="226" type="line"/>
      <point x="134" y="226"/>
      <point x="127" y="220"/>
      <point x="119" y="214" type="curve" smooth="yes"/>
      <point x="110" y="207"/>
      <point x="102" y="200"/>
      <point x="97" y="200" type="curve" smooth="yes"/>
      <point x="31" y="200" type="line"/>
      <point x="44" y="212"/>
      <point x="51" y="235"/>
      <point x="53" y="268" type="curve" smooth="yes"/>
      <point x="66" y="454" type="line"/>
      <point x="30" y="454" type="line"/>
      <point x="57" y="474"/>
      <point x="65" y="480"/>
      <point x="70" y="481" type="curve" smooth="yes"/>
      <point x="158" y="481" type="line"/>
      <point x="156" y="481"/>
      <point x="150" y="477"/>
      <point x="143" y="471" type="curve" smooth="yes"/>
      <point x="134" y="463"/>
      <point x="123" y="454"/>
      <point x="118" y="454" type="curve" smooth="yes"/>
      <point x="104" y="454" type="line"/>
      <point x="92" y="276" type="line" smooth="yes"/>
      <point x="91" y="255"/>
      <point x="89" y="247"/>
      <point x="74" y="226" type="curve"/>
    </contour>
  </outline>
</glyph>
<glyph name="L" format="2">
  <advance width="202"/>
  <unicode hex="004C"/>
  <outline>
    <contour>
      <point x="196" y="251" type="line"/>
      <point x="195" y="239"/>
      <point x="194" y="228"/>
      <point x="192" y="219" type="curve" smooth="yes"/>
      <point x="190" y="210"/>
      <point x="189" y="204"/>
      <point x="188" y="200" type="curve"/>
      <point x="10" y="200" type="line"/>
      <point x="10" y="209" type="line"/>
      <point x="20" y="211"/>
      <point x="27" y="213"/>
      <point x="32" y="215" type="curve" smooth="yes"/>
      <point x="37" y="217"/>
      <point x="40" y="220"/>
      <point x="40" y="222" type="curve" smooth="yes"/>
      <point x="40" y="440" type="line" smooth="yes"/>
      <point x="40" y="442"/>
      <point x="38" y="444"/>
      <point x="33" y="446" type="curve" smooth="yes"/>
      <point x="28" y="448"/>
      <point x="20" y="451"/>
      <point x="10" y="453" type="curve"/>
      <point x="10" y="462" type="line"/>
      <point x="104" y="462" type="line"/>
      <point x="104" y="453" type="line"/>
      <point x="94" y="451"/>
      <point x="87" y="449"/>
      <point x="82" y="447" type="curve" smooth="yes"/>
      <point x="77" y="445"/>
      <point x="74" y="442"/>
      <point x="74" y="440" type="curve" smooth="yes"/>
      <point x="74" y="234" type="line" smooth="yes"/>
      <point x="74" y="232"/>
      <point x="75" y="230"/>
      <point x="76" y="228" type="curve" smooth="yes"/>
      <point x="77" y="226"/>
      <point x="79" y="224"/>
      <point x="82" y="223" type="curve" smooth="yes"/>
      <point x="85" y="222"/>
      <point x="89" y="221"/>
      <point x="94" y="220" type="curve" smooth="yes"/>
      <point x="96" y="220"/>
      <point x="99" y="219"/>
      <point x="102" y="219" type="curve" smooth="yes"/>
      <point x="105" y="219"/>
      <point x="108" y="219"/>
      <point x="112" y="219" type="curve" smooth="yes"/>
      <point x="142" y="219" type="line" smooth="yes"/>
      <point x="145" y="219"/>
      <point x="149" y="219"/>
      <point x="151" y="219" type="curve" smooth="yes"/>
      <point x="153" y="219"/>
      <point x="156" y="220"/>
      <point x="158" y="220" type="curve" smooth="yes"/>
      <point x="162" y="221"/>
      <point x="167" y="222"/>
      <point x="170" y="224" type="curve" smooth="yes"/>
      <point x="173" y="226"/>
      <point x="176" y="230"/>
      <point x="179" y="235" type="curve" smooth="yes"/>
      <point x="182" y="240"/>
      <point x="185" y="246"/>
      <point x="188" y="254" type="curve"/>
    </contour>
  </outline>
</glyph>
<glyph name="M" format="2">
  <advance width="432"/>
  <unicode hex="004D"/>
  <outline>
    <contour>
      <point x="29" y="454" type="line"/>
      <point x="42" y="466"/>
      <point x="64" y="481"/>
      <point x="68" y="481" type="curve" smooth="yes"/>
      <point x="69" y="481" type="line"/>
      <point x="118" y="481" type="line"/>
      <point x="127" y="463"/>
      <point x="137" y="445"/>
      <point x="147" y="427" type="curve" smooth="yes"/>
      <point x="176" y="373" type="line" smooth="yes"/>
      <point x="177" y="372"/>
      <point x="216" y="302"/>
      <point x="230" y="262" type="curve"/>
      <point x="268" y="322"/>
      <point x="320" y="404"/>
      <point x="343" y="441" type="curve" smooth="yes"/>
      <point x="350" y="452"/>
      <point x="355" y="460"/>
      <point x="355" y="460" type="curve" smooth="yes"/>
      <point x="358" y="465"/>
      <point x="371" y="472"/>
      <point x="381" y="478" type="curve" smooth="yes"/>
      <point x="387" y="482"/>
      <point x="392" y="485"/>
      <point x="394" y="487" type="curve"/>
      <point x="394" y="457"/>
      <point x="390" y="274"/>
      <point x="390" y="272" type="curve" smooth="yes"/>
      <point x="389" y="253"/>
      <point x="384" y="237"/>
      <point x="377" y="226" type="curve"/>
      <point x="434" y="226" type="line"/>
      <point x="430" y="225"/>
      <point x="423" y="220"/>
      <point x="416" y="214" type="curve" smooth="yes"/>
      <point x="408" y="207"/>
      <point x="399" y="200"/>
      <point x="394" y="200" type="curve" smooth="yes"/>
      <point x="336" y="200" type="line"/>
      <point x="348" y="215"/>
      <point x="349" y="216"/>
      <point x="352" y="328" type="curve" smooth="yes"/>
      <point x="352" y="334"/>
      <point x="353" y="367"/>
      <point x="353" y="377" type="curve" smooth="yes"/>
      <point x="354" y="399"/>
      <point x="354" y="413"/>
      <point x="354" y="420" type="curve"/>
      <point x="304" y="341"/>
      <point x="269" y="285"/>
      <point x="251" y="257" type="curve" smooth="yes"/>
      <point x="242" y="243"/>
      <point x="238" y="237"/>
      <point x="238" y="236" type="curve" smooth="yes"/>
      <point x="235" y="231"/>
      <point x="199" y="210"/>
      <point x="199" y="210" type="curve"/>
      <point x="193" y="233"/>
      <point x="187" y="253"/>
      <point x="152" y="316" type="curve" smooth="yes"/>
      <point x="146" y="327"/>
      <point x="140" y="339"/>
      <point x="134" y="350" type="curve" smooth="yes"/>
      <point x="106" y="402" type="line"/>
      <point x="86" y="279"/>
      <point x="79" y="242"/>
      <point x="63" y="226" type="curve"/>
      <point x="126" y="226" type="line"/>
      <point x="103" y="209"/>
      <point x="90" y="200"/>
      <point x="86" y="200" type="curve" smooth="yes"/>
      <point x="22" y="200" type="line"/>
      <point x="40" y="217"/>
      <point x="51" y="265"/>
      <point x="78" y="454" type="curve"/>
    </contour>
  </outline>
</glyph>
<glyph name="N" format="2">
  <advance width="276"/>
  <unicode hex="004E"/>
  <outline>
    <contour>
      <point x="10" y="200" type="line"/>
      <point x="10" y="209" type="line"/>
      <point x="20" y="210"/>
      <point x="28" y="212"/>
      <point x="33" y="215" type="curve" smooth="yes"/>
      <point x="38" y="218"/>
      <point x="40" y="220"/>
      <point x="40" y="222" type="curve" smooth="yes"/>
      <point x="40" y="439" type="line"/>
      <point x="36" y="443"/>
      <point x="31" y="447"/>
      <point x="26" y="449" type="curve" smooth="yes"/>
      <point x="21" y="451"/>
      <point x="16" y="452"/>
      <point x="10" y="453" type="curve"/>
      <point x="10" y="462" type="line"/>
      <point x="54" y="462" type="line" smooth="yes"/>
      <point x="56" y="462"/>
      <point x="59" y="462"/>
      <point x="60" y="462" type="curve" smooth="yes"/>
      <point x="61" y="462"/>
      <point x="63" y="460"/>
      <point x="64" y="459" type="curve" smooth="yes"/>
      <point x="65" y="458"/>
      <point x="66" y="456"/>
      <point x="68" y="454" type="curve" smooth="yes"/>
      <point x="70" y="452"/>
      <point x="71" y="450"/>
      <point x="74" y="446" type="curve" smooth="yes"/>
      <point x="211" y="258" type="line"/>
      <point x="211" y="440" type="line" smooth="yes"/>
      <point x="211" y="442"/>
      <point x="208" y="444"/>
      <point x="204" y="447" type="curve" smooth="yes"/>
      <point x="200" y="450"/>
      <point x="192" y="451"/>
      <point x="181" y="453" type="curve"/>
      <point x="181" y="462" type="line"/>
      <point x="266" y="462" type="line"/>
      <point x="266" y="453" type="line"/>
      <point x="256" y="452"/>
      <point x="249" y="450"/>
      <point x="244" y="447" type="curve" smooth="yes"/>
      <point x="239" y="444"/>
      <point x="236" y="442"/>
      <point x="236" y="440" type="curve" smooth="yes"/>
      <point x="236" y="194" type="line"/>
      <point x="229" y="195"/>
      <point x="224" y="196"/>
      <point x="220" y="198" type="curve" smooth="yes"/>
      <point x="216" y="200"/>
      <point x="213" y="202"/>
      <point x="211" y="204" type="curve" smooth="yes"/>
      <point x="66" y="406" type="line"/>
      <point x="66" y="222" type="line" smooth="yes"/>
      <point x="66" y="220"/>
      <point x="67" y="218"/>
      <point x="72" y="215" type="curve" smooth="yes"/>
      <point x="77" y="212"/>
      <point x="85" y="211"/>
      <point x="96" y="209" type="curve"/>
      <point x="96" y="200" type="line"/>
    </contour>
  </outline>
</glyph>
<glyph name="P" format="2">
  <advance width="222"/>
  <unicode hex="0050"/>
  <outline>
    <contour>
      <point x="10" y="200" type="line"/>
      <point x="10" y="209" type="line"/>
      <point x="20" y="211"/>
      <point x="27" y="213"/>
      <point x="32" y="215" type="curve" smooth="yes"/>
      <point x="37" y="217"/>
      <point x="40" y="220"/>
      <point x="40" y="222" type="curve" smooth="yes"/>
      <point x="40" y="448" type="line"/>
      <point x="35" y="447"/>
      <point x="30" y="446"/>
      <point x="25" y="445" type="curve" smooth="yes"/>
      <point x="20" y="444"/>
      <point x="15" y="444"/>
      <point x="10" y="443" type="curve"/>
      <point x="8" y="456" type="line"/>
      <point x="15" y="458"/>
      <point x="22" y="459"/>
      <point x="30" y="461" type="curve" smooth="yes"/>
      <point x="38" y="463"/>
      <point x="47" y="464"/>
      <point x="55" y="465" type="curve" smooth="yes"/>
      <point x="63" y="466"/>
      <point x="71" y="466"/>
      <point x="80" y="467" type="curve" smooth="yes"/>
      <point x="89" y="468"/>
      <point x="98" y="468"/>
      <point x="106" y="468" type="curve" smooth="yes"/>
      <point x="121" y="468"/>
      <point x="135" y="467"/>
      <point x="147" y="464" type="curve" smooth="yes"/>
      <point x="159" y="461"/>
      <point x="170" y="455"/>
      <point x="178" y="449" type="curve" smooth="yes"/>
      <point x="186" y="443"/>
      <point x="192" y="435"/>
      <point x="197" y="426" type="curve" smooth="yes"/>
      <point x="202" y="417"/>
      <point x="204" y="407"/>
      <point x="204" y="395" type="curve" smooth="yes"/>
      <point x="204" y="385"/>
      <point x="203" y="376"/>
      <point x="200" y="368" type="curve" smooth="yes"/>
      <point x="197" y="360"/>
      <point x="193" y="353"/>
      <point x="189" y="347" type="curve" smooth="yes"/>
      <point x="185" y="341"/>
      <point x="180" y="335"/>
      <point x="174" y="331" type="curve" smooth="yes"/>
      <point x="168" y="327"/>
      <point x="162" y="323"/>
      <point x="156" y="320" type="curve" smooth="yes"/>
      <point x="150" y="317"/>
      <point x="143" y="316"/>
      <point x="137" y="314" type="curve" smooth="yes"/>
      <point x="131" y="312"/>
      <point x="125" y="311"/>
      <point x="119" y="311" type="curve" smooth="yes"/>
      <point x="106" y="311"/>
      <point x="95" y="314"/>
      <point x="86" y="318" type="curve"/>
      <point x="81" y="333" type="line"/>
      <point x="87" y="330"/>
      <point x="93" y="329"/>
      <point x="98" y="328" type="curve" smooth="yes"/>
      <point x="103" y="327"/>
      <point x="108" y="327"/>
      <point x="113" y="327" type="curve" smooth="yes"/>
      <point x="119" y="327"/>
      <point x="126" y="329"/>
      <point x="133" y="331" type="curve" smooth="yes"/>
      <point x="140" y="333"/>
      <point x="146" y="337"/>
      <point x="152" y="342" type="curve" smooth="yes"/>
      <point x="158" y="347"/>
      <point x="162" y="353"/>
      <point x="166" y="360" type="curve" smooth="yes"/>
      <point x="170" y="367"/>
      <point x="172" y="376"/>
      <point x="172" y="386" type="curve" smooth="yes"/>
      <point x="172" y="397"/>
      <point x="170" y="408"/>
      <point x="166" y="416" type="curve" smooth="yes"/>
      <point x="162" y="424"/>
      <point x="156" y="431"/>
      <point x="149" y="436" type="curve" smooth="yes"/>
      <point x="142" y="441"/>
      <point x="134" y="445"/>
      <point x="124" y="447" type="curve" smooth="yes"/>
      <point x="114" y="449"/>
      <point x="105" y="451"/>
      <point x="94" y="451" type="curve" smooth="yes"/>
      <point x="84" y="451" type="line"/>
      <point x="84" y="451"/>
      <point x="77" y="450"/>
      <point x="74" y="450" type="curve"/>
      <point x="74" y="222" type="line" smooth="yes"/>
      <point x="74" y="221"/>
      <point x="75" y="220"/>
      <point x="76" y="219" type="curve" smooth="yes"/>
      <point x="77" y="218"/>
      <point x="78" y="217"/>
      <point x="81" y="216" type="curve" smooth="yes"/>
      <point x="84" y="215"/>
      <point x="87" y="213"/>
      <point x="92" y="212" type="curve" smooth="yes"/>
      <point x="97" y="211"/>
      <point x="103" y="210"/>
      <point x="110" y="209" type="curve"/>
      <point x="110" y="200" type="line"/>
    </contour>
  </outline>
</glyph>
<glyph name="Q" format="2">
  <advance width="344"/>
  <unicode hex="0051"/>
  <outline>
    <contour>
      <point x="342" y="142" type="curve" smooth="yes"/>
      <point x="326" y="142"/>
      <point x="304" y="142"/>
      <point x="216" y="206" type="curve"/>
      <point x="196" y="197"/>
      <point x="176" y="192"/>
      <point x="154" y="192" type="curve" smooth="yes"/>
      <point x="67" y="192"/>
      <point x="25" y="246"/>
      <point x="25" y="309" type="curve" smooth="yes"/>
      <point x="25" y="367"/>
      <point x="60" y="432"/>
      <point x="128" y="467" type="curve" smooth="yes"/>
      <point x="157" y="482"/>
      <point x="186" y="490"/>
      <point x="216" y="490" type="curve" smooth="yes"/>
      <point x="290" y="490"/>
      <point x="338" y="437"/>
      <point x="338" y="372" type="curve" smooth="yes"/>
      <point x="338" y="326"/>
      <point x="313" y="274"/>
      <point x="257" y="232" type="curve"/>
      <point x="320" y="187"/>
      <point x="345" y="169"/>
      <point x="386" y="169" type="curve" smooth="yes"/>
      <point x="397" y="169"/>
      <point x="412" y="173"/>
      <point x="430" y="180" type="curve"/>
      <point x="423" y="174"/>
      <point x="388" y="142"/>
    </contour>
    <contour>
      <point x="191" y="218" type="curve" smooth="yes"/>
      <point x="261" y="218"/>
      <point x="299" y="278"/>
      <point x="299" y="339" type="curve" smooth="yes"/>
      <point x="299" y="400"/>
      <point x="260" y="462"/>
      <point x="174" y="462" type="curve" smooth="yes"/>
      <point x="94" y="462"/>
      <point x="65" y="405"/>
      <point x="65" y="348" type="curve" smooth="yes"/>
      <point x="65" y="311"/>
      <point x="77" y="274"/>
      <point x="96" y="254" type="curve" smooth="yes"/>
      <point x="119" y="230"/>
      <point x="151" y="218"/>
    </contour>
  </outline>
</glyph>
<glyph name="R" format="2">
  <advance width="238"/>
  <unicode hex="0052"/>
  <outline>
    <contour>
      <point x="10" y="200" type="line"/>
      <point x="10" y="209" type="line"/>
      <point x="20" y="211"/>
      <point x="27" y="213"/>
      <point x="32" y="215" type="curve" smooth="yes"/>
      <point x="37" y="217"/>
      <point x="40" y="220"/>
      <point x="40" y="222" type="curve" smooth="yes"/>
      <point x="40" y="447" type="line"/>
      <point x="35" y="446"/>
      <point x="31" y="446"/>
      <point x="26" y="445" type="curve" smooth="yes"/>
      <point x="21" y="444"/>
      <point x="15" y="444"/>
      <point x="10" y="443" type="curve"/>
      <point x="8" y="456" type="line"/>
      <point x="14" y="458"/>
      <point x="21" y="458"/>
      <point x="28" y="460" type="curve" smooth="yes"/>
      <point x="35" y="462"/>
      <point x="42" y="463"/>
      <point x="49" y="464" type="curve" smooth="yes"/>
      <point x="56" y="465"/>
      <point x="64" y="466"/>
      <point x="72" y="467" type="curve" smooth="yes"/>
      <point x="80" y="468"/>
      <point x="89" y="468"/>
      <point x="98" y="468" type="curve" smooth="yes"/>
      <point x="114" y="468"/>
      <point x="128" y="467"/>
      <point x="140" y="464" type="curve" smooth="yes"/>
      <point x="152" y="461"/>
      <point x="161" y="456"/>
      <point x="169" y="450" type="curve" smooth="yes"/>
      <point x="177" y="444"/>
      <point x="183" y="438"/>
      <point x="187" y="430" type="curve" smooth="yes"/>
      <point x="191" y="422"/>
      <point x="193" y="414"/>
      <point x="193" y="405" type="curve" smooth="yes"/>
      <point x="193" y="395"/>
      <point x="191" y="386"/>
      <point x="188" y="378" type="curve" smooth="yes"/>
      <point x="185" y="370"/>
      <point x="181" y="363"/>
      <point x="176" y="357" type="curve" smooth="yes"/>
      <point x="171" y="351"/>
      <point x="165" y="345"/>
      <point x="158" y="341" type="curve" smooth="yes"/>
      <point x="151" y="337"/>
      <point x="142" y="333"/>
      <point x="134" y="330" type="curve"/>
      <point x="197" y="229" type="line" smooth="yes"/>
      <point x="199" y="226"/>
      <point x="202" y="224"/>
      <point x="204" y="222" type="curve" smooth="yes"/>
      <point x="206" y="220"/>
      <point x="209" y="219"/>
      <point x="212" y="218" type="curve" smooth="yes"/>
      <point x="215" y="217"/>
      <point x="218" y="216"/>
      <point x="222" y="216" type="curve" smooth="yes"/>
      <point x="226" y="216"/>
      <point x="230" y="217"/>
      <point x="235" y="217" type="curve"/>
      <point x="237" y="208" type="line"/>
      <point x="228" y="205"/>
      <point x="219" y="202"/>
      <point x="211" y="200" type="curve" smooth="yes"/>
      <point x="203" y="198"/>
      <point x="196" y="197"/>
      <point x="190" y="197" type="curve" smooth="yes"/>
      <point x="186" y="197"/>
      <point x="182" y="198"/>
      <point x="178" y="200" type="curve" smooth="yes"/>
      <point x="174" y="202"/>
      <point x="172" y="205"/>
      <point x="170" y="208" type="curve" smooth="yes"/>
      <point x="107" y="325" type="line"/>
      <point x="105" y="325"/>
      <point x="104" y="325"/>
      <point x="102" y="325" type="curve" smooth="yes"/>
      <point x="96" y="325" type="line" smooth="yes"/>
      <point x="92" y="325"/>
      <point x="89" y="325"/>
      <point x="85" y="325" type="curve" smooth="yes"/>
      <point x="81" y="325"/>
      <point x="78" y="326"/>
      <point x="74" y="327" type="curve"/>
      <point x="74" y="222" type="line" smooth="yes"/>
      <point x="74" y="220"/>
      <point x="76" y="218"/>
      <point x="81" y="216" type="curve" smooth="yes"/>
      <point x="86" y="214"/>
      <point x="94" y="211"/>
      <point x="104" y="209" type="curve"/>
      <point x="104" y="200" type="line"/>
    </contour>
    <contour>
      <point x="90" y="451" type="curve" smooth="yes"/>
      <point x="85" y="451"/>
      <point x="80" y="450"/>
      <point x="74" y="450" type="curve"/>
      <point x="74" y="344" type="line"/>
      <point x="78" y="343"/>
      <point x="81" y="342"/>
      <point x="84" y="342" type="curve" smooth="yes"/>
      <point x="92" y="342" type="line" smooth="yes"/>
      <point x="114" y="342"/>
      <point x="131" y="347"/>
      <point x="143" y="357" type="curve" smooth="yes"/>
      <point x="155" y="367"/>
      <point x="160" y="381"/>
      <point x="160" y="399" type="curve" smooth="yes"/>
      <point x="160" y="407"/>
      <point x="159" y="414"/>
      <point x="156" y="420" type="curve" smooth="yes"/>
      <point x="153" y="426"/>
      <point x="150" y="432"/>
      <point x="144" y="436" type="curve" smooth="yes"/>
      <point x="138" y="440"/>
      <point x="131" y="445"/>
      <point x="122" y="447" type="curve" smooth="yes"/>
      <point x="113" y="449"/>
      <point x="102" y="451"/>
    </contour>
  </outline>
</glyph>
<glyph name="S" format="2">
  <advance width="202"/>
  <unicode hex="0053"/>
  <outline>
    <contour>
      <point x="184" y="278" type="curve" smooth="yes"/>
      <point x="184" y="272"/>
      <point x="184" y="265"/>
      <point x="182" y="259" type="curve" smooth="yes"/>
      <point x="180" y="253"/>
      <point x="177" y="246"/>
      <point x="174" y="240" type="curve" smooth="yes"/>
      <point x="171" y="234"/>
      <point x="166" y="228"/>
      <point x="161" y="222" type="curve" smooth="yes"/>
      <point x="156" y="216"/>
      <point x="151" y="212"/>
      <point x="144" y="208" type="curve" smooth="yes"/>
      <point x="137" y="204"/>
      <point x="129" y="200"/>
      <point x="120" y="198" type="curve" smooth="yes"/>
      <point x="111" y="196"/>
      <point x="102" y="194"/>
      <point x="92" y="194" type="curve" smooth="yes"/>
      <point x="88" y="194"/>
      <point x="82" y="194"/>
      <point x="76" y="195" type="curve" smooth="yes"/>
      <point x="70" y="196"/>
      <point x="66" y="197"/>
      <point x="60" y="199" type="curve" smooth="yes"/>
      <point x="54" y="201"/>
      <point x="49" y="204"/>
      <point x="43" y="206" type="curve" smooth="yes"/>
      <point x="37" y="208"/>
      <point x="32" y="211"/>
      <point x="27" y="214" type="curve" smooth="yes"/>
      <point x="26" y="214"/>
      <point x="25" y="217"/>
      <point x="25" y="221" type="curve" smooth="yes"/>
      <point x="25" y="225"/>
      <point x="24" y="230"/>
      <point x="24" y="236" type="curve" smooth="yes"/>
      <point x="24" y="242"/>
      <point x="25" y="247"/>
      <point x="25" y="253" type="curve" smooth="yes"/>
      <point x="25" y="259"/>
      <point x="26" y="263"/>
      <point x="27" y="267" type="curve"/>
      <point x="36" y="266" type="line"/>
      <point x="39" y="258"/>
      <point x="43" y="251"/>
      <point x="48" y="245" type="curve" smooth="yes"/>
      <point x="53" y="239"/>
      <point x="58" y="234"/>
      <point x="64" y="230" type="curve" smooth="yes"/>
      <point x="70" y="226"/>
      <point x="75" y="224"/>
      <point x="82" y="222" type="curve" smooth="yes"/>
      <point x="89" y="220"/>
      <point x="96" y="219"/>
      <point x="103" y="219" type="curve" smooth="yes"/>
      <point x="109" y="219"/>
      <point x="116" y="220"/>
      <point x="122" y="222" type="curve" smooth="yes"/>
      <point x="128" y="224"/>
      <point x="134" y="229"/>
      <point x="139" y="233" type="curve" smooth="yes"/>
      <point x="144" y="237"/>
      <point x="148" y="242"/>
      <point x="151" y="248" type="curve" smooth="yes"/>
      <point x="154" y="254"/>
      <point x="156" y="260"/>
      <point x="156" y="267" type="curve" smooth="yes"/>
      <point x="156" y="275"/>
      <point x="154" y="283"/>
      <point x="150" y="289" type="curve" smooth="yes"/>
      <point x="146" y="295"/>
      <point x="142" y="301"/>
      <point x="136" y="306" type="curve" smooth="yes"/>
      <point x="130" y="311"/>
      <point x="123" y="314"/>
      <point x="115" y="318" type="curve" smooth="yes"/>
      <point x="107" y="322"/>
      <point x="99" y="325"/>
      <point x="91" y="329" type="curve" smooth="yes"/>
      <point x="83" y="333"/>
      <point x="75" y="337"/>
      <point x="67" y="341" type="curve" smooth="yes"/>
      <point x="59" y="345"/>
      <point x="53" y="350"/>
      <point x="47" y="356" type="curve" smooth="yes"/>
      <point x="41" y="362"/>
      <point x="36" y="368"/>
      <point x="32" y="375" type="curve" smooth="yes"/>
      <point x="28" y="382"/>
      <point x="26" y="391"/>
      <point x="26" y="401" type="curve" smooth="yes"/>
      <point x="26" y="405"/>
      <point x="27" y="410"/>
      <point x="28" y="415" type="curve" smooth="yes"/>
      <point x="29" y="420"/>
      <point x="31" y="425"/>
      <point x="34" y="430" type="curve" smooth="yes"/>
      <point x="37" y="435"/>
      <point x="41" y="439"/>
      <point x="45" y="444" type="curve" smooth="yes"/>
      <point x="49" y="449"/>
      <point x="55" y="453"/>
      <point x="61" y="457" type="curve" smooth="yes"/>
      <point x="67" y="461"/>
      <point x="74" y="463"/>
      <point x="82" y="465" type="curve" smooth="yes"/>
      <point x="90" y="467"/>
      <point x="100" y="468"/>
      <point x="110" y="468" type="curve" smooth="yes"/>
      <point x="116" y="468"/>
      <point x="122" y="468"/>
      <point x="128" y="467" type="curve" smooth="yes"/>
      <point x="134" y="466"/>
      <point x="140" y="465"/>
      <point x="146" y="463" type="curve" smooth="yes"/>
      <point x="152" y="461"/>
      <point x="157" y="459"/>
      <point x="161" y="457" type="curve" smooth="yes"/>
      <point x="165" y="455"/>
      <point x="169" y="452"/>
      <point x="171" y="449" type="curve" smooth="yes"/>
      <point x="172" y="448"/>
      <point x="172" y="446"/>
      <point x="171" y="444" type="curve" smooth="yes"/>
      <point x="170" y="442"/>
      <point x="169" y="439"/>
      <point x="167" y="436" type="curve" smooth="yes"/>
      <point x="165" y="433"/>
      <point x="163" y="431"/>
      <point x="161" y="428" type="curve" smooth="yes"/>
      <point x="159" y="425"/>
      <point x="157" y="424"/>
      <point x="155" y="422" type="curve"/>
      <point x="148" y="423" type="line"/>
      <point x="144" y="427"/>
      <point x="139" y="431"/>
      <point x="135" y="434" type="curve" smooth="yes"/>
      <point x="131" y="437"/>
      <point x="126" y="440"/>
      <point x="122" y="442" type="curve" smooth="yes"/>
      <point x="118" y="444"/>
      <point x="114" y="445"/>
      <point x="110" y="446" type="curve" smooth="yes"/>
      <point x="106" y="447"/>
      <point x="101" y="447"/>
      <point x="97" y="447" type="curve" smooth="yes"/>
      <point x="89" y="447"/>
      <point x="83" y="446"/>
      <point x="77" y="444" type="curve" smooth="yes"/>
      <point x="71" y="442"/>
      <point x="68" y="439"/>
      <point x="64" y="435" type="curve" smooth="yes"/>
      <point x="60" y="431"/>
      <point x="58" y="427"/>
      <point x="56" y="423" type="curve" smooth="yes"/>
      <point x="54" y="419"/>
      <point x="54" y="415"/>
      <point x="54" y="411" type="curve" smooth="yes"/>
      <point x="54" y="405"/>
      <point x="55" y="399"/>
      <point x="59" y="394" type="curve" smooth="yes"/>
      <point x="63" y="389"/>
      <point x="68" y="384"/>
      <point x="74" y="380" type="curve" smooth="yes"/>
      <point x="80" y="376"/>
      <point x="87" y="372"/>
      <point x="95" y="368" type="curve" smooth="yes"/>
      <point x="103" y="364"/>
      <point x="111" y="360"/>
      <point x="119" y="356" type="curve" smooth="yes"/>
      <point x="127" y="352"/>
      <point x="135" y="348"/>
      <point x="143" y="343" type="curve" smooth="yes"/>
      <point x="151" y="338"/>
      <point x="158" y="332"/>
      <point x="164" y="326" type="curve" smooth="yes"/>
      <point x="170" y="320"/>
      <point x="174" y="314"/>
      <point x="178" y="306" type="curve" smooth="yes"/>
      <point x="182" y="298"/>
      <point x="184" y="288"/>
    </contour>
  </outline>
</glyph>
<glyph name="T" format="2">
  <advance width="234"/>
  <unicode hex="0054"/>
  <outline>
    <contour>
      <point x="64" y="200" type="line"/>
      <point x="64" y="209" type="line"/>
      <point x="70" y="210"/>
      <point x="76" y="212"/>
      <point x="80" y="213" type="curve" smooth="yes"/>
      <point x="84" y="214"/>
      <point x="87" y="216"/>
      <point x="90" y="217" type="curve" smooth="yes"/>
      <point x="93" y="218"/>
      <point x="95" y="220"/>
      <point x="96" y="221" type="curve" smooth="yes"/>
      <point x="97" y="222"/>
      <point x="98" y="223"/>
      <point x="98" y="224" type="curve" smooth="yes"/>
      <point x="98" y="443" type="line"/>
      <point x="36" y="443" type="line" smooth="yes"/>
      <point x="34" y="443"/>
      <point x="32" y="443"/>
      <point x="30" y="442" type="curve" smooth="yes"/>
      <point x="28" y="441"/>
      <point x="27" y="439"/>
      <point x="25" y="437" type="curve" smooth="yes"/>
      <point x="23" y="435"/>
      <point x="21" y="431"/>
      <point x="19" y="426" type="curve" smooth="yes"/>
      <point x="17" y="421"/>
      <point x="14" y="415"/>
      <point x="11" y="407" type="curve"/>
      <point x="2" y="411" type="line"/>
      <point x="3" y="419"/>
      <point x="4" y="428"/>
      <point x="5" y="437" type="curve" smooth="yes"/>
      <point x="6" y="446"/>
      <point x="7" y="455"/>
      <point x="9" y="462" type="curve"/>
      <point x="219" y="462" type="line"/>
      <point x="225" y="457" type="line"/>
      <point x="225" y="450"/>
      <point x="224" y="442"/>
      <point x="223" y="434" type="curve" smooth="yes"/>
      <point x="222" y="426"/>
      <point x="221" y="417"/>
      <point x="219" y="408" type="curve"/>
      <point x="210" y="408" type="line"/>
      <point x="209" y="414"/>
      <point x="207" y="420"/>
      <point x="206" y="424" type="curve" smooth="yes"/>
      <point x="205" y="428"/>
      <point x="203" y="432"/>
      <point x="202" y="435" type="curve" smooth="yes"/>
      <point x="201" y="438"/>
      <point x="200" y="441"/>
      <point x="198" y="442" type="curve" smooth="yes"/>
      <point x="196" y="443"/>
      <point x="193" y="443"/>
      <point x="190" y="443" type="curve" smooth="yes"/>
      <point x="131" y="443" type="line"/>
      <point x="131" y="224" type="line" smooth="yes"/>
      <point x="131" y="222"/>
      <point x="134" y="220"/>
      <point x="139" y="217" type="curve" smooth="yes"/>
      <point x="144" y="214"/>
      <point x="152" y="212"/>
      <point x="165" y="209" type="curve"/>
      <point x="165" y="200" type="line"/>
    </contour>
  </outline>
</glyph>
<glyph name="V" format="2">
  <advance width="276"/>
  <unicode hex="0056"/>
  <outline>
    <contour>
      <point x="268" y="453" type="line"/>
      <point x="258" y="451"/>
      <point x="251" y="450"/>
      <point x="246" y="448" type="curve" smooth="yes"/>
      <point x="241" y="446"/>
      <point x="237" y="444"/>
      <point x="236" y="440" type="curve" smooth="yes"/>
      <point x="156" y="212" type="line" smooth="yes"/>
      <point x="155" y="209"/>
      <point x="154" y="206"/>
      <point x="151" y="204" type="curve" smooth="yes"/>
      <point x="148" y="202"/>
      <point x="145" y="201"/>
      <point x="142" y="199" type="curve" smooth="yes"/>
      <point x="139" y="197"/>
      <point x="135" y="197"/>
      <point x="132" y="196" type="curve" smooth="yes"/>
      <point x="129" y="195"/>
      <point x="127" y="194"/>
      <point x="125" y="194" type="curve"/>
      <point x="34" y="440" type="line" smooth="yes"/>
      <point x="33" y="444"/>
      <point x="29" y="446"/>
      <point x="24" y="448" type="curve" smooth="yes"/>
      <point x="19" y="450"/>
      <point x="13" y="452"/>
      <point x="4" y="453" type="curve"/>
      <point x="4" y="462" type="line"/>
      <point x="95" y="462" type="line"/>
      <point x="95" y="453" type="line"/>
      <point x="84" y="452"/>
      <point x="76" y="451"/>
      <point x="72" y="449" type="curve" smooth="yes"/>
      <point x="68" y="447"/>
      <point x="66" y="444"/>
      <point x="68" y="440" type="curve" smooth="yes"/>
      <point x="142" y="242" type="line"/>
      <point x="211" y="440" type="line" smooth="yes"/>
      <point x="213" y="444"/>
      <point x="211" y="446"/>
      <point x="206" y="448" type="curve" smooth="yes"/>
      <point x="201" y="450"/>
      <point x="193" y="452"/>
      <point x="182" y="453" type="curve"/>
      <point x="182" y="462" type="line"/>
      <point x="268" y="462" type="line"/>
    </contour>
  </outline>
</glyph>
<glyph name="W" format="2">
  <advance width="362"/>
  <unicode hex="0057"/>
  <outline>
    <contour>
      <point x="354" y="453" type="line"/>
      <point x="348" y="452"/>
      <point x="343" y="451"/>
      <point x="339" y="450" type="curve" smooth="yes"/>
      <point x="335" y="449"/>
      <point x="331" y="447"/>
      <point x="329" y="446" type="curve" smooth="yes"/>
      <point x="327" y="445"/>
      <point x="325" y="444"/>
      <point x="324" y="443" type="curve" smooth="yes"/>
      <point x="323" y="442"/>
      <point x="322" y="441"/>
      <point x="322" y="440" type="curve" smooth="yes"/>
      <point x="275" y="212" type="line" smooth="yes"/>
      <point x="274" y="209"/>
      <point x="272" y="207"/>
      <point x="270" y="205" type="curve" smooth="yes"/>
      <point x="268" y="203"/>
      <point x="265" y="201"/>
      <point x="262" y="199" type="curve" smooth="yes"/>
      <point x="259" y="197"/>
      <point x="257" y="197"/>
      <point x="254" y="196" type="curve" smooth="yes"/>
      <point x="251" y="195"/>
      <point x="248" y="194"/>
      <point x="246" y="194" type="curve"/>
      <point x="178" y="396" type="line"/>
      <point x="118" y="212" type="line" smooth="yes"/>
      <point x="117" y="209"/>
      <point x="115" y="207"/>
      <point x="113" y="205" type="curve" smooth="yes"/>
      <point x="111" y="203"/>
      <point x="108" y="202"/>
      <point x="105" y="200" type="curve" smooth="yes"/>
      <point x="102" y="198"/>
      <point x="99" y="197"/>
      <point x="96" y="196" type="curve" smooth="yes"/>
      <point x="93" y="195"/>
      <point x="90" y="194"/>
      <point x="87" y="194" type="curve"/>
      <point x="33" y="438" type="line" smooth="yes"/>
      <point x="32" y="442"/>
      <point x="29" y="445"/>
      <point x="25" y="447" type="curve" smooth="yes"/>
      <point x="21" y="449"/>
      <point x="14" y="451"/>
      <point x="4" y="453" type="curve"/>
      <point x="4" y="462" type="line"/>
      <point x="93" y="462" type="line"/>
      <point x="93" y="453" type="line"/>
      <point x="86" y="452"/>
      <point x="81" y="451"/>
      <point x="77" y="450" type="curve" smooth="yes"/>
      <point x="73" y="449"/>
      <point x="71" y="448"/>
      <point x="69" y="447" type="curve" smooth="yes"/>
      <point x="67" y="446"/>
      <point x="65" y="445"/>
      <point x="65" y="443" type="curve" smooth="yes"/>
      <point x="65" y="441"/>
      <point x="65" y="440"/>
      <point x="65" y="438" type="curve" smooth="yes"/>
      <point x="106" y="252" type="line"/>
      <point x="174" y="462" type="line"/>
      <point x="185" y="462" type="line"/>
      <point x="259" y="252" type="line"/>
      <point x="298" y="440" type="line" smooth="yes"/>
      <point x="298" y="442"/>
      <point x="298" y="444"/>
      <point x="296" y="445" type="curve" smooth="yes"/>
      <point x="294" y="446"/>
      <point x="292" y="447"/>
      <point x="289" y="448" type="curve" smooth="yes"/>
      <point x="286" y="449"/>
      <point x="283" y="450"/>
      <point x="279" y="451" type="curve" smooth="yes"/>
      <point x="275" y="452"/>
      <point x="271" y="452"/>
      <point x="266" y="453" type="curve"/>
      <point x="266" y="462" type="line"/>
      <point x="354" y="462" type="line"/>
    </contour>
  </outline>
</glyph>
<glyph name="X" format="2">
  <advance width="322"/>
  <unicode hex="0058"/>
  <outline>
    <contour>
      <point x="338" y="481" type="line"/>
      <point x="334" y="480"/>
      <point x="329" y="475"/>
      <point x="322" y="470" type="curve" smooth="yes"/>
      <point x="314" y="463"/>
      <point x="304" y="455"/>
      <point x="299" y="455" type="curve" smooth="yes"/>
      <point x="274" y="455" type="line"/>
      <point x="249" y="428"/>
      <point x="220" y="398"/>
      <point x="185" y="364" type="curve"/>
      <point x="241" y="277"/>
      <point x="272" y="231"/>
      <point x="279" y="227" type="curve" smooth="yes"/>
      <point x="284" y="224"/>
      <point x="288" y="222"/>
      <point x="291" y="222" type="curve" smooth="yes"/>
      <point x="296" y="222"/>
      <point x="306" y="225"/>
      <point x="319" y="232" type="curve"/>
      <point x="294" y="208"/>
      <point x="273" y="196"/>
      <point x="256" y="196" type="curve" smooth="yes"/>
      <point x="240" y="196"/>
      <point x="233" y="196"/>
      <point x="150" y="330" type="curve"/>
      <point x="39" y="227" type="line"/>
      <point x="110" y="227" type="line"/>
      <point x="105" y="225"/>
      <point x="99" y="220"/>
      <point x="93" y="215" type="curve" smooth="yes"/>
      <point x="84" y="208"/>
      <point x="75" y="200"/>
      <point x="69" y="200" type="curve" smooth="yes"/>
      <point x="-2" y="200" type="line"/>
      <point x="146" y="336" type="line"/>
      <point x="145" y="337"/>
      <point x="79" y="438"/>
      <point x="74" y="443" type="curve" smooth="yes"/>
      <point x="66" y="452"/>
      <point x="58" y="457"/>
      <point x="49" y="458" type="curve" smooth="yes"/>
      <point x="43" y="458"/>
      <point x="35" y="455"/>
      <point x="24" y="450" type="curve"/>
      <point x="31" y="456"/>
      <point x="68" y="485"/>
      <point x="92" y="485" type="curve" smooth="yes"/>
      <point x="98" y="485"/>
      <point x="106" y="482"/>
      <point x="116" y="466" type="curve" smooth="yes"/>
      <point x="119" y="462"/>
      <point x="120" y="460"/>
      <point x="122" y="457" type="curve" smooth="yes"/>
      <point x="124" y="454"/>
      <point x="126" y="451"/>
      <point x="130" y="445" type="curve" smooth="yes"/>
      <point x="140" y="431" type="line" smooth="yes"/>
      <point x="140" y="431"/>
      <point x="140" y="430"/>
      <point x="141" y="429" type="curve" smooth="yes"/>
      <point x="147" y="421"/>
      <point x="167" y="392"/>
      <point x="180" y="371" type="curve"/>
      <point x="208" y="403"/>
      <point x="234" y="431"/>
      <point x="258" y="455" type="curve"/>
      <point x="210" y="455" type="line"/>
      <point x="214" y="456"/>
      <point x="219" y="461"/>
      <point x="226" y="466" type="curve" smooth="yes"/>
      <point x="234" y="473"/>
      <point x="244" y="481"/>
      <point x="249" y="481" type="curve" smooth="yes"/>
    </contour>
  </outline>
</glyph>
<glyph name="Y" format="2">
  <advance width="252"/>
  <unicode hex="0059"/>
  <outline>
    <contour>
      <point x="75" y="200" type="line"/>
      <point x="75" y="209" type="line"/>
      <point x="88" y="212"/>
      <point x="97" y="214"/>
      <point x="102" y="217" type="curve" smooth="yes"/>
      <point x="107" y="220"/>
      <point x="109" y="222"/>
      <point x="109" y="224" type="curve" smooth="yes"/>
      <point x="109" y="312" type="line"/>
      <point x="104" y="323"/>
      <point x="98" y="335"/>
      <point x="92" y="347" type="curve" smooth="yes"/>
      <point x="86" y="359"/>
      <point x="79" y="370"/>
      <point x="72" y="382" type="curve" smooth="yes"/>
      <point x="65" y="394"/>
      <point x="58" y="404"/>
      <point x="52" y="414" type="curve" smooth="yes"/>
      <point x="46" y="424"/>
      <point x="40" y="433"/>
      <point x="35" y="440" type="curve" smooth="yes"/>
      <point x="34" y="442"/>
      <point x="33" y="443"/>
      <point x="31" y="444" type="curve" smooth="yes"/>
      <point x="29" y="445"/>
      <point x="26" y="447"/>
      <point x="24" y="448" type="curve" smooth="yes"/>
      <point x="22" y="449"/>
      <point x="19" y="449"/>
      <point x="15" y="450" type="curve" smooth="yes"/>
      <point x="11" y="451"/>
      <point x="7" y="451"/>
      <point x="1" y="451" type="curve"/>
      <point x="0" y="460" type="line"/>
      <point x="8" y="461"/>
      <point x="16" y="462"/>
      <point x="24" y="463" type="curve" smooth="yes"/>
      <point x="32" y="464"/>
      <point x="40" y="464"/>
      <point x="46" y="464" type="curve" smooth="yes"/>
      <point x="52" y="464"/>
      <point x="58" y="462"/>
      <point x="62" y="456" type="curve" smooth="yes"/>
      <point x="67" y="449"/>
      <point x="72" y="441"/>
      <point x="78" y="432" type="curve" smooth="yes"/>
      <point x="84" y="423"/>
      <point x="90" y="414"/>
      <point x="96" y="404" type="curve" smooth="yes"/>
      <point x="102" y="394"/>
      <point x="108" y="383"/>
      <point x="114" y="372" type="curve" smooth="yes"/>
      <point x="120" y="361"/>
      <point x="125" y="352"/>
      <point x="130" y="342" type="curve"/>
      <point x="185" y="440" type="line" smooth="yes"/>
      <point x="187" y="444"/>
      <point x="186" y="446"/>
      <point x="183" y="448" type="curve" smooth="yes"/>
      <point x="180" y="450"/>
      <point x="173" y="452"/>
      <point x="162" y="453" type="curve"/>
      <point x="162" y="462" type="line"/>
      <point x="245" y="462" type="line"/>
      <point x="245" y="453" type="line"/>
      <point x="235" y="451"/>
      <point x="228" y="450"/>
      <point x="223" y="448" type="curve" smooth="yes"/>
      <point x="218" y="446"/>
      <point x="214" y="444"/>
      <point x="212" y="440" type="curve" smooth="yes"/>
      <point x="142" y="312" type="line"/>
      <point x="142" y="224" type="line" smooth="yes"/>
      <point x="142" y="223"/>
      <point x="143" y="222"/>
      <point x="144" y="221" type="curve" smooth="yes"/>
      <point x="145" y="220"/>
      <point x="147" y="218"/>
      <point x="150" y="217" type="curve" smooth="yes"/>
      <point x="153" y="216"/>
      <point x="156" y="214"/>
      <point x="160" y="213" type="curve" smooth="yes"/>
      <point x="164" y="212"/>
      <point x="171" y="210"/>
      <point x="177" y="209" type="curve"/>
      <point x="177" y="200" type="line"/>
    </contour>
  </outline>
</glyph>
<glyph name="Z" format="2">
  <advance width="222"/>
  <unicode hex="005A"/>
  <outline>
    <contour>
      <point x="31" y="466" type="line"/>
      <point x="40" y="464"/>
      <point x="50" y="462"/>
      <point x="60" y="462" type="curve" smooth="yes"/>
      <point x="199" y="462" type="line"/>
      <point x="204" y="453" type="line"/>
      <point x="58" y="221" type="line"/>
      <point x="166" y="221" type="line" smooth="yes"/>
      <point x="180" y="221"/>
      <point x="183" y="233"/>
      <point x="188" y="243" type="curve" smooth="yes"/>
      <point x="190" y="249"/>
      <point x="192" y="256"/>
      <point x="195" y="264" type="curve"/>
      <point x="206" y="261" type="line"/>
      <point x="206" y="257"/>
      <point x="204" y="220"/>
      <point x="204" y="214" type="curve" smooth="yes"/>
      <point x="204" y="209"/>
      <point x="204" y="204"/>
      <point x="204" y="200" type="curve"/>
      <point x="18" y="200" type="line"/>
      <point x="12" y="209" type="line"/>
      <point x="160" y="441" type="line"/>
      <point x="65" y="441" type="line" smooth="yes"/>
      <point x="57" y="441"/>
      <point x="54" y="436"/>
      <point x="50" y="432" type="curve" smooth="yes"/>
      <point x="48" y="429"/>
      <point x="45" y="424"/>
      <point x="43" y="419" type="curve" smooth="yes"/>
      <point x="41" y="414"/>
      <point x="39" y="407"/>
      <point x="37" y="400" type="curve"/>
      <point x="25" y="403" type="line"/>
    </contour>
  </outline>
</glyph>
<glyph name="bracketleft" format="2">
  <advance width="177"/>
  <unicode hex="005B"/>
  <outline>
    <contour>
      <point x="34" y="-34" type="line"/>
      <point x="34" y="468" type="line"/>
      <point x="152" y="468" type="line"/>
      <point x="152" y="454" type="line"/>
      <point x="92" y="454" type="line"/>
      <point x="92" y="-20" type="line"/>
      <point x="152" y="-20" type="line"/>
      <point x="152" y="-34" type="line"/>
    </contour>
  </outline>
</glyph>
<glyph name="backslash" format="2">
  <advance width="202"/>
  <unicode hex="005C"/>
  <outline>
    <contour>
      <point x="170" y="60" type="line"/>
      <point x="-18" y="584" type="line"/>
      <point x="12" y="584" type="line"/>
      <point x="200" y="60" type="line"/>
    </contour>
  </outline>
</glyph>
<glyph name="bracketright" format="2">
  <advance width="163"/>
  <unicode hex="005D"/>
  <outline>
    <contour>
      <point x="130" y="-34" type="line"/>
      <point x="12" y="-34" type="line"/>
      <point x="12" y="-20" type="line"/>
      <point x="72" y="-20" type="line"/>
      <point x="72" y="454" type="line"/>
      <point x="12" y="454" type="line"/>
      <point x="12" y="468" type="line"/>
      <point x="130" y="468" type="line"/>
    </contour>
  </outline>
</glyph>
<glyph name="asciicircum" format="2">
  <advance width="130"/>
  <unicode hex="005E"/>
  <outline>
    <contour>
      <point x="142" y="371" type="line"/>
      <point x="142" y="368"/>
      <point x="128" y="360"/>
      <point x="116" y="353" type="curve" smooth="yes"/>
      <point x="109" y="349"/>
      <point x="102" y="345"/>
      <point x="102" y="344" type="curve"/>
      <point x="76" y="419" type="line"/>
      <point x="50" y="371" type="line" smooth="yes"/>
      <point x="47" y="365"/>
      <point x="36" y="359"/>
      <point x="26" y="354" type="curve" smooth="yes"/>
      <point x="18" y="350"/>
      <point x="11" y="347"/>
      <point x="10" y="344" type="curve"/>
      <point x="66" y="448" type="line" smooth="yes"/>
      <point x="68" y="452"/>
      <point x="80" y="460"/>
      <point x="91" y="466" type="curve" smooth="yes"/>
      <point x="97" y="469"/>
      <point x="103" y="473"/>
      <point x="106" y="475" type="curve"/>
    </contour>
  </outline>
</glyph>
<glyph name="underscore" format="2">
  <advance width="189"/>
  <unicode hex="005F"/>
  <outline>
    <contour>
      <point x="19" y="243" type="curve"/>
      <point x="170" y="243" type="line"/>
      <point x="172" y="235"/>
      <point x="173" y="227"/>
      <point x="173" y="219" type="curve" smooth="yes"/>
      <point x="173" y="211"/>
      <point x="172" y="204"/>
      <point x="170" y="197" type="curve"/>
      <point x="19" y="197" type="line"/>
      <point x="17" y="204"/>
      <point x="16" y="211"/>
      <point x="16" y="219" type="curve" smooth="yes"/>
      <point x="16" y="227"/>
      <point x="17" y="235"/>
    </contour>
  </outline>
</glyph>
<glyph name="grave" format="2">
  <advance width="135"/>
  <unicode hex="0060"/>
  <outline>
    <contour>
      <point x="91" y="424" type="line"/>
      <point x="90" y="423"/>
      <point x="88" y="422"/>
      <point x="86" y="421" type="curve" smooth="yes"/>
      <point x="84" y="420"/>
      <point x="82" y="419"/>
      <point x="80" y="418" type="curve"/>
      <point x="6" y="496" type="line"/>
      <point x="11" y="505" type="line"/>
      <point x="12" y="505"/>
      <point x="14" y="506"/>
      <point x="17" y="506" type="curve" smooth="yes"/>
      <point x="20" y="506"/>
      <point x="23" y="508"/>
      <point x="26" y="508" type="curve" smooth="yes"/>
      <point x="34" y="509" type="line"/>
      <point x="34" y="509"/>
      <point x="39" y="510"/>
      <point x="41" y="510" type="curve"/>
    </contour>
  </outline>
</glyph>
<glyph name="b" format="2">
  <advance width="219"/>
  <unicode hex="0062"/>
  <outline>
    <contour>
      <point x="93" y="194" type="curve" smooth="yes"/>
      <point x="54" y="194"/>
      <point x="29" y="225"/>
      <point x="32" y="259" type="curve" smooth="yes"/>
      <point x="46" y="453" type="line" smooth="yes"/>
      <point x="46" y="457"/>
      <point x="47" y="462"/>
      <point x="47" y="466" type="curve" smooth="yes"/>
      <point x="47" y="479"/>
      <point x="44" y="487"/>
      <point x="30" y="487" type="curve" smooth="yes"/>
      <point x="25" y="487"/>
      <point x="17" y="485"/>
      <point x="14" y="484" type="curve"/>
      <point x="15" y="485"/>
      <point x="70" y="524"/>
      <point x="89" y="533" type="curve"/>
      <point x="77" y="358" type="line"/>
      <point x="105" y="381"/>
      <point x="130" y="392"/>
      <point x="151" y="392" type="curve" smooth="yes"/>
      <point x="189" y="392"/>
      <point x="214" y="361"/>
      <point x="214" y="322" type="curve" smooth="yes"/>
      <point x="214" y="287"/>
      <point x="194" y="245"/>
      <point x="147" y="212" type="curve" smooth="yes"/>
      <point x="128" y="200"/>
      <point x="110" y="194"/>
    </contour>
    <contour>
      <point x="122" y="218" type="curve" smooth="yes"/>
      <point x="161" y="218"/>
      <point x="174" y="252"/>
      <point x="174" y="285" type="curve" smooth="yes"/>
      <point x="174" y="307"/>
      <point x="169" y="328"/>
      <point x="162" y="339" type="curve" smooth="yes"/>
      <point x="151" y="356"/>
      <point x="136" y="365"/>
      <point x="115" y="366" type="curve" smooth="yes"/>
      <point x="91" y="366"/>
      <point x="75" y="339"/>
      <point x="74" y="317" type="curve" smooth="yes"/>
      <point x="71" y="268" type="line" smooth="yes"/>
      <point x="68" y="237"/>
      <point x="93" y="218"/>
    </contour>
  </outline>
</glyph>
<glyph name="c" format="2">
  <advance width="184"/>
  <unicode hex="0063"/>
  <outline>
    <contour>
      <point x="151" y="397" type="curve" smooth="yes"/>
      <point x="180" y="397"/>
      <point x="194" y="388"/>
      <point x="194" y="384" type="curve" smooth="yes"/>
      <point x="194" y="374"/>
      <point x="154" y="351"/>
      <point x="150" y="351" type="curve"/>
      <point x="157" y="358"/>
      <point x="156" y="359"/>
      <point x="146" y="364" type="curve" smooth="yes"/>
      <point x="146" y="364"/>
      <point x="127" y="371"/>
      <point x="108" y="371" type="curve" smooth="yes"/>
      <point x="78" y="371"/>
      <point x="59" y="334"/>
      <point x="59" y="298" type="curve" smooth="yes"/>
      <point x="59" y="261"/>
      <point x="79" y="224"/>
      <point x="129" y="224" type="curve" smooth="yes"/>
      <point x="130" y="224"/>
      <point x="131" y="224"/>
      <point x="132" y="224" type="curve" smooth="yes"/>
      <point x="148" y="224"/>
      <point x="163" y="228"/>
      <point x="178" y="235" type="curve"/>
      <point x="168" y="225"/>
      <point x="134" y="197"/>
      <point x="86" y="197" type="curve" smooth="yes"/>
      <point x="47" y="197"/>
      <point x="18" y="227"/>
      <point x="18" y="268" type="curve" smooth="yes"/>
      <point x="18" y="288"/>
      <point x="26" y="311"/>
      <point x="43" y="334" type="curve" smooth="yes"/>
      <point x="82" y="386"/>
      <point x="134" y="397"/>
    </contour>
  </outline>
</glyph>
<glyph name="d" format="2">
  <advance width="221"/>
  <unicode hex="0064"/>
  <outline>
    <contour>
      <point x="219" y="218" type="line"/>
      <point x="213" y="214"/>
      <point x="207" y="209"/>
      <point x="202" y="206" type="curve" smooth="yes"/>
      <point x="197" y="203"/>
      <point x="193" y="201"/>
      <point x="189" y="199" type="curve" smooth="yes"/>
      <point x="185" y="197"/>
      <point x="182" y="196"/>
      <point x="179" y="195" type="curve" smooth="yes"/>
      <point x="176" y="194"/>
      <point x="174" y="194"/>
      <point x="172" y="194" type="curve" smooth="yes"/>
      <point x="168" y="194"/>
      <point x="164" y="197"/>
      <point x="161" y="203" type="curve" smooth="yes"/>
      <point x="158" y="209"/>
      <point x="156" y="220"/>
      <point x="155" y="235" type="curve"/>
      <point x="150" y="229"/>
      <point x="145" y="223"/>
      <point x="140" y="218" type="curve" smooth="yes"/>
      <point x="135" y="213"/>
      <point x="130" y="209"/>
      <point x="124" y="205" type="curve" smooth="yes"/>
      <point x="118" y="201"/>
      <point x="112" y="199"/>
      <point x="106" y="197" type="curve" smooth="yes"/>
      <point x="100" y="195"/>
      <point x="93" y="194"/>
      <point x="86" y="194" type="curve" smooth="yes"/>
      <point x="78" y="194"/>
      <point x="71" y="196"/>
      <point x="63" y="200" type="curve" smooth="yes"/>
      <point x="55" y="204"/>
      <point x="47" y="212"/>
      <point x="40" y="220" type="curve" smooth="yes"/>
      <point x="33" y="228"/>
      <point x="27" y="239"/>
      <point x="23" y="251" type="curve" smooth="yes"/>
      <point x="19" y="263"/>
      <point x="17" y="277"/>
      <point x="17" y="292" type="curve" smooth="yes"/>
      <point x="17" y="300"/>
      <point x="18" y="309"/>
      <point x="20" y="317" type="curve" smooth="yes"/>
      <point x="22" y="325"/>
      <point x="25" y="334"/>
      <point x="29" y="342" type="curve" smooth="yes"/>
      <point x="33" y="350"/>
      <point x="38" y="357"/>
      <point x="44" y="364" type="curve" smooth="yes"/>
      <point x="50" y="371"/>
      <point x="57" y="377"/>
      <point x="64" y="382" type="curve" smooth="yes"/>
      <point x="71" y="387"/>
      <point x="79" y="392"/>
      <point x="87" y="395" type="curve" smooth="yes"/>
      <point x="95" y="398"/>
      <point x="105" y="400"/>
      <point x="115" y="400" type="curve" smooth="yes"/>
      <point x="121" y="400"/>
      <point x="128" y="399"/>
      <point x="134" y="397" type="curve" smooth="yes"/>
      <point x="140" y="395"/>
      <point x="147" y="392"/>
      <point x="155" y="386" type="curve"/>
      <point x="155" y="465" type="line" smooth="yes"/>
      <point x="155" y="473"/>
      <point x="154" y="479"/>
      <point x="154" y="483" type="curve" smooth="yes"/>
      <point x="154" y="487"/>
      <point x="153" y="492"/>
      <point x="151" y="494" type="curve" smooth="yes"/>
      <point x="149" y="496"/>
      <point x="146" y="497"/>
      <point x="142" y="498" type="curve" smooth="yes"/>
      <point x="138" y="499"/>
      <point x="132" y="501"/>
      <point x="125" y="501" type="curve"/>
      <point x="125" y="509" type="line"/>
      <point x="136" y="511"/>
      <point x="146" y="513"/>
      <point x="155" y="515" type="curve" smooth="yes"/>
      <point x="164" y="517"/>
      <point x="173" y="520"/>
      <point x="180" y="522" type="curve"/>
      <point x="186" y="516" type="line"/>
      <point x="186" y="253" type="line" smooth="yes"/>
      <point x="186" y="248"/>
      <point x="186" y="244"/>
      <point x="186" y="240" type="curve" smooth="yes"/>
      <point x="186" y="236"/>
      <point x="188" y="234"/>
      <point x="188" y="232" type="curve" smooth="yes"/>
      <point x="188" y="230"/>
      <point x="189" y="228"/>
      <point x="189" y="226" type="curve" smooth="yes"/>
      <point x="189" y="224"/>
      <point x="190" y="223"/>
      <point x="191" y="222" type="curve" smooth="yes"/>
      <point x="192" y="220"/>
      <point x="194" y="220"/>
      <point x="198" y="221" type="curve" smooth="yes"/>
      <point x="202" y="222"/>
      <point x="208" y="223"/>
      <point x="216" y="226" type="curve"/>
    </contour>
    <contour>
      <point x="155" y="254" type="curve"/>
      <point x="155" y="352" type="line"/>
      <point x="151" y="360"/>
      <point x="144" y="366"/>
      <point x="136" y="370" type="curve" smooth="yes"/>
      <point x="128" y="374"/>
      <point x="118" y="377"/>
      <point x="108" y="377" type="curve" smooth="yes"/>
      <point x="99" y="377"/>
      <point x="91" y="375"/>
      <point x="84" y="372" type="curve" smooth="yes"/>
      <point x="77" y="369"/>
      <point x="70" y="363"/>
      <point x="65" y="357" type="curve" smooth="yes"/>
      <point x="60" y="351"/>
      <point x="55" y="343"/>
      <point x="52" y="333" type="curve" smooth="yes"/>
      <point x="49" y="323"/>
      <point x="48" y="312"/>
      <point x="48" y="299" type="curve" smooth="yes"/>
      <point x="48" y="287"/>
      <point x="50" y="277"/>
      <point x="53" y="267" type="curve" smooth="yes"/>
      <point x="56" y="257"/>
      <point x="61" y="249"/>
      <point x="66" y="242" type="curve" smooth="yes"/>
      <point x="71" y="235"/>
      <point x="77" y="230"/>
      <point x="83" y="226" type="curve" smooth="yes"/>
      <point x="89" y="222"/>
      <point x="95" y="221"/>
      <point x="101" y="221" type="curve" smooth="yes"/>
      <point x="106" y="221"/>
      <point x="111" y="222"/>
      <point x="115" y="224" type="curve" smooth="yes"/>
      <point x="119" y="226"/>
      <point x="125" y="228"/>
      <point x="129" y="231" type="curve" smooth="yes"/>
      <point x="133" y="234"/>
      <point x="138" y="238"/>
      <point x="142" y="242" type="curve" smooth="yes"/>
      <point x="146" y="246"/>
      <point x="151" y="250"/>
    </contour>
  </outline>
</glyph>
<glyph name="e" format="2">
  <advance width="170"/>
  <unicode hex="0065"/>
  <outline>
    <contour>
      <point x="62" y="273" type="curve"/>
      <point x="71" y="228"/>
      <point x="103" y="224"/>
      <point x="121" y="224" type="curve" smooth="yes"/>
      <point x="135" y="224"/>
      <point x="150" y="228"/>
      <point x="165" y="236" type="curve"/>
      <point x="156" y="227"/>
      <point x="127" y="197"/>
      <point x="74" y="197" type="curve" smooth="yes"/>
      <point x="43" y="197"/>
      <point x="19" y="226"/>
      <point x="19" y="265" type="curve" smooth="yes"/>
      <point x="19" y="299"/>
      <point x="37" y="340"/>
      <point x="83" y="373" type="curve" smooth="yes"/>
      <point x="100" y="386"/>
      <point x="117" y="392"/>
      <point x="132" y="392" type="curve" smooth="yes"/>
      <point x="146" y="392"/>
      <point x="158" y="382"/>
      <point x="158" y="366" type="curve" smooth="yes"/>
      <point x="158" y="348"/>
      <point x="143" y="323"/>
      <point x="99" y="295" type="curve" smooth="yes"/>
      <point x="89" y="288"/>
      <point x="77" y="281"/>
    </contour>
    <contour>
      <point x="60" y="282" type="curve"/>
      <point x="103" y="293"/>
      <point x="119" y="317"/>
      <point x="119" y="336" type="curve" smooth="yes"/>
      <point x="119" y="351"/>
      <point x="109" y="364"/>
      <point x="94" y="364" type="curve" smooth="yes"/>
      <point x="63" y="364"/>
      <point x="60" y="315"/>
      <point x="60" y="293" type="curve" smooth="yes"/>
      <point x="60" y="287"/>
      <point x="60" y="282"/>
    </contour>
  </outline>
</glyph>
<glyph name="f" format="2">
  <advance width="132"/>
  <unicode hex="0066"/>
  <outline>
    <contour>
      <point x="170" y="502" type="curve" smooth="yes"/>
      <point x="170" y="501"/>
      <point x="169" y="500"/>
      <point x="167" y="498" type="curve" smooth="yes"/>
      <point x="165" y="496"/>
      <point x="163" y="492"/>
      <point x="160" y="490" type="curve" smooth="yes"/>
      <point x="157" y="488"/>
      <point x="154" y="486"/>
      <point x="151" y="484" type="curve" smooth="yes"/>
      <point x="148" y="482"/>
      <point x="146" y="480"/>
      <point x="144" y="479" type="curve"/>
      <point x="141" y="482"/>
      <point x="137" y="485"/>
      <point x="134" y="487" type="curve" smooth="yes"/>
      <point x="131" y="489"/>
      <point x="127" y="491"/>
      <point x="124" y="492" type="curve" smooth="yes"/>
      <point x="121" y="493"/>
      <point x="118" y="494"/>
      <point x="115" y="495" type="curve" smooth="yes"/>
      <point x="112" y="496"/>
      <point x="110" y="496"/>
      <point x="108" y="496" type="curve" smooth="yes"/>
      <point x="104" y="496"/>
      <point x="101" y="495"/>
      <point x="97" y="493" type="curve" smooth="yes"/>
      <point x="93" y="491"/>
      <point x="89" y="486"/>
      <point x="85" y="480" type="curve" smooth="yes"/>
      <point x="81" y="474"/>
      <point x="78" y="465"/>
      <point x="76" y="454" type="curve" smooth="yes"/>
      <point x="74" y="443"/>
      <point x="73" y="428"/>
      <point x="73" y="411" type="curve" smooth="yes"/>
      <point x="73" y="394" type="line"/>
      <point x="126" y="394" type="line"/>
      <point x="132" y="388" type="line"/>
      <point x="131" y="386"/>
      <point x="130" y="383"/>
      <point x="128" y="381" type="curve" smooth="yes"/>
      <point x="126" y="379"/>
      <point x="124" y="377"/>
      <point x="122" y="375" type="curve" smooth="yes"/>
      <point x="120" y="373"/>
      <point x="119" y="372"/>
      <point x="117" y="370" type="curve" smooth="yes"/>
      <point x="115" y="368"/>
      <point x="113" y="366"/>
      <point x="112" y="366" type="curve"/>
      <point x="109" y="368"/>
      <point x="104" y="369"/>
      <point x="98" y="371" type="curve" smooth="yes"/>
      <point x="92" y="373"/>
      <point x="84" y="374"/>
      <point x="73" y="374" type="curve"/>
      <point x="73" y="221" type="line" smooth="yes"/>
      <point x="73" y="220"/>
      <point x="73" y="220"/>
      <point x="75" y="219" type="curve" smooth="yes"/>
      <point x="77" y="218"/>
      <point x="78" y="217"/>
      <point x="82" y="216" type="curve" smooth="yes"/>
      <point x="86" y="215"/>
      <point x="90" y="214"/>
      <point x="96" y="213" type="curve" smooth="yes"/>
      <point x="102" y="212"/>
      <point x="108" y="211"/>
      <point x="116" y="209" type="curve"/>
      <point x="116" y="200" type="line"/>
      <point x="12" y="200" type="line"/>
      <point x="12" y="209" type="line"/>
      <point x="22" y="211"/>
      <point x="29" y="213"/>
      <point x="34" y="215" type="curve" smooth="yes"/>
      <point x="39" y="217"/>
      <point x="42" y="219"/>
      <point x="42" y="221" type="curve" smooth="yes"/>
      <point x="42" y="374" type="line"/>
      <point x="14" y="374" type="line"/>
      <point x="9" y="380" type="line"/>
      <point x="26" y="394" type="line"/>
      <point x="42" y="394" type="line"/>
      <point x="42" y="400" type="line" smooth="yes"/>
      <point x="42" y="416"/>
      <point x="43" y="430"/>
      <point x="45" y="441" type="curve" smooth="yes"/>
      <point x="47" y="452"/>
      <point x="50" y="462"/>
      <point x="54" y="470" type="curve" smooth="yes"/>
      <point x="58" y="478"/>
      <point x="62" y="484"/>
      <point x="67" y="489" type="curve" smooth="yes"/>
      <point x="72" y="494"/>
      <point x="77" y="499"/>
      <point x="83" y="503" type="curve" smooth="yes"/>
      <point x="87" y="506"/>
      <point x="91" y="509"/>
      <point x="95" y="511" type="curve" smooth="yes"/>
      <point x="99" y="513"/>
      <point x="104" y="516"/>
      <point x="108" y="518" type="curve" smooth="yes"/>
      <point x="112" y="520"/>
      <point x="117" y="520"/>
      <point x="121" y="521" type="curve" smooth="yes"/>
      <point x="125" y="522"/>
      <point x="128" y="522"/>
      <point x="131" y="522" type="curve" smooth="yes"/>
      <point x="135" y="522"/>
      <point x="140" y="522"/>
      <point x="144" y="520" type="curve" smooth="yes"/>
      <point x="148" y="518"/>
      <point x="153" y="516"/>
      <point x="157" y="514" type="curve" smooth="yes"/>
      <point x="161" y="512"/>
      <point x="164" y="510"/>
      <point x="166" y="508" type="curve" smooth="yes"/>
      <point x="168" y="506"/>
      <point x="170" y="503"/>
    </contour>
  </outline>
</glyph>
<glyph name="g" format="2">
  <advance width="207"/>
  <unicode hex="0067"/>
  <outline>
    <contour>
      <point x="144" y="325" type="curve" smooth="yes"/>
      <point x="144" y="332"/>
      <point x="142" y="340"/>
      <point x="140" y="346" type="curve" smooth="yes"/>
      <point x="138" y="352"/>
      <point x="134" y="358"/>
      <point x="129" y="363" type="curve" smooth="yes"/>
      <point x="124" y="368"/>
      <point x="118" y="372"/>
      <point x="111" y="375" type="curve" smooth="yes"/>
      <point x="104" y="378"/>
      <point x="95" y="379"/>
      <point x="86" y="379" type="curve" smooth="yes"/>
      <point x="82" y="379"/>
      <point x="79" y="378"/>
      <point x="75" y="376" type="curve" smooth="yes"/>
      <point x="71" y="374"/>
      <point x="67" y="372"/>
      <point x="63" y="368" type="curve" smooth="yes"/>
      <point x="59" y="364"/>
      <point x="56" y="360"/>
      <point x="54" y="355" type="curve" smooth="yes"/>
      <point x="52" y="350"/>
      <point x="50" y="344"/>
      <point x="50" y="337" type="curve" smooth="yes"/>
      <point x="50" y="330"/>
      <point x="51" y="322"/>
      <point x="53" y="316" type="curve" smooth="yes"/>
      <point x="55" y="310"/>
      <point x="59" y="304"/>
      <point x="64" y="299" type="curve" smooth="yes"/>
      <point x="69" y="294"/>
      <point x="75" y="291"/>
      <point x="82" y="288" type="curve" smooth="yes"/>
      <point x="89" y="285"/>
      <point x="97" y="283"/>
      <point x="107" y="283" type="curve" smooth="yes"/>
      <point x="111" y="283"/>
      <point x="116" y="284"/>
      <point x="120" y="286" type="curve" smooth="yes"/>
      <point x="124" y="288"/>
      <point x="127" y="290"/>
      <point x="131" y="294" type="curve" smooth="yes"/>
      <point x="135" y="298"/>
      <point x="138" y="302"/>
      <point x="140" y="307" type="curve" smooth="yes"/>
      <point x="142" y="312"/>
      <point x="144" y="318"/>
    </contour>
    <contour>
      <point x="108" y="199" type="curve" smooth="yes"/>
      <point x="103" y="199"/>
      <point x="97" y="200"/>
      <point x="93" y="201" type="curve" smooth="yes"/>
      <point x="89" y="202"/>
      <point x="85" y="202"/>
      <point x="81" y="203" type="curve"/>
      <point x="71" y="197"/>
      <point x="63" y="193"/>
      <point x="57" y="189" type="curve" smooth="yes"/>
      <point x="51" y="185"/>
      <point x="47" y="180"/>
      <point x="44" y="177" type="curve" smooth="yes"/>
      <point x="41" y="174"/>
      <point x="39" y="171"/>
      <point x="38" y="168" type="curve" smooth="yes"/>
      <point x="37" y="165"/>
      <point x="38" y="162"/>
      <point x="38" y="160" type="curve" smooth="yes"/>
      <point x="38" y="154"/>
      <point x="39" y="149"/>
      <point x="43" y="144" type="curve" smooth="yes"/>
      <point x="47" y="139"/>
      <point x="53" y="134"/>
      <point x="59" y="130" type="curve" smooth="yes"/>
      <point x="65" y="126"/>
      <point x="74" y="123"/>
      <point x="82" y="121" type="curve" smooth="yes"/>
      <point x="90" y="119"/>
      <point x="98" y="118"/>
      <point x="108" y="118" type="curve" smooth="yes"/>
      <point x="117" y="118"/>
      <point x="126" y="120"/>
      <point x="134" y="122" type="curve" smooth="yes"/>
      <point x="142" y="124"/>
      <point x="148" y="128"/>
      <point x="154" y="132" type="curve" smooth="yes"/>
      <point x="160" y="136"/>
      <point x="163" y="142"/>
      <point x="166" y="148" type="curve" smooth="yes"/>
      <point x="169" y="154"/>
      <point x="170" y="160"/>
      <point x="170" y="167" type="curve" smooth="yes"/>
      <point x="170" y="171"/>
      <point x="170" y="175"/>
      <point x="168" y="178" type="curve" smooth="yes"/>
      <point x="166" y="181"/>
      <point x="163" y="184"/>
      <point x="158" y="187" type="curve" smooth="yes"/>
      <point x="153" y="190"/>
      <point x="147" y="192"/>
      <point x="139" y="194" type="curve" smooth="yes"/>
      <point x="131" y="196"/>
      <point x="121" y="198"/>
    </contour>
    <contour>
      <point x="173" y="333" type="curve" smooth="yes"/>
      <point x="173" y="322"/>
      <point x="171" y="313"/>
      <point x="166" y="304" type="curve" smooth="yes"/>
      <point x="161" y="295"/>
      <point x="155" y="288"/>
      <point x="147" y="282" type="curve" smooth="yes"/>
      <point x="139" y="276"/>
      <point x="130" y="271"/>
      <point x="120" y="267" type="curve" smooth="yes"/>
      <point x="110" y="263"/>
      <point x="100" y="261"/>
      <point x="90" y="261" type="curve" smooth="yes"/>
      <point x="83" y="255"/>
      <point x="78" y="252"/>
      <point x="76" y="248" type="curve" smooth="yes"/>
      <point x="74" y="244"/>
      <point x="72" y="242"/>
      <point x="72" y="241" type="curve" smooth="yes"/>
      <point x="72" y="239"/>
      <point x="72" y="238"/>
      <point x="74" y="236" type="curve" smooth="yes"/>
      <point x="76" y="234"/>
      <point x="78" y="233"/>
      <point x="82" y="231" type="curve" smooth="yes"/>
      <point x="86" y="229"/>
      <point x="91" y="229"/>
      <point x="98" y="227" type="curve" smooth="yes"/>
      <point x="105" y="225"/>
      <point x="114" y="224"/>
      <point x="125" y="223" type="curve" smooth="yes"/>
      <point x="140" y="221"/>
      <point x="153" y="218"/>
      <point x="163" y="215" type="curve" smooth="yes"/>
      <point x="173" y="212"/>
      <point x="180" y="208"/>
      <point x="186" y="204" type="curve" smooth="yes"/>
      <point x="192" y="200"/>
      <point x="196" y="195"/>
      <point x="198" y="190" type="curve" smooth="yes"/>
      <point x="200" y="185"/>
      <point x="202" y="180"/>
      <point x="202" y="175" type="curve" smooth="yes"/>
      <point x="202" y="167"/>
      <point x="200" y="160"/>
      <point x="197" y="153" type="curve" smooth="yes"/>
      <point x="194" y="146"/>
      <point x="191" y="140"/>
      <point x="186" y="134" type="curve" smooth="yes"/>
      <point x="181" y="128"/>
      <point x="175" y="123"/>
      <point x="168" y="118" type="curve" smooth="yes"/>
      <point x="161" y="113"/>
      <point x="154" y="109"/>
      <point x="146" y="106" type="curve" smooth="yes"/>
      <point x="138" y="103"/>
      <point x="130" y="101"/>
      <point x="122" y="99" type="curve" smooth="yes"/>
      <point x="114" y="97"/>
      <point x="105" y="96"/>
      <point x="97" y="96" type="curve" smooth="yes"/>
      <point x="91" y="96"/>
      <point x="84" y="96"/>
      <point x="77" y="97" type="curve" smooth="yes"/>
      <point x="70" y="98"/>
      <point x="63" y="100"/>
      <point x="56" y="102" type="curve" smooth="yes"/>
      <point x="49" y="104"/>
      <point x="43" y="106"/>
      <point x="37" y="109" type="curve" smooth="yes"/>
      <point x="31" y="112"/>
      <point x="25" y="116"/>
      <point x="21" y="120" type="curve" smooth="yes"/>
      <point x="17" y="124"/>
      <point x="13" y="129"/>
      <point x="10" y="134" type="curve" smooth="yes"/>
      <point x="7" y="139"/>
      <point x="6" y="145"/>
      <point x="6" y="152" type="curve" smooth="yes"/>
      <point x="6" y="156"/>
      <point x="7" y="160"/>
      <point x="8" y="164" type="curve" smooth="yes"/>
      <point x="9" y="168"/>
      <point x="12" y="172"/>
      <point x="16" y="176" type="curve" smooth="yes"/>
      <point x="20" y="180"/>
      <point x="26" y="186"/>
      <point x="33" y="191" type="curve" smooth="yes"/>
      <point x="40" y="196"/>
      <point x="50" y="203"/>
      <point x="62" y="209" type="curve"/>
      <point x="53" y="212"/>
      <point x="47" y="216"/>
      <point x="43" y="220" type="curve" smooth="yes"/>
      <point x="39" y="224"/>
      <point x="38" y="228"/>
      <point x="38" y="232" type="curve" smooth="yes"/>
      <point x="38" y="233"/>
      <point x="38" y="234"/>
      <point x="39" y="236" type="curve" smooth="yes"/>
      <point x="40" y="238"/>
      <point x="41" y="240"/>
      <point x="43" y="243" type="curve" smooth="yes"/>
      <point x="45" y="246"/>
      <point x="48" y="248"/>
      <point x="52" y="252" type="curve" smooth="yes"/>
      <point x="56" y="256"/>
      <point x="62" y="260"/>
      <point x="68" y="264" type="curve"/>
      <point x="61" y="266"/>
      <point x="54" y="269"/>
      <point x="48" y="273" type="curve" smooth="yes"/>
      <point x="42" y="277"/>
      <point x="38" y="281"/>
      <point x="34" y="286" type="curve" smooth="yes"/>
      <point x="30" y="291"/>
      <point x="26" y="298"/>
      <point x="24" y="304" type="curve" smooth="yes"/>
      <point x="22" y="310"/>
      <point x="21" y="317"/>
      <point x="21" y="325" type="curve" smooth="yes"/>
      <point x="21" y="335"/>
      <point x="24" y="345"/>
      <point x="28" y="354" type="curve" smooth="yes"/>
      <point x="32" y="363"/>
      <point x="38" y="371"/>
      <point x="46" y="378" type="curve" smooth="yes"/>
      <point x="54" y="385"/>
      <point x="61" y="390"/>
      <point x="71" y="394" type="curve" smooth="yes"/>
      <point x="81" y="398"/>
      <point x="91" y="400"/>
      <point x="101" y="400" type="curve" smooth="yes"/>
      <point x="109" y="400"/>
      <point x="117" y="398"/>
      <point x="124" y="396" type="curve" smooth="yes"/>
      <point x="131" y="394"/>
      <point x="138" y="390"/>
      <point x="144" y="386" type="curve"/>
      <point x="151" y="387"/>
      <point x="158" y="388"/>
      <point x="164" y="389" type="curve" smooth="yes"/>
      <point x="170" y="390"/>
      <point x="174" y="391"/>
      <point x="179" y="392" type="curve" smooth="yes"/>
      <point x="184" y="393"/>
      <point x="188" y="395"/>
      <point x="192" y="396" type="curve" smooth="yes"/>
      <point x="196" y="397"/>
      <point x="199" y="399"/>
      <point x="202" y="400" type="curve"/>
      <point x="206" y="394" type="line"/>
      <point x="204" y="390"/>
      <point x="203" y="386"/>
      <point x="201" y="383" type="curve" smooth="yes"/>
      <point x="199" y="380"/>
      <point x="197" y="377"/>
      <point x="194" y="373" type="curve"/>
      <point x="189" y="372"/>
      <point x="183" y="370"/>
      <point x="178" y="370" type="curve" smooth="yes"/>
      <point x="173" y="370"/>
      <point x="167" y="369"/>
      <point x="161" y="369" type="curve"/>
      <point x="165" y="364"/>
      <point x="168" y="358"/>
      <point x="170" y="352" type="curve" smooth="yes"/>
      <point x="172" y="346"/>
      <point x="173" y="340"/>
    </contour>
  </outline>
</glyph>
<glyph name="j" format="2">
  <advance width="105"/>
  <unicode hex="006A"/>
  <outline>
    <contour>
      <point x="54" y="462" type="curve"/>
      <point x="54" y="463"/>
      <point x="56" y="474"/>
      <point x="56" y="505" type="curve"/>
      <point x="96" y="532" type="line"/>
      <point x="96" y="510" type="line"/>
      <point x="95" y="498" type="line" smooth="yes"/>
      <point x="93" y="484"/>
      <point x="78" y="476"/>
      <point x="66" y="470" type="curve" smooth="yes"/>
      <point x="61" y="467"/>
      <point x="56" y="464"/>
    </contour>
    <contour>
      <point x="1" y="118" type="curve" smooth="yes"/>
      <point x="1" y="111"/>
      <point x="7" y="108"/>
      <point x="12" y="109" type="curve"/>
      <point x="13" y="109" type="line"/>
      <point x="25" y="126"/>
      <point x="32" y="150"/>
      <point x="35" y="180" type="curve" smooth="yes"/>
      <point x="37" y="209"/>
      <point x="40" y="239"/>
      <point x="42" y="269" type="curve" smooth="yes"/>
      <point x="43" y="286"/>
      <point x="44" y="302"/>
      <point x="45" y="318" type="curve" smooth="yes"/>
      <point x="45" y="321"/>
      <point x="45" y="324"/>
      <point x="45" y="327" type="curve" smooth="yes"/>
      <point x="45" y="341"/>
      <point x="42" y="350"/>
      <point x="32" y="350" type="curve" smooth="yes"/>
      <point x="27" y="350"/>
      <point x="21" y="349"/>
      <point x="13" y="348" type="curve"/>
      <point x="30" y="361"/>
      <point x="55" y="377"/>
      <point x="88" y="396" type="curve"/>
      <point x="78" y="238" type="line" smooth="yes"/>
      <point x="76" y="205"/>
      <point x="71" y="142"/>
      <point x="23" y="103" type="curve" smooth="yes"/>
      <point x="7" y="90"/>
      <point x="-9" y="83"/>
      <point x="-26" y="82" type="curve" smooth="yes"/>
      <point x="-34" y="82"/>
      <point x="-38" y="85"/>
      <point x="-38" y="92" type="curve" smooth="yes"/>
      <point x="-38" y="100"/>
      <point x="-28" y="106"/>
      <point x="-19" y="111" type="curve" smooth="yes"/>
      <point x="-19" y="111"/>
      <point x="5" y="126"/>
      <point x="6" y="127" type="curve"/>
      <point x="3" y="124"/>
      <point x="1" y="121"/>
    </contour>
  </outline>
</glyph>
<glyph name="k" format="2">
  <advance width="207"/>
  <unicode hex="006B"/>
  <outline>
    <contour>
      <point x="6" y="200" type="line"/>
      <point x="6" y="209" type="line"/>
      <point x="15" y="211"/>
      <point x="23" y="213"/>
      <point x="28" y="215" type="curve" smooth="yes"/>
      <point x="33" y="217"/>
      <point x="35" y="220"/>
      <point x="35" y="222" type="curve" smooth="yes"/>
      <point x="35" y="470" type="line" smooth="yes"/>
      <point x="35" y="476"/>
      <point x="35" y="480"/>
      <point x="34" y="484" type="curve" smooth="yes"/>
      <point x="33" y="488"/>
      <point x="32" y="490"/>
      <point x="30" y="492" type="curve" smooth="yes"/>
      <point x="28" y="494"/>
      <point x="25" y="496"/>
      <point x="21" y="496" type="curve" smooth="yes"/>
      <point x="17" y="496"/>
      <point x="12" y="497"/>
      <point x="6" y="498" type="curve"/>
      <point x="6" y="506" type="line"/>
      <point x="16" y="508"/>
      <point x="25" y="510"/>
      <point x="34" y="512" type="curve" smooth="yes"/>
      <point x="43" y="514"/>
      <point x="52" y="518"/>
      <point x="59" y="522" type="curve"/>
      <point x="66" y="515" type="line"/>
      <point x="66" y="310" type="line"/>
      <point x="131" y="366" type="line" smooth="yes"/>
      <point x="135" y="370"/>
      <point x="138" y="374"/>
      <point x="139" y="376" type="curve" smooth="yes"/>
      <point x="140" y="378"/>
      <point x="139" y="380"/>
      <point x="138" y="381" type="curve" smooth="yes"/>
      <point x="137" y="382"/>
      <point x="135" y="384"/>
      <point x="132" y="384" type="curve" smooth="yes"/>
      <point x="129" y="384"/>
      <point x="126" y="384"/>
      <point x="122" y="384" type="curve"/>
      <point x="122" y="394" type="line"/>
      <point x="200" y="394" type="line"/>
      <point x="200" y="384" type="line"/>
      <point x="194" y="383"/>
      <point x="189" y="383"/>
      <point x="184" y="381" type="curve" smooth="yes"/>
      <point x="179" y="379"/>
      <point x="173" y="377"/>
      <point x="167" y="372" type="curve" smooth="yes"/>
      <point x="96" y="315" type="line"/>
      <point x="174" y="223" type="line" smooth="yes"/>
      <point x="176" y="221"/>
      <point x="178" y="220"/>
      <point x="180" y="218" type="curve" smooth="yes"/>
      <point x="182" y="216"/>
      <point x="186" y="215"/>
      <point x="188" y="214" type="curve" smooth="yes"/>
      <point x="190" y="213"/>
      <point x="193" y="212"/>
      <point x="196" y="212" type="curve" smooth="yes"/>
      <point x="199" y="212"/>
      <point x="202" y="213"/>
      <point x="206" y="213" type="curve"/>
      <point x="208" y="204" type="line"/>
      <point x="204" y="203"/>
      <point x="200" y="202"/>
      <point x="196" y="201" type="curve" smooth="yes"/>
      <point x="192" y="200"/>
      <point x="188" y="200"/>
      <point x="185" y="200" type="curve" smooth="yes"/>
      <point x="182" y="200"/>
      <point x="179" y="198"/>
      <point x="176" y="198" type="curve" smooth="yes"/>
      <point x="173" y="198"/>
      <point x="171" y="198"/>
      <point x="170" y="198" type="curve" smooth="yes"/>
      <point x="164" y="198"/>
      <point x="160" y="198"/>
      <point x="156" y="200" type="curve" smooth="yes"/>
      <point x="152" y="202"/>
      <point x="149" y="205"/>
      <point x="146" y="209" type="curve" smooth="yes"/>
      <point x="66" y="308" type="line"/>
      <point x="66" y="222" type="line" smooth="yes"/>
      <point x="66" y="221"/>
      <point x="67" y="220"/>
      <point x="67" y="219" type="curve" smooth="yes"/>
      <point x="67" y="218"/>
      <point x="68" y="217"/>
      <point x="70" y="216" type="curve" smooth="yes"/>
      <point x="72" y="215"/>
      <point x="74" y="214"/>
      <point x="77" y="213" type="curve" smooth="yes"/>
      <point x="80" y="212"/>
      <point x="85" y="211"/>
      <point x="90" y="209" type="curve"/>
      <point x="90" y="200" type="line"/>
    </contour>
  </outline>
</glyph>
<glyph name="l" format="2">
  <advance width="115"/>
  <unicode hex="006C"/>
  <outline>
    <contour>
      <point x="12" y="200" type="line"/>
      <point x="12" y="209" type="line"/>
      <point x="18" y="210"/>
      <point x="24" y="211"/>
      <point x="28" y="212" type="curve" smooth="yes"/>
      <point x="32" y="213"/>
      <point x="35" y="214"/>
      <point x="37" y="215" type="curve" smooth="yes"/>
      <point x="39" y="216"/>
      <point x="41" y="217"/>
      <point x="42" y="218" type="curve" smooth="yes"/>
      <point x="43" y="219"/>
      <point x="44" y="221"/>
      <point x="44" y="222" type="curve" smooth="yes"/>
      <point x="44" y="470" type="line" smooth="yes"/>
      <point x="44" y="476"/>
      <point x="43" y="480"/>
      <point x="42" y="484" type="curve" smooth="yes"/>
      <point x="41" y="488"/>
      <point x="40" y="490"/>
      <point x="38" y="492" type="curve" smooth="yes"/>
      <point x="36" y="494"/>
      <point x="33" y="495"/>
      <point x="29" y="496" type="curve" smooth="yes"/>
      <point x="25" y="497"/>
      <point x="20" y="497"/>
      <point x="14" y="498" type="curve"/>
      <point x="14" y="506" type="line"/>
      <point x="24" y="508"/>
      <point x="34" y="510"/>
      <point x="42" y="512" type="curve" smooth="yes"/>
      <point x="50" y="514"/>
      <point x="59" y="518"/>
      <point x="67" y="522" type="curve"/>
      <point x="75" y="515" type="line"/>
      <point x="75" y="222" type="line" smooth="yes"/>
      <point x="75" y="220"/>
      <point x="77" y="217"/>
      <point x="82" y="215" type="curve" smooth="yes"/>
      <point x="87" y="213"/>
      <point x="95" y="211"/>
      <point x="106" y="209" type="curve"/>
      <point x="106" y="200" type="line"/>
    </contour>
  </outline>
</glyph>
